  0
SECTION
  2
HEADER
  9
$ACADVER
  1
AC1014
  9
$HANDSEED
  5
FFFF
  9
$MEASUREMENT
 70
     1
  0
ENDSEC
  0
SECTION
  2
TABLES
  0
TABLE
  2
VPORT
  5
8
330
0
100
AcDbSymbolTable
 70
     4
  0
VPORT
  5
2E
330
8
100
AcDbSymbolTableRecord
100
AcDbViewportTableRecord
  2
*ACTIVE
 70
     0
 10
0.0
 20
0.0
 11
1.0
 21
1.0
 12
210.0
 22
148.5
 13
0.0
 23
0.0
 14
10.0
 24
10.0
 15
10.0
 25
10.0
 16
0.0
 26
0.0
 36
1.0
 17
0.0
 27
0.0
 37
0.0
 40
341.0
 41
1.24
 42
50.0
 43
0.0
 44
0.0
 50
0.0
 51
0.0
 71
     0
 72
   100
 73
     1
 74
     3
 75
     0
 76
     0
 77
     0
 78
     0
  0
ENDTAB
  0
TABLE
  2
LTYPE
  5
5
330
0
100
AcDbSymbolTable
 70
     1
  0
LTYPE
  5
14
330
5
100
AcDbSymbolTableRecord
100
AcDbLinetypeTableRecord
  2
BYBLOCK
 70
     0
  3

 72
    65
 73
     0
 40
0.0
  0
LTYPE
  5
15
330
5
100
AcDbSymbolTableRecord
100
AcDbLinetypeTableRecord
  2
BYLAYER
 70
     0
  3

 72
    65
 73
     0
 40
0.0
  0
LTYPE
  5
16
330
5
100
AcDbSymbolTableRecord
100
AcDbLinetypeTableRecord
  2
CONTINUOUS
 70
     0
  3
Solid line
 72
    65
 73
     0
 40
0.0
  0
ENDTAB
  0
TABLE
  2
LAYER
  5
2
100
AcDbSymbolTable
 70
2
  0
LAYER
  5
50
100
AcDbSymbolTableRecord
100
AcDbLayerTableRecord
  2
0
 70
0
  6
CONTINUOUS
  0
LAYER
  5
51
100
AcDbSymbolTableRecord
100
AcDbLayerTableRecord
  2
Layer_1
 70
0
  6
CONTINUOUS
  0
ENDTAB
  0
TABLE
  2
STYLE
  5
3
330
0
100
AcDbSymbolTable
 70
     1
  0
STYLE
  5
11
330
3
100
AcDbSymbolTableRecord
100
AcDbTextStyleTableRecord
  2
STANDARD
 70
     0
 40
0.0
 41
1.0
 50
0.0
 71
     0
 42
2.5
  3
txt
  4

  0
ENDTAB
  0
TABLE
  2
VIEW
  5
6
330
0
100
AcDbSymbolTable
 70
     0
  0
ENDTAB
  0
TABLE
  2
UCS
  5
7
330
0
100
AcDbSymbolTable
 70
     0
  0
ENDTAB
  0
TABLE
  2
APPID
  5
9
330
0
100
AcDbSymbolTable
 70
     2
  0
APPID
  5
12
330
9
100
AcDbSymbolTableRecord
100
AcDbRegAppTableRecord
  2
ACAD
 70
     0
  0
ENDTAB
  0
TABLE
  2
DIMSTYLE
  5
A
330
0
100
AcDbSymbolTable
 70
     1
  0
DIMSTYLE
105
27
330
A
100
AcDbSymbolTableRecord
100
AcDbDimStyleTableRecord
  2
ISO-25
 70
     0
  3

  4

  5

  6

  7

 40
1.0
 41
2.5
 42
0.625
 43
3.75
 44
1.25
 45
0.0
 46
0.0
 47
0.0
 48
0.0
140
2.5
141
2.5
142
0.0
143
0.03937007874016
144
1.0
145
0.0
146
1.0
147
0.625
 71
     0
 72
     0
 73
     0
 74
     0
 75
     0
 76
     0
 77
     1
 78
     8
170
     0
171
     3
172
     1
173
     0
174
     0
175
     0
176
     0
177
     0
178
     0
270
     2
271
     2
272
     2
273
     2
274
     3
340
11
275
     0
280
     0
281
     0
282
     0
283
     0
284
     8
285
     0
286
     0
287
     3
288
     0
  0
ENDTAB
  0
TABLE
  2
BLOCK_RECORD
  5
1
330
0
100
AcDbSymbolTable
 70
     1
  0
BLOCK_RECORD
  5
1F
330
1
100
AcDbSymbolTableRecord
100
AcDbBlockTableRecord
  2
*MODEL_SPACE
  0
BLOCK_RECORD
  5
1B
330
1
100
AcDbSymbolTableRecord
100
AcDbBlockTableRecord
  2
*PAPER_SPACE
  0
ENDTAB
  0
ENDSEC
  0
SECTION
  2
BLOCKS
  0
BLOCK
  5
20
330
1F
100
AcDbEntity
  8
0
100
AcDbBlockBegin
  2
*MODEL_SPACE
 70
     0
 10
0.0
 20
0.0
 30
0.0
  3
*MODEL_SPACE
  1

  0
ENDBLK
  5
21
330
1F
100
AcDbEntity
  8
0
100
AcDbBlockEnd
  0
BLOCK
  5
1C
330
1B
100
AcDbEntity
 67
     1
  8
0
100
AcDbBlockBegin
  2
*PAPER_SPACE
  1

  0
ENDBLK
  5
1D
330
1B
100
AcDbEntity
 67
     1
  8
0
100
AcDbBlockEnd
  0
ENDSEC
  0
SECTION
  2
ENTITIES
  0
SPLINE
  5
100
100
AcDbEntity
  8
Layer_1
 62
7
100
AcDbSpline
 70
8
 71
3
 72
8
 73
4
 74
0
 40
0
 40
0
 40
0
 40
0
 40
1
 40
1
 40
1
 40
1
 10
766.192391
 20
508.234762
 30
0.0
 10
765.282912
 20
509.640860
 30
0.0
 10
764.183279
 20
512.236431
 30
0.0
 10
763.748765
 20
514.002728
 30
0.0
  0
SPLINE
  5
101
100
AcDbEntity
  8
Layer_1
 62
7
100
AcDbSpline
 70
8
 71
3
 72
8
 73
4
 74
0
 40
0
 40
0
 40
0
 40
0
 40
1
 40
1
 40
1
 40
1
 10
763.748765
 20
514.002728
 30
0.0
 10
763.089069
 20
516.684387
 30
0.0
 10
762.516896
 20
517.103291
 30
0.0
 10
760.280417
 20
516.541946
 30
0.0
  0
SPLINE
  5
102
100
AcDbEntity
  8
Layer_1
 62
7
100
AcDbSpline
 70
8
 71
3
 72
8
 73
4
 74
0
 40
0
 40
0
 40
0
 40
0
 40
1
 40
1
 40
1
 40
1
 10
760.280417
 20
516.541946
 30
0.0
 10
757.449332
 20
515.831414
 30
0.0
 10
753.022545
 20
519.104721
 30
0.0
 10
753.022545
 20
521.908668
 30
0.0
  0
SPLINE
  5
103
100
AcDbEntity
  8
Layer_1
 62
7
100
AcDbSpline
 70
8
 71
3
 72
8
 73
4
 74
0
 40
0
 40
0
 40
0
 40
0
 40
1
 40
1
 40
1
 40
1
 10
753.022545
 20
521.908668
 30
0.0
 10
753.022545
 20
522.711326
 30
0.0
 10
751.437952
 20
524.304085
 30
0.0
 10
749.501229
 20
525.448120
 30
0.0
  0
SPLINE
  5
104
100
AcDbEntity
  8
Layer_1
 62
7
100
AcDbSpline
 70
8
 71
3
 72
8
 73
4
 74
0
 40
0
 40
0
 40
0
 40
0
 40
1
 40
1
 40
1
 40
1
 10
749.501229
 20
525.448120
 30
0.0
 10
745.717020
 20
527.683521
 30
0.0
 10
742.796433
 20
533.250312
 30
0.0
 10
742.796433
 20
538.227808
 30
0.0
  0
SPLINE
  5
105
100
AcDbEntity
  8
Layer_1
 62
7
100
AcDbSpline
 70
8
 71
3
 72
8
 73
4
 74
0
 40
0
 40
0
 40
0
 40
0
 40
1
 40
1
 40
1
 40
1
 10
742.796433
 20
538.227808
 30
0.0
 10
742.796433
 20
540.265890
 30
0.0
 10
741.512611
 20
542.489046
 30
0.0
 10
739.002478
 20
544.797666
 30
0.0
  0
SPLINE
  5
106
100
AcDbEntity
  8
Layer_1
 62
7
100
AcDbSpline
 70
8
 71
3
 72
8
 73
4
 74
0
 40
0
 40
0
 40
0
 40
0
 40
1
 40
1
 40
1
 40
1
 10
739.002478
 20
544.797666
 30
0.0
 10
730.976374
 20
552.179452
 30
0.0
 10
730.549596
 20
567.387950
 30
0.0
 10
738.235256
 20
572.137937
 30
0.0
  0
SPLINE
  5
107
100
AcDbEntity
  8
Layer_1
 62
7
100
AcDbSpline
 70
8
 71
3
 72
8
 73
4
 74
0
 40
0
 40
0
 40
0
 40
0
 40
1
 40
1
 40
1
 40
1
 10
738.235256
 20
572.137937
 30
0.0
 10
738.869117
 20
572.529685
 30
0.0
 10
739.387726
 20
574.915805
 30
0.0
 10
739.387726
 20
577.440425
 30
0.0
  0
SPLINE
  5
108
100
AcDbEntity
  8
Layer_1
 62
7
100
AcDbSpline
 70
8
 71
3
 72
8
 73
4
 74
0
 40
0
 40
0
 40
0
 40
0
 40
1
 40
1
 40
1
 40
1
 10
739.387726
 20
577.440425
 30
0.0
 10
739.387726
 20
583.142173
 30
0.0
 10
742.085634
 20
588.896476
 30
0.0
 10
746.340868
 20
592.540044
 30
0.0
  0
SPLINE
  5
109
100
AcDbEntity
  8
Layer_1
 62
7
100
AcDbSpline
 70
8
 71
3
 72
8
 73
4
 74
0
 40
0
 40
0
 40
0
 40
0
 40
1
 40
1
 40
1
 40
1
 10
746.340868
 20
592.540044
 30
0.0
 10
749.577770
 20
595.311676
 30
0.0
 10
750.278628
 20
598.707269
 30
0.0
 10
747.944700
 20
599.370350
 30
0.0
  0
SPLINE
  5
10a
100
AcDbEntity
  8
Layer_1
 62
7
100
AcDbSpline
 70
8
 71
3
 72
8
 73
4
 74
0
 40
0
 40
0
 40
0
 40
0
 40
1
 40
1
 40
1
 40
1
 10
747.944700
 20
599.370350
 30
0.0
 10
737.955570
 20
602.208369
 30
0.0
 10
739.938192
 20
618.106983
 30
0.0
 10
750.367290
 20
618.403507
 30
0.0
  0
SPLINE
  5
10b
100
AcDbEntity
  8
Layer_1
 62
7
100
AcDbSpline
 70
8
 71
3
 72
8
 73
4
 74
0
 40
0
 40
0
 40
0
 40
0
 40
1
 40
1
 40
1
 40
1
 10
750.367290
 20
618.403507
 30
0.0
 10
758.928005
 20
618.646918
 30
0.0
 10
764.698252
 20
605.548233
 30
0.0
 10
757.637572
 20
601.733395
 30
0.0
  0
SPLINE
  5
10c
100
AcDbEntity
  8
Layer_1
 62
7
100
AcDbSpline
 70
8
 71
3
 72
8
 73
4
 74
0
 40
0
 40
0
 40
0
 40
0
 40
1
 40
1
 40
1
 40
1
 10
757.637572
 20
601.733395
 30
0.0
 10
755.396271
 20
600.522435
 30
0.0
 10
756.039373
 20
598.139206
 30
0.0
 10
758.568861
 20
597.713244
 30
0.0
  0
SPLINE
  5
10d
100
AcDbEntity
  8
Layer_1
 62
7
100
AcDbSpline
 70
8
 71
3
 72
8
 73
4
 74
0
 40
0
 40
0
 40
0
 40
0
 40
1
 40
1
 40
1
 40
1
 10
758.568861
 20
597.713244
 30
0.0
 10
759.728222
 20
597.517937
 30
0.0
 10
762.059254
 20
599.486825
 30
0.0
 10
763.712651
 20
601.654564
 30
0.0
  0
SPLINE
  5
10e
100
AcDbEntity
  8
Layer_1
 62
7
100
AcDbSpline
 70
8
 71
3
 72
8
 73
4
 74
0
 40
0
 40
0
 40
0
 40
0
 40
1
 40
1
 40
1
 40
1
 10
763.712651
 20
601.654564
 30
0.0
 10
769.416900
 20
609.133209
 30
0.0
 10
778.790047
 20
609.551490
 30
0.0
 10
787.731403
 20
602.726400
 30
0.0
  0
SPLINE
  5
10f
100
AcDbEntity
  8
Layer_1
 62
7
100
AcDbSpline
 70
8
 71
3
 72
8
 73
4
 74
0
 40
0
 40
0
 40
0
 40
0
 40
1
 40
1
 40
1
 40
1
 10
787.731403
 20
602.726400
 30
0.0
 10
790.992085
 20
600.237468
 30
0.0
 10
794.073572
 20
598.849483
 30
0.0
 10
796.338658
 20
598.849483
 30
0.0
  0
SPLINE
  5
110
100
AcDbEntity
  8
Layer_1
 62
7
100
AcDbSpline
 70
8
 71
3
 72
8
 73
4
 74
0
 40
0
 40
0
 40
0
 40
0
 40
1
 40
1
 40
1
 40
1
 10
796.338658
 20
598.849483
 30
0.0
 10
805.156594
 20
598.849483
 30
0.0
 10
811.740515
 20
591.961238
 30
0.0
 10
813.488111
 20
580.907339
 30
0.0
  0
SPLINE
  5
111
100
AcDbEntity
  8
Layer_1
 62
7
100
AcDbSpline
 70
8
 71
3
 72
8
 73
4
 74
0
 40
0
 40
0
 40
0
 40
0
 40
1
 40
1
 40
1
 40
1
 10
813.488111
 20
580.907339
 30
0.0
 10
814.471571
 20
574.686765
 30
0.0
 10
817.297943
 20
572.535723
 30
0.0
 10
820.449530
 20
569.216069
 30
0.0
  0
SPLINE
  5
112
100
AcDbEntity
  8
Layer_1
 62
7
100
AcDbSpline
 70
8
 71
3
 72
8
 73
4
 74
0
 40
0
 40
0
 40
0
 40
0
 40
1
 40
1
 40
1
 40
1
 10
820.449530
 20
569.216069
 30
0.0
 10
826.389190
 20
562.959638
 30
0.0
 10
823.066549
 20
550.007320
 30
0.0
 10
815.806704
 20
544.294431
 30
0.0
  0
SPLINE
  5
113
100
AcDbEntity
  8
Layer_1
 62
7
100
AcDbSpline
 70
8
 71
3
 72
8
 73
4
 74
0
 40
0
 40
0
 40
0
 40
0
 40
1
 40
1
 40
1
 40
1
 10
815.806704
 20
544.294431
 30
0.0
 10
813.074309
 20
542.144268
 30
0.0
 10
812.674877
 20
541.041676
 30
0.0
 10
812.674877
 20
535.649414
 30
0.0
  0
SPLINE
  5
114
100
AcDbEntity
  8
Layer_1
 62
7
100
AcDbSpline
 70
8
 71
3
 72
8
 73
4
 74
0
 40
0
 40
0
 40
0
 40
0
 40
1
 40
1
 40
1
 40
1
 10
812.674877
 20
535.649414
 30
0.0
 10
812.674877
 20
529.856476
 30
0.0
 10
812.372017
 20
529.180668
 30
0.0
 10
807.845876
 20
524.873650
 30
0.0
  0
SPLINE
  5
115
100
AcDbEntity
  8
Layer_1
 62
7
100
AcDbSpline
 70
8
 71
3
 72
8
 73
4
 74
0
 40
0
 40
0
 40
0
 40
0
 40
1
 40
1
 40
1
 40
1
 10
807.845876
 20
524.873650
 30
0.0
 10
805.189929
 20
522.346280
 30
0.0
 10
803.016879
 20
519.481417
 30
0.0
 10
803.016879
 20
518.507263
 30
0.0
  0
SPLINE
  5
116
100
AcDbEntity
  8
Layer_1
 62
7
100
AcDbSpline
 70
8
 71
3
 72
8
 73
4
 74
0
 40
0
 40
0
 40
0
 40
0
 40
1
 40
1
 40
1
 40
1
 10
803.016879
 20
518.507263
 30
0.0
 10
803.016879
 20
506.928869
 30
0.0
 10
793.509528
 20
503.688472
 30
0.0
 10
790.671668
 20
514.299628
 30
0.0
  0
SPLINE
  5
117
100
AcDbEntity
  8
Layer_1
 62
7
100
AcDbSpline
 70
8
 71
3
 72
8
 73
4
 74
0
 40
0
 40
0
 40
0
 40
0
 40
1
 40
1
 40
1
 40
1
 10
790.671668
 20
514.299628
 30
0.0
 10
789.599052
 20
518.310283
 30
0.0
 10
776.883478
 20
519.569887
 30
0.0
 10
776.883478
 20
515.665474
 30
0.0
  0
SPLINE
  5
118
100
AcDbEntity
  8
Layer_1
 62
7
100
AcDbSpline
 70
8
 71
3
 72
8
 73
4
 74
0
 40
0
 40
0
 40
0
 40
0
 40
1
 40
1
 40
1
 40
1
 10
776.883478
 20
515.665474
 30
0.0
 10
776.883478
 20
507.417704
 30
0.0
 10
769.872662
 20
502.544920
 30
0.0
 10
766.192391
 20
508.234762
 30
0.0
  0
SPLINE
  5
119
100
AcDbEntity
  8
Layer_1
 62
7
100
AcDbSpline
 70
8
 71
3
 72
8
 73
4
 74
0
 40
0
 40
0
 40
0
 40
0
 40
1
 40
1
 40
1
 40
1
 10
772.642029
 20
508.802882
 30
0.0
 10
776.975567
 20
513.611575
 30
0.0
 10
776.427542
 20
517.040589
 30
0.0
 10
771.325481
 20
517.040589
 30
0.0
  0
SPLINE
  5
11a
100
AcDbEntity
  8
Layer_1
 62
7
100
AcDbSpline
 70
8
 71
3
 72
8
 73
4
 74
0
 40
0
 40
0
 40
0
 40
0
 40
1
 40
1
 40
1
 40
1
 10
771.325481
 20
517.040589
 30
0.0
 10
766.217183
 20
517.040589
 30
0.0
 10
764.392133
 20
516.435449
 30
0.0
 10
766.506626
 20
510.587915
 30
0.0
  0
SPLINE
  5
11b
100
AcDbEntity
  8
Layer_1
 62
7
100
AcDbSpline
 70
8
 71
3
 72
8
 73
4
 74
0
 40
0
 40
0
 40
0
 40
0
 40
1
 40
1
 40
1
 40
1
 10
766.506626
 20
510.587915
 30
0.0
 10
768.068623
 20
506.268283
 30
0.0
 10
770.157981
 20
506.046472
 30
0.0
 10
772.642029
 20
508.802882
 30
0.0
  0
LWPOLYLINE
  5
11c
100
AcDbEntity
  8
Layer_1
 62
7
100
AcDbPolyline
 90
1
 70
1
 10
766.192391
 20
508.234762
 30
0.0
  0
SPLINE
  5
11d
100
AcDbEntity
  8
Layer_1
 62
7
100
AcDbSpline
 70
8
 71
3
 72
8
 73
4
 74
0
 40
0
 40
0
 40
0
 40
0
 40
1
 40
1
 40
1
 40
1
 10
800.114074
 20
513.093146
 30
0.0
 10
802.321393
 20
517.744715
 30
0.0
 10
801.544085
 20
521.585518
 30
0.0
 10
798.395372
 20
521.585518
 30
0.0
  0
SPLINE
  5
11e
100
AcDbEntity
  8
Layer_1
 62
7
100
AcDbSpline
 70
8
 71
3
 72
8
 73
4
 74
0
 40
0
 40
0
 40
0
 40
0
 40
1
 40
1
 40
1
 40
1
 10
798.395372
 20
521.585518
 30
0.0
 10
797.187626
 20
521.585518
 30
0.0
 10
796.199471
 20
521.074233
 30
0.0
 10
796.199471
 20
520.449279
 30
0.0
  0
SPLINE
  5
11f
100
AcDbEntity
  8
Layer_1
 62
7
100
AcDbSpline
 70
8
 71
3
 72
8
 73
4
 74
0
 40
0
 40
0
 40
0
 40
0
 40
1
 40
1
 40
1
 40
1
 10
796.199471
 20
520.449279
 30
0.0
 10
796.199471
 20
519.824353
 30
0.0
 10
793.359051
 20
519.123657
 30
0.0
 10
792.202360
 20
519.123657
 30
0.0
  0
SPLINE
  5
120
100
AcDbEntity
  8
Layer_1
 62
7
100
AcDbSpline
 70
8
 71
3
 72
8
 73
4
 74
0
 40
0
 40
0
 40
0
 40
0
 40
1
 40
1
 40
1
 40
1
 10
792.202360
 20
519.123657
 30
0.0
 10
789.629511
 20
519.123657
 30
0.0
 10
791.431506
 20
515.394255
 30
0.0
 10
793.916254
 20
511.643480
 30
0.0
  0
SPLINE
  5
121
100
AcDbEntity
  8
Layer_1
 62
7
100
AcDbSpline
 70
8
 71
3
 72
8
 73
4
 74
0
 40
0
 40
0
 40
0
 40
0
 40
1
 40
1
 40
1
 40
1
 10
793.916254
 20
511.643480
 30
0.0
 10
796.285103
 20
508.067660
 30
0.0
 10
797.909638
 20
508.447644
 30
0.0
 10
800.114068
 20
513.093146
 30
0.0
  0
LWPOLYLINE
  5
122
100
AcDbEntity
  8
Layer_1
 62
7
100
AcDbPolyline
 90
1
 70
1
 10
772.642029
 20
508.802882
 30
0.0
  0
SPLINE
  5
123
100
AcDbEntity
  8
Layer_1
 62
7
100
AcDbSpline
 70
8
 71
3
 72
8
 73
4
 74
0
 40
0
 40
0
 40
0
 40
0
 40
1
 40
1
 40
1
 40
1
 10
759.857355
 20
519.597128
 30
0.0
 10
759.868977
 20
520.543984
 30
0.0
 10
760.241897
 20
520.449279
 30
0.0
 10
760.976189
 20
519.313068
 30
0.0
  0
SPLINE
  5
124
100
AcDbEntity
  8
Layer_1
 62
7
100
AcDbSpline
 70
8
 71
3
 72
8
 73
4
 74
0
 40
0
 40
0
 40
0
 40
0
 40
1
 40
1
 40
1
 40
1
 10
760.976189
 20
519.313068
 30
0.0
 10
761.581981
 20
518.375650
 30
0.0
 10
762.085457
 20
518.145562
 30
0.0
 10
762.095027
 20
518.801754
 30
0.0
  0
SPLINE
  5
125
100
AcDbEntity
  8
Layer_1
 62
7
100
AcDbSpline
 70
8
 71
3
 72
8
 73
4
 74
0
 40
0
 40
0
 40
0
 40
0
 40
1
 40
1
 40
1
 40
1
 10
762.095027
 20
518.801754
 30
0.0
 10
762.122239
 20
520.660488
 30
0.0
 10
759.600873
 20
522.721757
 30
0.0
 10
757.300260
 20
522.721757
 30
0.0
  0
SPLINE
  5
126
100
AcDbEntity
  8
Layer_1
 62
7
100
AcDbSpline
 70
8
 71
3
 72
8
 73
4
 74
0
 40
0
 40
0
 40
0
 40
0
 40
1
 40
1
 40
1
 40
1
 10
757.300260
 20
522.721757
 30
0.0
 10
755.567155
 20
522.721757
 30
0.0
 10
755.420420
 20
522.338060
 30
0.0
 10
756.431252
 20
520.449279
 30
0.0
  0
SPLINE
  5
127
100
AcDbEntity
  8
Layer_1
 62
7
100
AcDbSpline
 70
8
 71
3
 72
8
 73
4
 74
0
 40
0
 40
0
 40
0
 40
0
 40
1
 40
1
 40
1
 40
1
 10
756.431252
 20
520.449279
 30
0.0
 10
757.787343
 20
517.915417
 30
0.0
 10
759.830528
 20
517.407194
 30
0.0
 10
759.857355
 20
519.597128
 30
0.0
  0
LWPOLYLINE
  5
128
100
AcDbEntity
  8
Layer_1
 62
7
100
AcDbPolyline
 90
1
 70
1
 10
800.114068
 20
513.093146
 30
0.0
  0
SPLINE
  5
129
100
AcDbEntity
  8
Layer_1
 62
7
100
AcDbSpline
 70
8
 71
3
 72
8
 73
4
 74
0
 40
0
 40
0
 40
0
 40
0
 40
1
 40
1
 40
1
 40
1
 10
767.726646
 20
520.137581
 30
0.0
 10
769.067612
 20
519.786907
 30
0.0
 10
771.778162
 20
519.962683
 30
0.0
 10
773.750092
 20
520.528252
 30
0.0
  0
SPLINE
  5
12a
100
AcDbEntity
  8
Layer_1
 62
7
100
AcDbSpline
 70
8
 71
3
 72
8
 73
4
 74
0
 40
0
 40
0
 40
0
 40
0
 40
1
 40
1
 40
1
 40
1
 10
773.750092
 20
520.528252
 30
0.0
 10
776.318890
 20
521.264976
 30
0.0
 10
777.582252
 20
521.157940
 30
0.0
 10
778.206019
 20
520.150734
 30
0.0
  0
SPLINE
  5
12b
100
AcDbEntity
  8
Layer_1
 62
7
100
AcDbSpline
 70
8
 71
3
 72
8
 73
4
 74
0
 40
0
 40
0
 40
0
 40
0
 40
1
 40
1
 40
1
 40
1
 10
778.206019
 20
520.150734
 30
0.0
 10
779.472431
 20
518.105820
 30
0.0
 10
790.193472
 20
518.666882
 30
0.0
 10
792.669478
 20
520.907641
 30
0.0
  0
SPLINE
  5
12c
100
AcDbEntity
  8
Layer_1
 62
7
100
AcDbSpline
 70
8
 71
3
 72
8
 73
4
 74
0
 40
0
 40
0
 40
0
 40
0
 40
1
 40
1
 40
1
 40
1
 10
792.669478
 20
520.907641
 30
0.0
 10
793.771994
 20
521.905408
 30
0.0
 10
796.558697
 20
522.721757
 30
0.0
 10
798.862153
 20
522.721757
 30
0.0
  0
SPLINE
  5
12d
100
AcDbEntity
  8
Layer_1
 62
7
100
AcDbSpline
 70
8
 71
3
 72
8
 73
4
 74
0
 40
0
 40
0
 40
0
 40
0
 40
1
 40
1
 40
1
 40
1
 10
798.862153
 20
522.721757
 30
0.0
 10
805.996613
 20
522.721757
 30
0.0
 10
811.606411
 20
528.872854
 30
0.0
 10
811.295362
 20
536.354646
 30
0.0
  0
SPLINE
  5
12e
100
AcDbEntity
  8
Layer_1
 62
7
100
AcDbSpline
 70
8
 71
3
 72
8
 73
4
 74
0
 40
0
 40
0
 40
0
 40
0
 40
1
 40
1
 40
1
 40
1
 10
811.295362
 20
536.354646
 30
0.0
 10
811.067825
 20
541.827780
 30
0.0
 10
811.343494
 20
542.483575
 30
0.0
 10
815.556243
 20
546.491055
 30
0.0
  0
SPLINE
  5
12f
100
AcDbEntity
  8
Layer_1
 62
7
100
AcDbSpline
 70
8
 71
3
 72
8
 73
4
 74
0
 40
0
 40
0
 40
0
 40
0
 40
1
 40
1
 40
1
 40
1
 10
815.556243
 20
546.491055
 30
0.0
 10
818.453293
 20
549.246954
 30
0.0
 10
821.196822
 20
553.680170
 30
0.0
 10
821.196822
 20
555.501543
 30
0.0
  0
SPLINE
  5
130
100
AcDbEntity
  8
Layer_1
 62
7
100
AcDbSpline
 70
8
 71
3
 72
8
 73
4
 74
0
 40
0
 40
0
 40
0
 40
0
 40
1
 40
1
 40
1
 40
1
 10
821.196822
 20
555.501543
 30
0.0
 10
821.196822
 20
560.299465
 30
0.0
 10
807.714054
 20
552.001861
 30
0.0
 10
807.611607
 20
547.150819
 30
0.0
  0
SPLINE
  5
131
100
AcDbEntity
  8
Layer_1
 62
7
100
AcDbSpline
 70
8
 71
3
 72
8
 73
4
 74
0
 40
0
 40
0
 40
0
 40
0
 40
1
 40
1
 40
1
 40
1
 10
807.611607
 20
547.150819
 30
0.0
 10
807.184097
 20
526.907480
 30
0.0
 10
783.660730
 20
523.897880
 30
0.0
 10
777.835363
 20
543.341225
 30
0.0
  0
SPLINE
  5
132
100
AcDbEntity
  8
Layer_1
 62
7
100
AcDbSpline
 70
8
 71
3
 72
8
 73
4
 74
0
 40
0
 40
0
 40
0
 40
0
 40
1
 40
1
 40
1
 40
1
 10
777.835363
 20
543.341225
 30
0.0
 10
776.838543
 20
546.668334
 30
0.0
 10
775.778051
 20
547.930091
 30
0.0
 10
773.571370
 20
548.414504
 30
0.0
  0
SPLINE
  5
133
100
AcDbEntity
  8
Layer_1
 62
7
100
AcDbSpline
 70
8
 71
3
 72
8
 73
4
 74
0
 40
0
 40
0
 40
0
 40
0
 40
1
 40
1
 40
1
 40
1
 10
773.571370
 20
548.414504
 30
0.0
 10
754.022248
 20
552.705874
 30
0.0
 10
751.916234
 20
567.575206
 30
0.0
 10
770.367288
 20
571.036620
 30
0.0
  0
SPLINE
  5
134
100
AcDbEntity
  8
Layer_1
 62
7
100
AcDbSpline
 70
8
 71
3
 72
8
 73
4
 74
0
 40
0
 40
0
 40
0
 40
0
 40
1
 40
1
 40
1
 40
1
 10
770.367288
 20
571.036620
 30
0.0
 10
773.331097
 20
571.592636
 30
0.0
 10
774.717452
 20
572.685676
 30
0.0
 10
776.078237
 20
575.539285
 30
0.0
  0
SPLINE
  5
135
100
AcDbEntity
  8
Layer_1
 62
7
100
AcDbSpline
 70
8
 71
3
 72
8
 73
4
 74
0
 40
0
 40
0
 40
0
 40
0
 40
1
 40
1
 40
1
 40
1
 10
776.078237
 20
575.539285
 30
0.0
 10
781.079587
 20
586.027219
 30
0.0
 10
798.902444
 20
588.534066
 30
0.0
 10
803.468769
 20
580.342252
 30
0.0
  0
SPLINE
  5
136
100
AcDbEntity
  8
Layer_1
 62
7
100
AcDbSpline
 70
8
 71
3
 72
8
 73
4
 74
0
 40
0
 40
0
 40
0
 40
0
 40
1
 40
1
 40
1
 40
1
 10
803.468769
 20
580.342252
 30
0.0
 10
814.830959
 20
559.958882
 30
0.0
 10
802.586928
 20
580.076646
 30
0.0
 10
800.410643
 20
581.762580
 30
0.0
  0
SPLINE
  5
137
100
AcDbEntity
  8
Layer_1
 62
7
100
AcDbSpline
 70
8
 71
3
 72
8
 73
4
 74
0
 40
0
 40
0
 40
0
 40
0
 40
1
 40
1
 40
1
 40
1
 10
800.410643
 20
581.762580
 30
0.0
 10
791.650417
 20
588.548693
 30
0.0
 10
771.616692
 20
579.183591
 30
0.0
 10
777.511874
 20
571.121461
 30
0.0
  0
SPLINE
  5
138
100
AcDbEntity
  8
Layer_1
 62
7
100
AcDbSpline
 70
8
 71
3
 72
8
 73
4
 74
0
 40
0
 40
0
 40
0
 40
0
 40
1
 40
1
 40
1
 40
1
 10
777.511874
 20
571.121461
 30
0.0
 10
778.364838
 20
569.954948
 30
0.0
 10
779.400930
 20
566.745194
 30
0.0
 10
779.814300
 20
563.988643
 30
0.0
  0
SPLINE
  5
139
100
AcDbEntity
  8
Layer_1
 62
7
100
AcDbSpline
 70
8
 71
3
 72
8
 73
4
 74
0
 40
0
 40
0
 40
0
 40
0
 40
1
 40
1
 40
1
 40
1
 10
779.814300
 20
563.988643
 30
0.0
 10
780.523257
 20
559.260992
 30
0.0
 10
780.681135
 20
559.081077
 30
0.0
 10
782.598186
 20
560.815965
 30
0.0
  0
SPLINE
  5
13a
100
AcDbEntity
  8
Layer_1
 62
7
100
AcDbSpline
 70
8
 71
3
 72
8
 73
4
 74
0
 40
0
 40
0
 40
0
 40
0
 40
1
 40
1
 40
1
 40
1
 10
782.598186
 20
560.815965
 30
0.0
 10
784.453958
 20
562.495408
 30
0.0
 10
784.930666
 20
562.499972
 30
0.0
 10
788.086086
 20
560.868123
 30
0.0
  0
SPLINE
  5
13b
100
AcDbEntity
  8
Layer_1
 62
7
100
AcDbSpline
 70
8
 71
3
 72
8
 73
4
 74
0
 40
0
 40
0
 40
0
 40
0
 40
1
 40
1
 40
1
 40
1
 10
788.086086
 20
560.868123
 30
0.0
 10
792.905417
 20
558.375931
 30
0.0
 10
798.005996
 20
558.615203
 30
0.0
 10
800.858032
 20
561.467254
 30
0.0
  0
SPLINE
  5
13c
100
AcDbEntity
  8
Layer_1
 62
7
100
AcDbSpline
 70
8
 71
3
 72
8
 73
4
 74
0
 40
0
 40
0
 40
0
 40
0
 40
1
 40
1
 40
1
 40
1
 10
800.858032
 20
561.467254
 30
0.0
 10
802.593374
 20
563.202595
 30
0.0
 10
803.584996
 20
563.512479
 30
0.0
 10
804.493984
 20
562.603493
 30
0.0
  0
SPLINE
  5
13d
100
AcDbEntity
  8
Layer_1
 62
7
100
AcDbSpline
 70
8
 71
3
 72
8
 73
4
 74
0
 40
0
 40
0
 40
0
 40
0
 40
1
 40
1
 40
1
 40
1
 10
804.493984
 20
562.603493
 30
0.0
 10
812.116871
 20
556.695468
 30
0.0
 10
800.321304
 20
573.450661
 30
0.0
 10
809.889293
 20
573.557726
 30
0.0
  0
SPLINE
  5
13e
100
AcDbEntity
  8
Layer_1
 62
7
100
AcDbSpline
 70
8
 71
3
 72
8
 73
4
 74
0
 40
0
 40
0
 40
0
 40
0
 40
1
 40
1
 40
1
 40
1
 10
809.889293
 20
573.557726
 30
0.0
 10
814.253771
 20
573.295521
 30
0.0
 10
813.450200
 20
572.759802
 30
0.0
 10
812.637300
 20
578.703175
 30
0.0
  0
SPLINE
  5
13f
100
AcDbEntity
  8
Layer_1
 62
7
100
AcDbSpline
 70
8
 71
3
 72
8
 73
4
 74
0
 40
0
 40
0
 40
0
 40
0
 40
1
 40
1
 40
1
 40
1
 10
812.637300
 20
578.703175
 30
0.0
 10
811.014707
 20
590.566252
 30
0.0
 10
804.481186
 20
597.698589
 30
0.0
 10
795.227267
 20
597.708879
 30
0.0
  0
SPLINE
  5
140
100
AcDbEntity
  8
Layer_1
 62
7
100
AcDbSpline
 70
8
 71
3
 72
8
 73
4
 74
0
 40
0
 40
0
 40
0
 40
0
 40
1
 40
1
 40
1
 40
1
 10
795.227267
 20
597.708879
 30
0.0
 10
792.762469
 20
597.711628
 30
0.0
 10
790.151343
 20
598.778306
 30
0.0
 10
787.841739
 20
600.725906
 30
0.0
  0
SPLINE
  5
141
100
AcDbEntity
  8
Layer_1
 62
7
100
AcDbSpline
 70
8
 71
3
 72
8
 73
4
 74
0
 40
0
 40
0
 40
0
 40
0
 40
1
 40
1
 40
1
 40
1
 10
787.841739
 20
600.725906
 30
0.0
 10
783.100443
 20
604.724088
 30
0.0
 10
777.293994
 20
607.065307
 30
0.0
 10
774.243553
 20
606.208819
 30
0.0
  0
SPLINE
  5
142
100
AcDbEntity
  8
Layer_1
 62
7
100
AcDbSpline
 70
8
 71
3
 72
8
 73
4
 74
0
 40
0
 40
0
 40
0
 40
0
 40
1
 40
1
 40
1
 40
1
 10
774.243553
 20
606.208819
 30
0.0
 10
767.987050
 20
604.452132
 30
0.0
 10
765.295004
 20
602.844180
 30
0.0
 10
763.813259
 20
599.978778
 30
0.0
  0
SPLINE
  5
143
100
AcDbEntity
  8
Layer_1
 62
7
100
AcDbSpline
 70
8
 71
3
 72
8
 73
4
 74
0
 40
0
 40
0
 40
0
 40
0
 40
1
 40
1
 40
1
 40
1
 10
763.813259
 20
599.978778
 30
0.0
 10
762.616276
 20
597.664091
 30
0.0
 10
761.068202
 20
596.700369
 30
0.0
 10
757.675426
 20
596.157846
 30
0.0
  0
SPLINE
  5
144
100
AcDbEntity
  8
Layer_1
 62
7
100
AcDbSpline
 70
8
 71
3
 72
8
 73
4
 74
0
 40
0
 40
0
 40
0
 40
0
 40
1
 40
1
 40
1
 40
1
 10
757.675426
 20
596.157846
 30
0.0
 10
747.584895
 20
594.544309
 30
0.0
 10
740.523971
 20
586.580031
 30
0.0
 10
740.523971
 20
576.812098
 30
0.0
  0
SPLINE
  5
145
100
AcDbEntity
  8
Layer_1
 62
7
100
AcDbSpline
 70
8
 71
3
 72
8
 73
4
 74
0
 40
0
 40
0
 40
0
 40
0
 40
1
 40
1
 40
1
 40
1
 10
740.523971
 20
576.812098
 30
0.0
 10
740.523971
 20
574.267323
 30
0.0
 10
739.293568
 20
571.006800
 30
0.0
 10
737.115267
 20
567.779159
 30
0.0
  0
SPLINE
  5
146
100
AcDbEntity
  8
Layer_1
 62
7
100
AcDbSpline
 70
8
 71
3
 72
8
 73
4
 74
0
 40
0
 40
0
 40
0
 40
0
 40
1
 40
1
 40
1
 40
1
 10
737.115267
 20
567.779159
 30
0.0
 10
733.257930
 20
562.063663
 30
0.0
 10
732.689161
 20
556.390800
 30
0.0
 10
735.440094
 20
551.071077
 30
0.0
  0
SPLINE
  5
147
100
AcDbEntity
  8
Layer_1
 62
7
100
AcDbSpline
 70
8
 71
3
 72
8
 73
4
 74
0
 40
0
 40
0
 40
0
 40
0
 40
1
 40
1
 40
1
 40
1
 10
735.440094
 20
551.071077
 30
0.0
 10
737.719846
 20
546.662523
 30
0.0
 10
737.802802
 20
546.744189
 30
0.0
 10
737.904679
 20
553.497420
 30
0.0
  0
SPLINE
  5
148
100
AcDbEntity
  8
Layer_1
 62
7
100
AcDbSpline
 70
8
 71
3
 72
8
 73
4
 74
0
 40
0
 40
0
 40
0
 40
0
 40
1
 40
1
 40
1
 40
1
 10
737.904679
 20
553.497420
 30
0.0
 10
737.952613
 20
556.675625
 30
0.0
 10
738.521833
 20
559.805981
 30
0.0
 10
739.169586
 20
560.453726
 30
0.0
  0
SPLINE
  5
149
100
AcDbEntity
  8
Layer_1
 62
7
100
AcDbSpline
 70
8
 71
3
 72
8
 73
4
 74
0
 40
0
 40
0
 40
0
 40
0
 40
1
 40
1
 40
1
 40
1
 10
739.169586
 20
560.453726
 30
0.0
 10
739.982407
 20
561.266561
 30
0.0
 10
740.045724
 20
560.294135
 30
0.0
 10
739.373936
 20
557.315631
 30
0.0
  0
SPLINE
  5
14a
100
AcDbEntity
  8
Layer_1
 62
7
100
AcDbSpline
 70
8
 71
3
 72
8
 73
4
 74
0
 40
0
 40
0
 40
0
 40
0
 40
1
 40
1
 40
1
 40
1
 10
739.373936
 20
557.315631
 30
0.0
 10
738.349356
 20
552.772772
 30
0.0
 10
740.442543
 20
544.147880
 30
0.0
 10
742.756859
 20
543.376431
 30
0.0
  0
SPLINE
  5
14b
100
AcDbEntity
  8
Layer_1
 62
7
100
AcDbSpline
 70
8
 71
3
 72
8
 73
4
 74
0
 40
0
 40
0
 40
0
 40
0
 40
1
 40
1
 40
1
 40
1
 10
742.756859
 20
543.376431
 30
0.0
 10
743.403555
 20
543.160998
 30
0.0
 10
743.932672
 20
541.476765
 30
0.0
 10
743.932672
 20
539.633991
 30
0.0
  0
SPLINE
  5
14c
100
AcDbEntity
  8
Layer_1
 62
7
100
AcDbSpline
 70
8
 71
3
 72
8
 73
4
 74
0
 40
0
 40
0
 40
0
 40
0
 40
1
 40
1
 40
1
 40
1
 10
743.932672
 20
539.633991
 30
0.0
 10
743.932672
 20
532.296822
 30
0.0
 10
748.115110
 20
526.694372
 30
0.0
 10
755.286111
 20
524.425861
 30
0.0
  0
SPLINE
  5
14d
100
AcDbEntity
  8
Layer_1
 62
7
100
AcDbSpline
 70
8
 71
3
 72
8
 73
4
 74
0
 40
0
 40
0
 40
0
 40
0
 40
1
 40
1
 40
1
 40
1
 10
755.286111
 20
524.425861
 30
0.0
 10
757.822632
 20
523.623458
 30
0.0
 10
757.956172
 20
523.724825
 30
0.0
 10
756.567278
 20
525.398343
 30
0.0
  0
SPLINE
  5
14e
100
AcDbEntity
  8
Layer_1
 62
7
100
AcDbSpline
 70
8
 71
3
 72
8
 73
4
 74
0
 40
0
 40
0
 40
0
 40
0
 40
1
 40
1
 40
1
 40
1
 10
756.567278
 20
525.398343
 30
0.0
 10
754.110814
 20
528.358195
 30
0.0
 10
756.351476
 20
527.572035
 30
0.0
 10
760.331341
 20
524.077682
 30
0.0
  0
SPLINE
  5
14f
100
AcDbEntity
  8
Layer_1
 62
7
100
AcDbSpline
 70
8
 71
3
 72
8
 73
4
 74
0
 40
0
 40
0
 40
0
 40
0
 40
1
 40
1
 40
1
 40
1
 10
760.331341
 20
524.077682
 30
0.0
 10
762.328925
 20
522.323773
 30
0.0
 10
763.763590
 20
520.150734
 30
0.0
 10
763.519484
 20
519.248665
 30
0.0
  0
SPLINE
  5
150
100
AcDbEntity
  8
Layer_1
 62
7
100
AcDbSpline
 70
8
 71
3
 72
8
 73
4
 74
0
 40
0
 40
0
 40
0
 40
0
 40
1
 40
1
 40
1
 40
1
 10
763.519484
 20
519.248665
 30
0.0
 10
763.145240
 20
517.865726
 30
0.0
 10
763.249116
 20
517.856797
 30
0.0
 10
764.182094
 20
519.191972
 30
0.0
  0
SPLINE
  5
151
100
AcDbEntity
  8
Layer_1
 62
7
100
AcDbSpline
 70
8
 71
3
 72
8
 73
4
 74
0
 40
0
 40
0
 40
0
 40
0
 40
1
 40
1
 40
1
 40
1
 10
764.182094
 20
519.191972
 30
0.0
 10
764.833059
 20
520.123436
 30
0.0
 10
766.292196
 20
520.512718
 30
0.0
 10
767.726651
 20
520.137609
 30
0.0
  0
LWPOLYLINE
  5
152
100
AcDbEntity
  8
Layer_1
 62
7
100
AcDbPolyline
 90
1
 70
1
 10
759.857355
 20
519.597128
 30
0.0
  0
SPLINE
  5
153
100
AcDbEntity
  8
Layer_1
 62
7
100
AcDbSpline
 70
8
 71
3
 72
8
 73
4
 74
0
 40
0
 40
0
 40
0
 40
0
 40
1
 40
1
 40
1
 40
1
 10
799.892235
 20
533.800063
 30
0.0
 10
803.091144
 20
534.733427
 30
0.0
 10
808.647820
 20
545.275757
 30
0.0
 10
805.673854
 20
547.100617
 30
0.0
  0
SPLINE
  5
154
100
AcDbEntity
  8
Layer_1
 62
7
100
AcDbSpline
 70
8
 71
3
 72
8
 73
4
 74
0
 40
0
 40
0
 40
0
 40
0
 40
1
 40
1
 40
1
 40
1
 10
805.673854
 20
547.100617
 30
0.0
 10
804.892691
 20
547.361972
 30
0.0
 10
804.153115
 20
547.782236
 30
0.0
 10
804.153115
 20
549.016894
 30
0.0
  0
SPLINE
  5
155
100
AcDbEntity
  8
Layer_1
 62
7
100
AcDbSpline
 70
8
 71
3
 72
8
 73
4
 74
0
 40
0
 40
0
 40
0
 40
0
 40
1
 40
1
 40
1
 40
1
 10
804.153115
 20
549.016894
 30
0.0
 10
804.153115
 20
550.251553
 30
0.0
 10
804.664420
 20
550.945729
 30
0.0
 10
805.289349
 20
550.559509
 30
0.0
  0
SPLINE
  5
156
100
AcDbEntity
  8
Layer_1
 62
7
100
AcDbSpline
 70
8
 71
3
 72
8
 73
4
 74
0
 40
0
 40
0
 40
0
 40
0
 40
1
 40
1
 40
1
 40
1
 10
805.289349
 20
550.559509
 30
0.0
 10
805.914278
 20
550.173288
 30
0.0
 10
806.425583
 20
550.398784
 30
0.0
 10
806.425583
 20
551.060561
 30
0.0
  0
SPLINE
  5
157
100
AcDbEntity
  8
Layer_1
 62
7
100
AcDbSpline
 70
8
 71
3
 72
8
 73
4
 74
0
 40
0
 40
0
 40
0
 40
0
 40
1
 40
1
 40
1
 40
1
 10
806.425583
 20
551.060561
 30
0.0
 10
806.425583
 20
551.722394
 30
0.0
 10
805.786452
 20
552.304261
 30
0.0
 10
805.005289
 20
552.353556
 30
0.0
  0
SPLINE
  5
158
100
AcDbEntity
  8
Layer_1
 62
7
100
AcDbSpline
 70
8
 71
3
 72
8
 73
4
 74
0
 40
0
 40
0
 40
0
 40
0
 40
1
 40
1
 40
1
 40
1
 10
805.005289
 20
552.353556
 30
0.0
 10
804.534177
 20
552.383320
 30
0.0
 10
804.258400
 20
552.423572
 30
0.0
 10
804.177958
 20
552.493020
 30
0.0
  0
SPLINE
  5
159
100
AcDbEntity
  8
Layer_1
 62
7
100
AcDbSpline
 70
8
 71
3
 72
8
 73
4
 74
0
 40
0
 40
0
 40
0
 40
0
 40
1
 40
1
 40
1
 40
1
 10
804.177958
 20
552.493020
 30
0.0
 10
804.064402
 20
552.591099
 30
0.0
 10
804.340157
 20
552.747855
 30
0.0
 10
805.005289
 20
553.016324
 30
0.0
  0
SPLINE
  5
15a
100
AcDbEntity
  8
Layer_1
 62
7
100
AcDbSpline
 70
8
 71
3
 72
8
 73
4
 74
0
 40
0
 40
0
 40
0
 40
0
 40
1
 40
1
 40
1
 40
1
 10
805.005289
 20
553.016324
 30
0.0
 10
806.918944
 20
553.788454
 30
0.0
 10
806.810715
 20
558.483335
 30
0.0
 10
804.841617
 20
560.117537
 30
0.0
  0
SPLINE
  5
15b
100
AcDbEntity
  8
Layer_1
 62
7
100
AcDbSpline
 70
8
 71
3
 72
8
 73
4
 74
0
 40
0
 40
0
 40
0
 40
0
 40
1
 40
1
 40
1
 40
1
 10
804.841617
 20
560.117537
 30
0.0
 10
803.621503
 20
561.130157
 30
0.0
 10
802.857124
 20
561.031597
 30
0.0
 10
801.514071
 20
559.688542
 30
0.0
  0
SPLINE
  5
15c
100
AcDbEntity
  8
Layer_1
 62
7
100
AcDbSpline
 70
8
 71
3
 72
8
 73
4
 74
0
 40
0
 40
0
 40
0
 40
0
 40
1
 40
1
 40
1
 40
1
 10
801.514071
 20
559.688542
 30
0.0
 10
799.091544
 20
557.266025
 30
0.0
 10
788.693454
 20
557.335049
 30
0.0
 10
786.238551
 20
559.790022
 30
0.0
  0
SPLINE
  5
15d
100
AcDbEntity
  8
Layer_1
 62
7
100
AcDbSpline
 70
8
 71
3
 72
8
 73
4
 74
0
 40
0
 40
0
 40
0
 40
0
 40
1
 40
1
 40
1
 40
1
 10
786.238551
 20
559.790022
 30
0.0
 10
781.847447
 20
564.181143
 30
0.0
 10
781.247741
 20
553.201483
 30
0.0
 10
780.323573
 20
544.795824
 30
0.0
  0
SPLINE
  5
15e
100
AcDbEntity
  8
Layer_1
 62
7
100
AcDbSpline
 70
8
 71
3
 72
8
 73
4
 74
0
 40
0
 40
0
 40
0
 40
0
 40
1
 40
1
 40
1
 40
1
 10
780.323573
 20
544.795824
 30
0.0
 10
779.097719
 20
533.646198
 30
0.0
 10
793.539765
 20
527.390277
 30
0.0
 10
799.892240
 20
533.800091
 30
0.0
  0
LWPOLYLINE
  5
15f
100
AcDbEntity
  8
Layer_1
 62
7
100
AcDbPolyline
 90
1
 70
1
 10
767.726651
 20
520.137609
 30
0.0
  0
SPLINE
  5
160
100
AcDbEntity
  8
Layer_1
 62
7
100
AcDbSpline
 70
8
 71
3
 72
8
 73
4
 74
0
 40
0
 40
0
 40
0
 40
0
 40
1
 40
1
 40
1
 40
1
 10
782.975546
 20
547.150819
 30
0.0
 10
782.057387
 20
549.543487
 30
0.0
 10
783.309852
 20
552.263868
 30
0.0
 10
785.329603
 20
552.263868
 30
0.0
  0
SPLINE
  5
161
100
AcDbEntity
  8
Layer_1
 62
7
100
AcDbSpline
 70
8
 71
3
 72
8
 73
4
 74
0
 40
0
 40
0
 40
0
 40
0
 40
1
 40
1
 40
1
 40
1
 10
785.329603
 20
552.263868
 30
0.0
 10
787.317276
 20
552.263868
 30
0.0
 10
789.138289
 20
548.369518
 30
0.0
 10
788.136517
 20
546.748611
 30
0.0
  0
SPLINE
  5
162
100
AcDbEntity
  8
Layer_1
 62
7
100
AcDbSpline
 70
8
 71
3
 72
8
 73
4
 74
0
 40
0
 40
0
 40
0
 40
0
 40
1
 40
1
 40
1
 40
1
 10
788.136517
 20
546.748611
 30
0.0
 10
787.072008
 20
545.026195
 30
0.0
 10
783.706484
 20
545.246022
 30
0.0
 10
782.975546
 20
547.150819
 30
0.0
  0
LWPOLYLINE
  5
163
100
AcDbEntity
  8
Layer_1
 62
7
100
AcDbPolyline
 90
1
 70
1
 10
799.892240
 20
533.800091
 30
0.0
  0
SPLINE
  5
164
100
AcDbEntity
  8
Layer_1
 62
7
100
AcDbSpline
 70
8
 71
3
 72
8
 73
4
 74
0
 40
0
 40
0
 40
0
 40
0
 40
1
 40
1
 40
1
 40
1
 10
787.109593
 20
549.991389
 30
0.0
 10
787.109593
 20
550.616315
 30
0.0
 10
786.598285
 20
551.127628
 30
0.0
 10
785.973356
 20
551.127628
 30
0.0
  0
SPLINE
  5
165
100
AcDbEntity
  8
Layer_1
 62
7
100
AcDbSpline
 70
8
 71
3
 72
8
 73
4
 74
0
 40
0
 40
0
 40
0
 40
0
 40
1
 40
1
 40
1
 40
1
 10
785.973356
 20
551.127628
 30
0.0
 10
785.348427
 20
551.127628
 30
0.0
 10
784.837123
 20
550.616315
 30
0.0
 10
784.837123
 20
549.991389
 30
0.0
  0
SPLINE
  5
166
100
AcDbEntity
  8
Layer_1
 62
7
100
AcDbSpline
 70
8
 71
3
 72
8
 73
4
 74
0
 40
0
 40
0
 40
0
 40
0
 40
1
 40
1
 40
1
 40
1
 10
784.837123
 20
549.991389
 30
0.0
 10
784.837123
 20
549.366463
 30
0.0
 10
785.348427
 20
548.855150
 30
0.0
 10
785.973356
 20
548.855150
 30
0.0
  0
SPLINE
  5
167
100
AcDbEntity
  8
Layer_1
 62
7
100
AcDbSpline
 70
8
 71
3
 72
8
 73
4
 74
0
 40
0
 40
0
 40
0
 40
0
 40
1
 40
1
 40
1
 40
1
 10
785.973356
 20
548.855150
 30
0.0
 10
786.598285
 20
548.855150
 30
0.0
 10
787.109593
 20
549.366463
 30
0.0
 10
787.109593
 20
549.991389
 30
0.0
  0
LWPOLYLINE
  5
168
100
AcDbEntity
  8
Layer_1
 62
7
100
AcDbPolyline
 90
1
 70
1
 10
782.975546
 20
547.150819
 30
0.0
  0
SPLINE
  5
169
100
AcDbEntity
  8
Layer_1
 62
7
100
AcDbSpline
 70
8
 71
3
 72
8
 73
4
 74
0
 40
0
 40
0
 40
0
 40
0
 40
1
 40
1
 40
1
 40
1
 10
772.138879
 20
559.557014
 30
0.0
 10
771.611817
 20
567.834378
 30
0.0
 10
770.375778
 20
569.919458
 30
0.0
 10
766.689568
 20
568.749487
 30
0.0
  0
SPLINE
  5
16a
100
AcDbEntity
  8
Layer_1
 62
7
100
AcDbSpline
 70
8
 71
3
 72
8
 73
4
 74
0
 40
0
 40
0
 40
0
 40
0
 40
1
 40
1
 40
1
 40
1
 10
766.689568
 20
568.749487
 30
0.0
 10
764.940087
 20
568.194236
 30
0.0
 10
764.450362
 20
567.416296
 30
0.0
 10
765.009128
 20
566.080101
 30
0.0
  0
SPLINE
  5
16b
100
AcDbEntity
  8
Layer_1
 62
7
100
AcDbSpline
 70
8
 71
3
 72
8
 73
4
 74
0
 40
0
 40
0
 40
0
 40
0
 40
1
 40
1
 40
1
 40
1
 10
765.009128
 20
566.080101
 30
0.0
 10
765.442848
 20
565.042932
 30
0.0
 10
765.953575
 20
561.402000
 30
0.0
 10
766.144074
 20
557.989172
 30
0.0
  0
SPLINE
  5
16c
100
AcDbEntity
  8
Layer_1
 62
7
100
AcDbSpline
 70
8
 71
3
 72
8
 73
4
 74
0
 40
0
 40
0
 40
0
 40
0
 40
1
 40
1
 40
1
 40
1
 10
766.144074
 20
557.989172
 30
0.0
 10
766.410219
 20
553.221439
 30
0.0
 10
766.970376
 20
551.606287
 30
0.0
 10
768.562313
 20
551.016737
 30
0.0
  0
SPLINE
  5
16d
100
AcDbEntity
  8
Layer_1
 62
7
100
AcDbSpline
 70
8
 71
3
 72
8
 73
4
 74
0
 40
0
 40
0
 40
0
 40
0
 40
1
 40
1
 40
1
 40
1
 10
768.562313
 20
551.016737
 30
0.0
 10
771.884563
 20
549.786331
 30
0.0
 10
772.645351
 20
551.602970
 30
0.0
 10
772.138879
 20
559.557014
 30
0.0
  0
LWPOLYLINE
  5
16e
100
AcDbEntity
  8
Layer_1
 62
7
100
AcDbPolyline
 90
1
 70
1
 10
787.109593
 20
549.991389
 30
0.0
  0
SPLINE
  5
16f
100
AcDbEntity
  8
Layer_1
 62
7
100
AcDbSpline
 70
8
 71
3
 72
8
 73
4
 74
0
 40
0
 40
0
 40
0
 40
0
 40
1
 40
1
 40
1
 40
1
 10
814.663009
 20
568.802466
 30
0.0
 10
812.560728
 20
572.412643
 30
0.0
 10
805.401346
 20
574.345587
 30
0.0
 10
808.576007
 20
571.486706
 30
0.0
  0
SPLINE
  5
170
100
AcDbEntity
  8
Layer_1
 62
7
100
AcDbSpline
 70
8
 71
3
 72
8
 73
4
 74
0
 40
0
 40
0
 40
0
 40
0
 40
1
 40
1
 40
1
 40
1
 10
808.576007
 20
571.486706
 30
0.0
 10
814.049178
 20
564.925521
 30
0.0
 10
812.561956
 20
561.711827
 30
0.0
 10
813.559853
 20
554.915027
 30
0.0
  0
SPLINE
  5
171
100
AcDbEntity
  8
Layer_1
 62
7
100
AcDbSpline
 70
8
 71
3
 72
8
 73
4
 74
0
 40
0
 40
0
 40
0
 40
0
 40
1
 40
1
 40
1
 40
1
 10
813.559853
 20
554.915027
 30
0.0
 10
820.668617
 20
557.778076
 30
0.0
 10
816.289084
 20
565.732687
 30
0.0
 10
814.663009
 20
568.802466
 30
0.0
  0
LWPOLYLINE
  5
172
100
AcDbEntity
  8
Layer_1
 62
7
100
AcDbPolyline
 90
1
 70
1
 10
772.138879
 20
559.557014
 30
0.0
  0
SPLINE
  5
173
100
AcDbEntity
  8
Layer_1
 62
7
100
AcDbSpline
 70
8
 71
3
 72
8
 73
4
 74
0
 40
0
 40
0
 40
0
 40
0
 40
1
 40
1
 40
1
 40
1
 10
756.073962
 20
602.456258
 30
0.0
 10
762.565966
 20
607.887156
 30
0.0
 10
757.250323
 20
617.451761
 30
0.0
 10
749.788126
 20
617.447310
 30
0.0
  0
SPLINE
  5
174
100
AcDbEntity
  8
Layer_1
 62
7
100
AcDbSpline
 70
8
 71
3
 72
8
 73
4
 74
0
 40
0
 40
0
 40
0
 40
0
 40
1
 40
1
 40
1
 40
1
 10
749.788126
 20
617.447310
 30
0.0
 10
746.030951
 20
617.445071
 30
0.0
 10
742.592551
 20
612.654180
 30
0.0
 10
742.424542
 20
609.756321
 30
0.0
  0
SPLINE
  5
175
100
AcDbEntity
  8
Layer_1
 62
7
100
AcDbSpline
 70
8
 71
3
 72
8
 73
4
 74
0
 40
0
 40
0
 40
0
 40
0
 40
1
 40
1
 40
1
 40
1
 10
742.424542
 20
609.756321
 30
0.0
 10
742.020593
 20
602.788989
 30
0.0
 10
749.096014
 20
596.618844
 30
0.0
 10
756.073962
 20
602.456258
 30
0.0
  0
LWPOLYLINE
  5
176
100
AcDbEntity
  8
Layer_1
 62
7
100
AcDbPolyline
 90
1
 70
1
 10
814.663009
 20
568.802466
 30
0.0
  0
SPLINE
  5
177
100
AcDbEntity
  8
Layer_1
 62
7
100
AcDbSpline
 70
8
 71
3
 72
8
 73
4
 74
0
 40
0
 40
0
 40
0
 40
0
 40
1
 40
1
 40
1
 40
1
 10
805.319974
 20
552.973084
 30
0.0
 10
804.515605
 20
552.973084
 30
0.0
 10
803.790439
 20
552.240506
 30
0.0
 10
803.482620
 20
551.116948
 30
0.0
  0
SPLINE
  5
178
100
AcDbEntity
  8
Layer_1
 62
7
100
AcDbSpline
 70
8
 71
3
 72
8
 73
4
 74
0
 40
0
 40
0
 40
0
 40
0
 40
1
 40
1
 40
1
 40
1
 10
803.482620
 20
551.116948
 30
0.0
 10
803.174802
 20
549.993391
 30
0.0
 10
803.344950
 20
548.700120
 30
0.0
 10
803.913725
 20
547.840186
 30
0.0
  0
SPLINE
  5
179
100
AcDbEntity
  8
Layer_1
 62
7
100
AcDbSpline
 70
8
 71
3
 72
8
 73
4
 74
0
 40
0
 40
0
 40
0
 40
0
 40
1
 40
1
 40
1
 40
1
 10
803.913725
 20
547.840186
 30
0.0
 10
804.482500
 20
546.980253
 30
0.0
 10
805.337891
 20
546.723005
 30
0.0
 10
806.081031
 20
547.188398
 30
0.0
  0
SPLINE
  5
17a
100
AcDbEntity
  8
Layer_1
 62
7
100
AcDbSpline
 70
8
 71
3
 72
8
 73
4
 74
0
 40
0
 40
0
 40
0
 40
0
 40
1
 40
1
 40
1
 40
1
 10
806.081031
 20
547.188398
 30
0.0
 10
806.824172
 20
547.653791
 30
0.0
 10
807.308712
 20
548.750173
 30
0.0
 10
807.308712
 20
549.966302
 30
0.0
  0
SPLINE
  5
17b
100
AcDbEntity
  8
Layer_1
 62
7
100
AcDbSpline
 70
8
 71
3
 72
8
 73
4
 74
0
 40
0
 40
0
 40
0
 40
0
 40
1
 40
1
 40
1
 40
1
 10
807.308712
 20
549.966302
 30
0.0
 10
807.308712
 20
550.763751
 30
0.0
 10
807.099185
 20
551.528537
 30
0.0
 10
806.726224
 20
552.092418
 30
0.0
  0
SPLINE
  5
17c
100
AcDbEntity
  8
Layer_1
 62
7
100
AcDbSpline
 70
8
 71
3
 72
8
 73
4
 74
0
 40
0
 40
0
 40
0
 40
0
 40
1
 40
1
 40
1
 40
1
 10
806.726224
 20
552.092418
 30
0.0
 10
806.353264
 20
552.656299
 30
0.0
 10
805.847421
 20
552.973084
 30
0.0
 10
805.319974
 20
552.973084
 30
0.0
  0
LWPOLYLINE
  5
17d
100
AcDbEntity
  8
Layer_1
 62
7
100
AcDbPolyline
 90
1
 70
1
 10
756.073962
 20
602.456258
 30
0.0
  0
SPLINE
  5
17e
100
AcDbEntity
  8
Layer_1
 62
7
100
AcDbSpline
 70
8
 71
3
 72
8
 73
4
 74
0
 40
0
 40
0
 40
0
 40
0
 40
1
 40
1
 40
1
 40
1
 10
804.828087
 20
552.038829
 30
0.0
 10
804.340565
 20
552.038829
 30
0.0
 10
803.901048
 20
551.753311
 30
0.0
 10
803.714482
 20
551.315411
 30
0.0
  0
SPLINE
  5
17f
100
AcDbEntity
  8
Layer_1
 62
7
100
AcDbSpline
 70
8
 71
3
 72
8
 73
4
 74
0
 40
0
 40
0
 40
0
 40
0
 40
1
 40
1
 40
1
 40
1
 10
803.714482
 20
551.315411
 30
0.0
 10
803.527916
 20
550.877512
 30
0.0
 10
803.631041
 20
550.373467
 30
0.0
 10
803.975771
 20
550.038314
 30
0.0
  0
SPLINE
  5
180
100
AcDbEntity
  8
Layer_1
 62
7
100
AcDbSpline
 70
8
 71
3
 72
8
 73
4
 74
0
 40
0
 40
0
 40
0
 40
0
 40
1
 40
1
 40
1
 40
1
 10
803.975771
 20
550.038314
 30
0.0
 10
804.320500
 20
549.703160
 30
0.0
 10
804.838946
 20
549.602899
 30
0.0
 10
805.289357
 20
549.784283
 30
0.0
  0
SPLINE
  5
181
100
AcDbEntity
  8
Layer_1
 62
7
100
AcDbSpline
 70
8
 71
3
 72
8
 73
4
 74
0
 40
0
 40
0
 40
0
 40
0
 40
1
 40
1
 40
1
 40
1
 10
805.289357
 20
549.784283
 30
0.0
 10
805.739768
 20
549.965667
 30
0.0
 10
806.033444
 20
550.392975
 30
0.0
 10
806.033444
 20
550.866954
 30
0.0
  0
SPLINE
  5
182
100
AcDbEntity
  8
Layer_1
 62
7
100
AcDbSpline
 70
8
 71
3
 72
8
 73
4
 74
0
 40
0
 40
0
 40
0
 40
0
 40
1
 40
1
 40
1
 40
1
 10
806.033444
 20
550.866954
 30
0.0
 10
806.033444
 20
551.177755
 30
0.0
 10
805.906451
 20
551.475826
 30
0.0
 10
805.680403
 20
551.695595
 30
0.0
  0
SPLINE
  5
183
100
AcDbEntity
  8
Layer_1
 62
7
100
AcDbSpline
 70
8
 71
3
 72
8
 73
4
 74
0
 40
0
 40
0
 40
0
 40
0
 40
1
 40
1
 40
1
 40
1
 10
805.680403
 20
551.695595
 30
0.0
 10
805.454355
 20
551.915364
 30
0.0
 10
805.147768
 20
552.038829
 30
0.0
 10
804.828087
 20
552.038829
 30
0.0
  0
LWPOLYLINE
  5
184
100
AcDbEntity
  8
Layer_1
 62
7
100
AcDbPolyline
 90
1
 70
1
 10
805.319974
 20
552.973084
 30
0.0
  0
SPLINE
  5
185
100
AcDbEntity
  8
Layer_1
 62
7
100
AcDbSpline
 70
8
 71
3
 72
8
 73
4
 74
0
 40
0
 40
0
 40
0
 40
0
 40
1
 40
1
 40
1
 40
1
 10
791.455995
 20
534.204084
 30
0.0
 10
791.320572
 20
534.204084
 30
0.0
 10
791.198484
 20
533.996064
 30
0.0
 10
791.146660
 20
533.677023
 30
0.0
  0
SPLINE
  5
186
100
AcDbEntity
  8
Layer_1
 62
7
100
AcDbSpline
 70
8
 71
3
 72
8
 73
4
 74
0
 40
0
 40
0
 40
0
 40
0
 40
1
 40
1
 40
1
 40
1
 10
791.146660
 20
533.677023
 30
0.0
 10
791.094836
 20
533.357982
 30
0.0
 10
791.123482
 20
532.990749
 30
0.0
 10
791.219240
 20
532.746566
 30
0.0
  0
SPLINE
  5
187
100
AcDbEntity
  8
Layer_1
 62
7
100
AcDbSpline
 70
8
 71
3
 72
8
 73
4
 74
0
 40
0
 40
0
 40
0
 40
0
 40
1
 40
1
 40
1
 40
1
 10
791.219240
 20
532.746566
 30
0.0
 10
791.314998
 20
532.502382
 30
0.0
 10
791.459011
 20
532.429335
 30
0.0
 10
791.584125
 20
532.561486
 30
0.0
  0
SPLINE
  5
188
100
AcDbEntity
  8
Layer_1
 62
7
100
AcDbSpline
 70
8
 71
3
 72
8
 73
4
 74
0
 40
0
 40
0
 40
0
 40
0
 40
1
 40
1
 40
1
 40
1
 10
791.584125
 20
532.561486
 30
0.0
 10
791.709239
 20
532.693638
 30
0.0
 10
791.790816
 20
533.004962
 30
0.0
 10
791.790816
 20
533.350290
 30
0.0
  0
SPLINE
  5
189
100
AcDbEntity
  8
Layer_1
 62
7
100
AcDbSpline
 70
8
 71
3
 72
8
 73
4
 74
0
 40
0
 40
0
 40
0
 40
0
 40
1
 40
1
 40
1
 40
1
 10
791.790816
 20
533.350290
 30
0.0
 10
791.790816
 20
533.576730
 30
0.0
 10
791.755540
 20
533.793896
 30
0.0
 10
791.692749
 20
533.954014
 30
0.0
  0
SPLINE
  5
18a
100
AcDbEntity
  8
Layer_1
 62
7
100
AcDbSpline
 70
8
 71
3
 72
8
 73
4
 74
0
 40
0
 40
0
 40
0
 40
0
 40
1
 40
1
 40
1
 40
1
 10
791.692749
 20
533.954014
 30
0.0
 10
791.629958
 20
534.114131
 30
0.0
 10
791.544795
 20
534.204084
 30
0.0
 10
791.455995
 20
534.204084
 30
0.0
  0
LWPOLYLINE
  5
18b
100
AcDbEntity
  8
Layer_1
 62
7
100
AcDbPolyline
 90
1
 70
1
 10
804.828087
 20
552.038829
 30
0.0
  0
SPLINE
  5
18c
100
AcDbEntity
  8
Layer_1
 62
7
100
AcDbSpline
 70
8
 71
3
 72
8
 73
4
 74
0
 40
0
 40
0
 40
0
 40
0
 40
1
 40
1
 40
1
 40
1
 10
798.459866
 20
534.227876
 30
0.0
 10
798.324443
 20
534.227876
 30
0.0
 10
798.202355
 20
534.110707
 30
0.0
 10
798.150531
 20
533.931005
 30
0.0
  0
SPLINE
  5
18d
100
AcDbEntity
  8
Layer_1
 62
7
100
AcDbSpline
 70
8
 71
3
 72
8
 73
4
 74
0
 40
0
 40
0
 40
0
 40
0
 40
1
 40
1
 40
1
 40
1
 10
798.150531
 20
533.931005
 30
0.0
 10
798.098707
 20
533.751303
 30
0.0
 10
798.127353
 20
533.544456
 30
0.0
 10
798.223111
 20
533.406918
 30
0.0
  0
SPLINE
  5
18e
100
AcDbEntity
  8
Layer_1
 62
7
100
AcDbSpline
 70
8
 71
3
 72
8
 73
4
 74
0
 40
0
 40
0
 40
0
 40
0
 40
1
 40
1
 40
1
 40
1
 10
798.223111
 20
533.406918
 30
0.0
 10
798.318869
 20
533.269380
 30
0.0
 10
798.462882
 20
533.228235
 30
0.0
 10
798.587996
 20
533.302671
 30
0.0
  0
SPLINE
  5
18f
100
AcDbEntity
  8
Layer_1
 62
7
100
AcDbSpline
 70
8
 71
3
 72
8
 73
4
 74
0
 40
0
 40
0
 40
0
 40
0
 40
1
 40
1
 40
1
 40
1
 10
798.587996
 20
533.302671
 30
0.0
 10
798.713110
 20
533.377106
 30
0.0
 10
798.794687
 20
533.552462
 30
0.0
 10
798.794687
 20
533.746970
 30
0.0
  0
SPLINE
  5
190
100
AcDbEntity
  8
Layer_1
 62
7
100
AcDbSpline
 70
8
 71
3
 72
8
 73
4
 74
0
 40
0
 40
0
 40
0
 40
0
 40
1
 40
1
 40
1
 40
1
 10
798.794687
 20
533.746970
 30
0.0
 10
798.794687
 20
534.012567
 30
0.0
 10
798.644782
 20
534.227876
 30
0.0
 10
798.459866
 20
534.227876
 30
0.0
  0
LWPOLYLINE
  5
191
100
AcDbEntity
  8
Layer_1
 62
7
100
AcDbPolyline
 90
1
 70
1
 10
791.455995
 20
534.204084
 30
0.0
  0
SPLINE
  5
192
100
AcDbEntity
  8
Layer_1
 62
7
100
AcDbSpline
 70
8
 71
3
 72
8
 73
4
 74
0
 40
0
 40
0
 40
0
 40
0
 40
1
 40
1
 40
1
 40
1
 10
748.213010
 20
578.917672
 30
0.0
 10
750.448304
 20
582.689622
 30
0.0
 10
752.849008
 20
587.063792
 30
0.0
 10
757.051815
 20
588.092088
 30
0.0
  0
SPLINE
  5
193
100
AcDbEntity
  8
Layer_1
 62
7
100
AcDbSpline
 70
8
 71
3
 72
8
 73
4
 74
0
 40
0
 40
0
 40
0
 40
0
 40
1
 40
1
 40
1
 40
1
 10
768.237208
 20
592.993389
 30
0.0
 10
778.749140
 20
599.938157
 30
0.0
 10
786.677973
 20
596.784472
 30
0.0
 10
790.658734
 20
591.315364
 30
0.0
  0
SPLINE
  5
194
100
AcDbEntity
  8
Layer_1
 62
7
100
AcDbSpline
 70
8
 71
3
 72
8
 73
4
 74
0
 40
0
 40
0
 40
0
 40
0
 40
1
 40
1
 40
1
 40
1
 10
804.427209
 20
588.479726
 30
0.0
 10
808.469544
 20
586.781575
 30
0.0
 10
811.456960
 20
583.327871
 30
0.0
 10
813.050668
 20
579.305310
 30
0.0
  0
SPLINE
  5
195
100
AcDbEntity
  8
Layer_1
 62
7
100
AcDbSpline
 70
8
 71
3
 72
8
 73
4
 74
0
 40
0
 40
0
 40
0
 40
0
 40
1
 40
1
 40
1
 40
1
 10
707.354844
 20
488.078532
 30
0.0
 10
711.397191
 20
486.380381
 30
0.0
 10
714.384595
 20
482.926677
 30
0.0
 10
715.978318
 20
478.904117
 30
0.0
  0
SPLINE
  5
196
100
AcDbEntity
  8
Layer_1
 62
7
100
AcDbSpline
 70
8
 71
3
 72
8
 73
4
 74
0
 40
0
 40
0
 40
0
 40
0
 40
1
 40
1
 40
1
 40
1
 10
651.140646
 20
478.516479
 30
0.0
 10
653.375934
 20
482.288428
 30
0.0
 10
655.776652
 20
486.662598
 30
0.0
 10
659.979468
 20
487.690894
 30
0.0
  0
SPLINE
  5
197
100
AcDbEntity
  8
Layer_1
 62
7
100
AcDbSpline
 70
8
 71
3
 72
8
 73
4
 74
0
 40
0
 40
0
 40
0
 40
0
 40
1
 40
1
 40
1
 40
1
 10
701.722318
 20
433.345748
 30
0.0
 10
701.722318
 20
433.080142
 30
0.0
 10
701.572365
 20
432.864850
 30
0.0
 10
701.387518
 20
432.864850
 30
0.0
  0
SPLINE
  5
198
100
AcDbEntity
  8
Layer_1
 62
7
100
AcDbSpline
 70
8
 71
3
 72
8
 73
4
 74
0
 40
0
 40
0
 40
0
 40
0
 40
1
 40
1
 40
1
 40
1
 10
701.387518
 20
432.864850
 30
0.0
 10
701.202699
 20
432.864850
 30
0.0
 10
701.052690
 20
433.080000
 30
0.0
 10
701.052690
 20
433.345748
 30
0.0
  0
SPLINE
  5
199
100
AcDbEntity
  8
Layer_1
 62
7
100
AcDbSpline
 70
8
 71
3
 72
8
 73
4
 74
0
 40
0
 40
0
 40
0
 40
0
 40
1
 40
1
 40
1
 40
1
 10
701.052690
 20
433.345748
 30
0.0
 10
701.052690
 20
433.611354
 30
0.0
 10
701.202643
 20
433.826674
 30
0.0
 10
701.387518
 20
433.826674
 30
0.0
  0
SPLINE
  5
19a
100
AcDbEntity
  8
Layer_1
 62
7
100
AcDbSpline
 70
8
 71
3
 72
8
 73
4
 74
0
 40
0
 40
0
 40
0
 40
0
 40
1
 40
1
 40
1
 40
1
 10
701.387518
 20
433.826674
 30
0.0
 10
701.572337
 20
433.826674
 30
0.0
 10
701.722346
 20
433.611241
 30
0.0
 10
701.722318
 20
433.345748
 30
0.0
  0
SPLINE
  5
19b
100
AcDbEntity
  8
Layer_1
 62
7
100
AcDbSpline
 70
8
 71
3
 72
8
 73
4
 74
0
 40
0
 40
0
 40
0
 40
0
 40
1
 40
1
 40
1
 40
1
 10
694.718447
 20
432.949096
 30
0.0
 10
694.718447
 20
432.477553
 30
0.0
 10
694.568494
 20
432.095301
 30
0.0
 10
694.383647
 20
432.095301
 30
0.0
  0
SPLINE
  5
19c
100
AcDbEntity
  8
Layer_1
 62
7
100
AcDbSpline
 70
8
 71
3
 72
8
 73
4
 74
0
 40
0
 40
0
 40
0
 40
0
 40
1
 40
1
 40
1
 40
1
 10
694.383647
 20
432.095301
 30
0.0
 10
694.198828
 20
432.095301
 30
0.0
 10
694.048819
 20
432.477553
 30
0.0
 10
694.048819
 20
432.949096
 30
0.0
  0
SPLINE
  5
19d
100
AcDbEntity
  8
Layer_1
 62
7
100
AcDbSpline
 70
8
 71
3
 72
8
 73
4
 74
0
 40
0
 40
0
 40
0
 40
0
 40
1
 40
1
 40
1
 40
1
 10
694.048819
 20
432.949096
 30
0.0
 10
694.048819
 20
433.420639
 30
0.0
 10
694.198772
 20
433.802891
 30
0.0
 10
694.383647
 20
433.802891
 30
0.0
  0
SPLINE
  5
19e
100
AcDbEntity
  8
Layer_1
 62
7
100
AcDbSpline
 70
8
 71
3
 72
8
 73
4
 74
0
 40
0
 40
0
 40
0
 40
0
 40
1
 40
1
 40
1
 40
1
 10
694.383647
 20
433.802891
 30
0.0
 10
694.568466
 20
433.802891
 30
0.0
 10
694.718447
 20
433.420639
 30
0.0
 10
694.718447
 20
432.949096
 30
0.0
  0
SPLINE
  5
19f
100
AcDbEntity
  8
Layer_1
 62
7
100
AcDbSpline
 70
8
 71
3
 72
8
 73
4
 74
0
 40
0
 40
0
 40
0
 40
0
 40
1
 40
1
 40
1
 40
1
 10
709.362879
 20
450.197858
 30
0.0
 10
709.362879
 20
449.550652
 30
0.0
 10
708.823219
 20
449.025987
 30
0.0
 10
708.157531
 20
449.025987
 30
0.0
  0
SPLINE
  5
1a0
100
AcDbEntity
  8
Layer_1
 62
7
100
AcDbSpline
 70
8
 71
3
 72
8
 73
4
 74
0
 40
0
 40
0
 40
0
 40
0
 40
1
 40
1
 40
1
 40
1
 10
708.157531
 20
449.025987
 30
0.0
 10
707.491814
 20
449.025987
 30
0.0
 10
706.952154
 20
449.550652
 30
0.0
 10
706.952154
 20
450.197858
 30
0.0
  0
SPLINE
  5
1a1
100
AcDbEntity
  8
Layer_1
 62
7
100
AcDbSpline
 70
8
 71
3
 72
8
 73
4
 74
0
 40
0
 40
0
 40
0
 40
0
 40
1
 40
1
 40
1
 40
1
 10
706.952154
 20
450.197858
 30
0.0
 10
706.952154
 20
450.845065
 30
0.0
 10
707.491814
 20
451.369729
 30
0.0
 10
708.157531
 20
451.369729
 30
0.0
  0
SPLINE
  5
1a2
100
AcDbEntity
  8
Layer_1
 62
7
100
AcDbSpline
 70
8
 71
3
 72
8
 73
4
 74
0
 40
0
 40
0
 40
0
 40
0
 40
1
 40
1
 40
1
 40
1
 10
708.157531
 20
451.369729
 30
0.0
 10
708.823219
 20
451.369729
 30
0.0
 10
709.362879
 20
450.845065
 30
0.0
 10
709.362879
 20
450.197858
 30
0.0
  0
SPLINE
  5
1a3
100
AcDbEntity
  8
Layer_1
 62
7
100
AcDbSpline
 70
8
 71
3
 72
8
 73
4
 74
0
 40
0
 40
0
 40
0
 40
0
 40
1
 40
1
 40
1
 40
1
 10
710.236346
 20
449.565109
 30
0.0
 10
710.236346
 20
447.904517
 30
0.0
 10
709.345956
 20
446.558315
 30
0.0
 10
708.247616
 20
446.558315
 30
0.0
  0
SPLINE
  5
1a4
100
AcDbEntity
  8
Layer_1
 62
7
100
AcDbSpline
 70
8
 71
3
 72
8
 73
4
 74
0
 40
0
 40
0
 40
0
 40
0
 40
1
 40
1
 40
1
 40
1
 10
708.247616
 20
446.558315
 30
0.0
 10
707.149276
 20
446.558315
 30
0.0
 10
706.258885
 20
447.904517
 30
0.0
 10
706.258885
 20
449.565109
 30
0.0
  0
SPLINE
  5
1a5
100
AcDbEntity
  8
Layer_1
 62
7
100
AcDbSpline
 70
8
 71
3
 72
8
 73
4
 74
0
 40
0
 40
0
 40
0
 40
0
 40
1
 40
1
 40
1
 40
1
 10
706.258885
 20
449.565109
 30
0.0
 10
706.258885
 20
451.225701
 30
0.0
 10
707.149276
 20
452.571874
 30
0.0
 10
708.247616
 20
452.571874
 30
0.0
  0
SPLINE
  5
1a6
100
AcDbEntity
  8
Layer_1
 62
7
100
AcDbSpline
 70
8
 71
3
 72
8
 73
4
 74
0
 40
0
 40
0
 40
0
 40
0
 40
1
 40
1
 40
1
 40
1
 10
708.247616
 20
452.571874
 30
0.0
 10
709.345956
 20
452.571874
 30
0.0
 10
710.236346
 20
451.225701
 30
0.0
 10
710.236346
 20
449.565109
 30
0.0
  0
SPLINE
  5
1a7
100
AcDbEntity
  8
Layer_1
 62
7
100
AcDbSpline
 70
8
 71
3
 72
8
 73
4
 74
0
 40
0
 40
0
 40
0
 40
0
 40
1
 40
1
 40
1
 40
1
 10
669.120038
 20
407.833569
 30
0.0
 10
668.210542
 20
409.239666
 30
0.0
 10
667.110926
 20
411.835238
 30
0.0
 10
666.676403
 20
413.601534
 30
0.0
  0
SPLINE
  5
1a8
100
AcDbEntity
  8
Layer_1
 62
7
100
AcDbSpline
 70
8
 71
3
 72
8
 73
4
 74
0
 40
0
 40
0
 40
0
 40
0
 40
1
 40
1
 40
1
 40
1
 10
666.676403
 20
413.601534
 30
0.0
 10
666.016724
 20
416.283194
 30
0.0
 10
665.444551
 20
416.702098
 30
0.0
 10
663.208072
 20
416.140753
 30
0.0
  0
SPLINE
  5
1a9
100
AcDbEntity
  8
Layer_1
 62
7
100
AcDbSpline
 70
8
 71
3
 72
8
 73
4
 74
0
 40
0
 40
0
 40
0
 40
0
 40
1
 40
1
 40
1
 40
1
 10
663.208072
 20
416.140753
 30
0.0
 10
660.376970
 20
415.430220
 30
0.0
 10
655.950189
 20
418.703528
 30
0.0
 10
655.950189
 20
421.507474
 30
0.0
  0
SPLINE
  5
1aa
100
AcDbEntity
  8
Layer_1
 62
7
100
AcDbSpline
 70
8
 71
3
 72
8
 73
4
 74
0
 40
0
 40
0
 40
0
 40
0
 40
1
 40
1
 40
1
 40
1
 10
655.950189
 20
421.507474
 30
0.0
 10
655.950189
 20
422.310132
 30
0.0
 10
654.365594
 20
423.902891
 30
0.0
 10
652.428879
 20
425.046926
 30
0.0
  0
SPLINE
  5
1ab
100
AcDbEntity
  8
Layer_1
 62
7
100
AcDbSpline
 70
8
 71
3
 72
8
 73
4
 74
0
 40
0
 40
0
 40
0
 40
0
 40
1
 40
1
 40
1
 40
1
 10
652.428879
 20
425.046926
 30
0.0
 10
648.644655
 20
427.282328
 30
0.0
 10
645.724063
 20
432.849118
 30
0.0
 10
645.724063
 20
437.826614
 30
0.0
  0
SPLINE
  5
1ac
100
AcDbEntity
  8
Layer_1
 62
7
100
AcDbSpline
 70
8
 71
3
 72
8
 73
4
 74
0
 40
0
 40
0
 40
0
 40
0
 40
1
 40
1
 40
1
 40
1
 10
645.724063
 20
437.826614
 30
0.0
 10
645.724063
 20
439.864696
 30
0.0
 10
644.440252
 20
442.087852
 30
0.0
 10
641.930117
 20
444.396472
 30
0.0
  0
SPLINE
  5
1ad
100
AcDbEntity
  8
Layer_1
 62
7
100
AcDbSpline
 70
8
 71
3
 72
8
 73
4
 74
0
 40
0
 40
0
 40
0
 40
0
 40
1
 40
1
 40
1
 40
1
 10
641.930117
 20
444.396472
 30
0.0
 10
633.904016
 20
451.778258
 30
0.0
 10
633.477231
 20
466.986756
 30
0.0
 10
641.162891
 20
471.736743
 30
0.0
  0
SPLINE
  5
1ae
100
AcDbEntity
  8
Layer_1
 62
7
100
AcDbSpline
 70
8
 71
3
 72
8
 73
4
 74
0
 40
0
 40
0
 40
0
 40
0
 40
1
 40
1
 40
1
 40
1
 10
641.162891
 20
471.736743
 30
0.0
 10
641.796746
 20
472.128491
 30
0.0
 10
642.315373
 20
474.514611
 30
0.0
 10
642.315373
 20
477.039231
 30
0.0
  0
SPLINE
  5
1af
100
AcDbEntity
  8
Layer_1
 62
7
100
AcDbSpline
 70
8
 71
3
 72
8
 73
4
 74
0
 40
0
 40
0
 40
0
 40
0
 40
1
 40
1
 40
1
 40
1
 10
642.315373
 20
477.039231
 30
0.0
 10
642.315373
 20
482.740980
 30
0.0
 10
645.013276
 20
488.495282
 30
0.0
 10
649.268504
 20
492.138850
 30
0.0
  0
SPLINE
  5
1b0
100
AcDbEntity
  8
Layer_1
 62
7
100
AcDbSpline
 70
8
 71
3
 72
8
 73
4
 74
0
 40
0
 40
0
 40
0
 40
0
 40
1
 40
1
 40
1
 40
1
 10
649.268504
 20
492.138850
 30
0.0
 10
652.505414
 20
494.910482
 30
0.0
 10
653.206280
 20
498.306076
 30
0.0
 10
650.872346
 20
498.969156
 30
0.0
  0
SPLINE
  5
1b1
100
AcDbEntity
  8
Layer_1
 62
7
100
AcDbSpline
 70
8
 71
3
 72
8
 73
4
 74
0
 40
0
 40
0
 40
0
 40
0
 40
1
 40
1
 40
1
 40
1
 10
650.872346
 20
498.969156
 30
0.0
 10
640.883225
 20
501.807175
 30
0.0
 10
642.865833
 20
517.705795
 30
0.0
 10
653.294920
 20
518.002328
 30
0.0
  0
SPLINE
  5
1b2
100
AcDbEntity
  8
Layer_1
 62
7
100
AcDbSpline
 70
8
 71
3
 72
8
 73
4
 74
0
 40
0
 40
0
 40
0
 40
0
 40
1
 40
1
 40
1
 40
1
 10
653.294920
 20
518.002328
 30
0.0
 10
661.855635
 20
518.245824
 30
0.0
 10
667.625896
 20
505.147039
 30
0.0
 10
660.565219
 20
501.332202
 30
0.0
  0
SPLINE
  5
1b3
100
AcDbEntity
  8
Layer_1
 62
7
100
AcDbSpline
 70
8
 71
3
 72
8
 73
4
 74
0
 40
0
 40
0
 40
0
 40
0
 40
1
 40
1
 40
1
 40
1
 10
660.565219
 20
501.332202
 30
0.0
 10
658.323921
 20
500.121241
 30
0.0
 10
658.967017
 20
497.738013
 30
0.0
 10
661.496513
 20
497.312050
 30
0.0
  0
SPLINE
  5
1b4
100
AcDbEntity
  8
Layer_1
 62
7
100
AcDbSpline
 70
8
 71
3
 72
8
 73
4
 74
0
 40
0
 40
0
 40
0
 40
0
 40
1
 40
1
 40
1
 40
1
 10
661.496513
 20
497.312050
 30
0.0
 10
662.655855
 20
497.116743
 30
0.0
 10
664.986898
 20
499.085631
 30
0.0
 10
666.640290
 20
501.253370
 30
0.0
  0
SPLINE
  5
1b5
100
AcDbEntity
  8
Layer_1
 62
7
100
AcDbSpline
 70
8
 71
3
 72
8
 73
4
 74
0
 40
0
 40
0
 40
0
 40
0
 40
1
 40
1
 40
1
 40
1
 10
666.640290
 20
501.253370
 30
0.0
 10
672.344532
 20
508.732016
 30
0.0
 10
681.717685
 20
509.150296
 30
0.0
 10
690.659036
 20
502.325206
 30
0.0
  0
SPLINE
  5
1b6
100
AcDbEntity
  8
Layer_1
 62
7
100
AcDbSpline
 70
8
 71
3
 72
8
 73
4
 74
0
 40
0
 40
0
 40
0
 40
0
 40
1
 40
1
 40
1
 40
1
 10
690.659036
 20
502.325206
 30
0.0
 10
693.919729
 20
499.836274
 30
0.0
 10
697.001216
 20
498.448290
 30
0.0
 10
699.266296
 20
498.448290
 30
0.0
  0
SPLINE
  5
1b7
100
AcDbEntity
  8
Layer_1
 62
7
100
AcDbSpline
 70
8
 71
3
 72
8
 73
4
 74
0
 40
0
 40
0
 40
0
 40
0
 40
1
 40
1
 40
1
 40
1
 10
699.266296
 20
498.448290
 30
0.0
 10
708.084227
 20
498.448290
 30
0.0
 10
714.668145
 20
491.560044
 30
0.0
 10
716.415761
 20
480.506145
 30
0.0
  0
SPLINE
  5
1b8
100
AcDbEntity
  8
Layer_1
 62
7
100
AcDbSpline
 70
8
 71
3
 72
8
 73
4
 74
0
 40
0
 40
0
 40
0
 40
0
 40
1
 40
1
 40
1
 40
1
 10
716.415761
 20
480.506145
 30
0.0
 10
717.399213
 20
474.285572
 30
0.0
 10
720.225581
 20
472.134529
 30
0.0
 10
723.377169
 20
468.814876
 30
0.0
  0
SPLINE
  5
1b9
100
AcDbEntity
  8
Layer_1
 62
7
100
AcDbSpline
 70
8
 71
3
 72
8
 73
4
 74
0
 40
0
 40
0
 40
0
 40
0
 40
1
 40
1
 40
1
 40
1
 10
723.377169
 20
468.814876
 30
0.0
 10
729.316828
 20
462.558444
 30
0.0
 10
725.994198
 20
449.606126
 30
0.0
 10
718.734359
 20
443.893238
 30
0.0
  0
SPLINE
  5
1ba
100
AcDbEntity
  8
Layer_1
 62
7
100
AcDbSpline
 70
8
 71
3
 72
8
 73
4
 74
0
 40
0
 40
0
 40
0
 40
0
 40
1
 40
1
 40
1
 40
1
 10
718.734359
 20
443.893238
 30
0.0
 10
716.001959
 20
441.743074
 30
0.0
 10
715.602529
 20
440.640482
 30
0.0
 10
715.602529
 20
435.248220
 30
0.0
  0
SPLINE
  5
1bb
100
AcDbEntity
  8
Layer_1
 62
7
100
AcDbSpline
 70
8
 71
3
 72
8
 73
4
 74
0
 40
0
 40
0
 40
0
 40
0
 40
1
 40
1
 40
1
 40
1
 10
715.602529
 20
435.248220
 30
0.0
 10
715.602529
 20
429.455282
 30
0.0
 10
715.299647
 20
428.779474
 30
0.0
 10
710.773512
 20
424.472457
 30
0.0
  0
SPLINE
  5
1bc
100
AcDbEntity
  8
Layer_1
 62
7
100
AcDbSpline
 70
8
 71
3
 72
8
 73
4
 74
0
 40
0
 40
0
 40
0
 40
0
 40
1
 40
1
 40
1
 40
1
 10
710.773512
 20
424.472457
 30
0.0
 10
708.117562
 20
421.945087
 30
0.0
 10
705.944523
 20
419.080224
 30
0.0
 10
705.944523
 20
418.106069
 30
0.0
  0
SPLINE
  5
1bd
100
AcDbEntity
  8
Layer_1
 62
7
100
AcDbSpline
 70
8
 71
3
 72
8
 73
4
 74
0
 40
0
 40
0
 40
0
 40
0
 40
1
 40
1
 40
1
 40
1
 10
705.944523
 20
418.106069
 30
0.0
 10
705.944523
 20
406.527676
 30
0.0
 10
696.437178
 20
403.287279
 30
0.0
 10
693.599301
 20
413.898435
 30
0.0
  0
SPLINE
  5
1be
100
AcDbEntity
  8
Layer_1
 62
7
100
AcDbSpline
 70
8
 71
3
 72
8
 73
4
 74
0
 40
0
 40
0
 40
0
 40
0
 40
1
 40
1
 40
1
 40
1
 10
693.599301
 20
413.898435
 30
0.0
 10
692.526699
 20
417.909090
 30
0.0
 10
679.811131
 20
419.168693
 30
0.0
 10
679.811131
 20
415.264280
 30
0.0
  0
SPLINE
  5
1bf
100
AcDbEntity
  8
Layer_1
 62
7
100
AcDbSpline
 70
8
 71
3
 72
8
 73
4
 74
0
 40
0
 40
0
 40
0
 40
0
 40
1
 40
1
 40
1
 40
1
 10
679.811131
 20
415.264280
 30
0.0
 10
679.811131
 20
407.016510
 30
0.0
 10
672.800315
 20
402.143726
 30
0.0
 10
669.120038
 20
407.833569
 30
0.0
  0
LWPOLYLINE
  5
1c0
100
AcDbEntity
  8
Layer_1
 62
7
100
AcDbPolyline
 90
1
 70
1
 10
798.459866
 20
534.227876
 30
0.0
  0
SPLINE
  5
1c1
100
AcDbEntity
  8
Layer_1
 62
7
100
AcDbSpline
 70
8
 71
3
 72
8
 73
4
 74
0
 40
0
 40
0
 40
0
 40
0
 40
1
 40
1
 40
1
 40
1
 10
675.569679
 20
408.401688
 30
0.0
 10
679.903200
 20
413.210381
 30
0.0
 10
679.355178
 20
416.639395
 30
0.0
 10
674.253128
 20
416.639395
 30
0.0
  0
SPLINE
  5
1c2
100
AcDbEntity
  8
Layer_1
 62
7
100
AcDbSpline
 70
8
 71
3
 72
8
 73
4
 74
0
 40
0
 40
0
 40
0
 40
0
 40
1
 40
1
 40
1
 40
1
 10
674.253128
 20
416.639395
 30
0.0
 10
669.144813
 20
416.639395
 30
0.0
 10
667.319783
 20
416.034255
 30
0.0
 10
669.434258
 20
410.186721
 30
0.0
  0
SPLINE
  5
1c3
100
AcDbEntity
  8
Layer_1
 62
7
100
AcDbSpline
 70
8
 71
3
 72
8
 73
4
 74
0
 40
0
 40
0
 40
0
 40
0
 40
1
 40
1
 40
1
 40
1
 10
669.434258
 20
410.186721
 30
0.0
 10
670.996261
 20
405.867090
 30
0.0
 10
673.085622
 20
405.645279
 30
0.0
 10
675.569679
 20
408.401688
 30
0.0
  0
LWPOLYLINE
  5
1c4
100
AcDbEntity
  8
Layer_1
 62
7
100
AcDbPolyline
 90
1
 70
1
 10
669.120038
 20
407.833569
 30
0.0
  0
SPLINE
  5
1c5
100
AcDbEntity
  8
Layer_1
 62
7
100
AcDbSpline
 70
8
 71
3
 72
8
 73
4
 74
0
 40
0
 40
0
 40
0
 40
0
 40
1
 40
1
 40
1
 40
1
 10
703.041704
 20
412.691953
 30
0.0
 10
705.249043
 20
417.343521
 30
0.0
 10
704.471726
 20
421.184324
 30
0.0
 10
701.323002
 20
421.184324
 30
0.0
  0
SPLINE
  5
1c6
100
AcDbEntity
  8
Layer_1
 62
7
100
AcDbSpline
 70
8
 71
3
 72
8
 73
4
 74
0
 40
0
 40
0
 40
0
 40
0
 40
1
 40
1
 40
1
 40
1
 10
701.323002
 20
421.184324
 30
0.0
 10
700.115272
 20
421.184324
 30
0.0
 10
699.127115
 20
420.673039
 30
0.0
 10
699.127115
 20
420.048085
 30
0.0
  0
SPLINE
  5
1c7
100
AcDbEntity
  8
Layer_1
 62
7
100
AcDbSpline
 70
8
 71
3
 72
8
 73
4
 74
0
 40
0
 40
0
 40
0
 40
0
 40
1
 40
1
 40
1
 40
1
 10
699.127115
 20
420.048085
 30
0.0
 10
699.127115
 20
419.423159
 30
0.0
 10
696.286687
 20
418.722463
 30
0.0
 10
695.130009
 20
418.722463
 30
0.0
  0
SPLINE
  5
1c8
100
AcDbEntity
  8
Layer_1
 62
7
100
AcDbSpline
 70
8
 71
3
 72
8
 73
4
 74
0
 40
0
 40
0
 40
0
 40
0
 40
1
 40
1
 40
1
 40
1
 10
695.130009
 20
418.722463
 30
0.0
 10
692.557143
 20
418.722463
 30
0.0
 10
694.359156
 20
414.993061
 30
0.0
 10
696.843893
 20
411.242287
 30
0.0
  0
SPLINE
  5
1c9
100
AcDbEntity
  8
Layer_1
 62
7
100
AcDbSpline
 70
8
 71
3
 72
8
 73
4
 74
0
 40
0
 40
0
 40
0
 40
0
 40
1
 40
1
 40
1
 40
1
 10
696.843893
 20
411.242287
 30
0.0
 10
699.212750
 20
407.666466
 30
0.0
 10
700.837285
 20
408.046450
 30
0.0
 10
703.041704
 20
412.691953
 30
0.0
  0
LWPOLYLINE
  5
1ca
100
AcDbEntity
  8
Layer_1
 62
7
100
AcDbPolyline
 90
1
 70
1
 10
675.569679
 20
408.401688
 30
0.0
  0
SPLINE
  5
1cb
100
AcDbEntity
  8
Layer_1
 62
7
100
AcDbSpline
 70
8
 71
3
 72
8
 73
4
 74
0
 40
0
 40
0
 40
0
 40
0
 40
1
 40
1
 40
1
 40
1
 10
662.785002
 20
419.195934
 30
0.0
 10
662.796340
 20
420.142791
 30
0.0
 10
663.169550
 20
420.048085
 30
0.0
 10
663.903836
 20
418.911874
 30
0.0
  0
SPLINE
  5
1cc
100
AcDbEntity
  8
Layer_1
 62
7
100
AcDbSpline
 70
8
 71
3
 72
8
 73
4
 74
0
 40
0
 40
0
 40
0
 40
0
 40
1
 40
1
 40
1
 40
1
 10
663.903836
 20
418.911874
 30
0.0
 10
664.509628
 20
417.974457
 30
0.0
 10
665.013090
 20
417.744369
 30
0.0
 10
665.022671
 20
418.400561
 30
0.0
  0
SPLINE
  5
1cd
100
AcDbEntity
  8
Layer_1
 62
7
100
AcDbSpline
 70
8
 71
3
 72
8
 73
4
 74
0
 40
0
 40
0
 40
0
 40
0
 40
1
 40
1
 40
1
 40
1
 10
665.022671
 20
418.400561
 30
0.0
 10
665.051017
 20
420.259294
 30
0.0
 10
662.528523
 20
422.320564
 30
0.0
 10
660.227896
 20
422.320564
 30
0.0
  0
SPLINE
  5
1ce
100
AcDbEntity
  8
Layer_1
 62
7
100
AcDbSpline
 70
8
 71
3
 72
8
 73
4
 74
0
 40
0
 40
0
 40
0
 40
0
 40
1
 40
1
 40
1
 40
1
 10
660.227896
 20
422.320564
 30
0.0
 10
658.494794
 20
422.320564
 30
0.0
 10
658.348072
 20
421.936866
 30
0.0
 10
659.358907
 20
420.048085
 30
0.0
  0
SPLINE
  5
1cf
100
AcDbEntity
  8
Layer_1
 62
7
100
AcDbSpline
 70
8
 71
3
 72
8
 73
4
 74
0
 40
0
 40
0
 40
0
 40
0
 40
1
 40
1
 40
1
 40
1
 10
659.358907
 20
420.048085
 30
0.0
 10
660.714973
 20
417.514224
 30
0.0
 10
662.758157
 20
417.006000
 30
0.0
 10
662.785002
 20
419.195934
 30
0.0
  0
LWPOLYLINE
  5
1d0
100
AcDbEntity
  8
Layer_1
 62
7
100
AcDbPolyline
 90
1
 70
1
 10
703.041704
 20
412.691953
 30
0.0
  0
SPLINE
  5
1d1
100
AcDbEntity
  8
Layer_1
 62
7
100
AcDbSpline
 70
8
 71
3
 72
8
 73
4
 74
0
 40
0
 40
0
 40
0
 40
0
 40
1
 40
1
 40
1
 40
1
 10
670.654290
 20
419.736387
 30
0.0
 10
671.995247
 20
419.385713
 30
0.0
 10
674.705792
 20
419.561490
 30
0.0
 10
676.677742
 20
420.127058
 30
0.0
  0
SPLINE
  5
1d2
100
AcDbEntity
  8
Layer_1
 62
7
100
AcDbSpline
 70
8
 71
3
 72
8
 73
4
 74
0
 40
0
 40
0
 40
0
 40
0
 40
1
 40
1
 40
1
 40
1
 10
676.677742
 20
420.127058
 30
0.0
 10
679.246526
 20
420.863783
 30
0.0
 10
680.509899
 20
420.756746
 30
0.0
 10
681.133663
 20
419.749540
 30
0.0
  0
SPLINE
  5
1d3
100
AcDbEntity
  8
Layer_1
 62
7
100
AcDbSpline
 70
8
 71
3
 72
8
 73
4
 74
0
 40
0
 40
0
 40
0
 40
0
 40
1
 40
1
 40
1
 40
1
 10
681.133663
 20
419.749540
 30
0.0
 10
682.400069
 20
417.704627
 30
0.0
 10
693.121124
 20
418.265688
 30
0.0
 10
695.597131
 20
420.506447
 30
0.0
  0
SPLINE
  5
1d4
100
AcDbEntity
  8
Layer_1
 62
7
100
AcDbSpline
 70
8
 71
3
 72
8
 73
4
 74
0
 40
0
 40
0
 40
0
 40
0
 40
1
 40
1
 40
1
 40
1
 10
695.597131
 20
420.506447
 30
0.0
 10
696.699638
 20
421.504214
 30
0.0
 10
699.486350
 20
422.320564
 30
0.0
 10
701.789783
 20
422.320564
 30
0.0
  0
SPLINE
  5
1d5
100
AcDbEntity
  8
Layer_1
 62
7
100
AcDbSpline
 70
8
 71
3
 72
8
 73
4
 74
0
 40
0
 40
0
 40
0
 40
0
 40
1
 40
1
 40
1
 40
1
 10
701.789783
 20
422.320564
 30
0.0
 10
708.924246
 20
422.320564
 30
0.0
 10
714.534066
 20
428.471660
 30
0.0
 10
714.222992
 20
435.953452
 30
0.0
  0
SPLINE
  5
1d6
100
AcDbEntity
  8
Layer_1
 62
7
100
AcDbSpline
 70
8
 71
3
 72
8
 73
4
 74
0
 40
0
 40
0
 40
0
 40
0
 40
1
 40
1
 40
1
 40
1
 10
714.222992
 20
435.953452
 30
0.0
 10
713.995370
 20
441.426586
 30
0.0
 10
714.271181
 20
442.082381
 30
0.0
 10
718.483890
 20
446.089861
 30
0.0
  0
SPLINE
  5
1d7
100
AcDbEntity
  8
Layer_1
 62
7
100
AcDbSpline
 70
8
 71
3
 72
8
 73
4
 74
0
 40
0
 40
0
 40
0
 40
0
 40
1
 40
1
 40
1
 40
1
 10
718.483890
 20
446.089861
 30
0.0
 10
721.380926
 20
448.845761
 30
0.0
 10
724.124466
 20
453.278976
 30
0.0
 10
724.124466
 20
455.100350
 30
0.0
  0
SPLINE
  5
1d8
100
AcDbEntity
  8
Layer_1
 62
7
100
AcDbSpline
 70
8
 71
3
 72
8
 73
4
 74
0
 40
0
 40
0
 40
0
 40
0
 40
1
 40
1
 40
1
 40
1
 10
724.124466
 20
455.100350
 30
0.0
 10
724.124466
 20
459.898271
 30
0.0
 10
710.641701
 20
451.600668
 30
0.0
 10
710.539257
 20
446.749625
 30
0.0
  0
SPLINE
  5
1d9
100
AcDbEntity
  8
Layer_1
 62
7
100
AcDbSpline
 70
8
 71
3
 72
8
 73
4
 74
0
 40
0
 40
0
 40
0
 40
0
 40
1
 40
1
 40
1
 40
1
 10
710.539257
 20
446.749625
 30
0.0
 10
710.111735
 20
426.506287
 30
0.0
 10
686.588372
 20
423.496687
 30
0.0
 10
680.763005
 20
442.940031
 30
0.0
  0
SPLINE
  5
1da
100
AcDbEntity
  8
Layer_1
 62
7
100
AcDbSpline
 70
8
 71
3
 72
8
 73
4
 74
0
 40
0
 40
0
 40
0
 40
0
 40
1
 40
1
 40
1
 40
1
 10
680.763005
 20
442.940031
 30
0.0
 10
679.766173
 20
446.267140
 30
0.0
 10
678.705704
 20
447.528898
 30
0.0
 10
676.499017
 20
448.013310
 30
0.0
  0
SPLINE
  5
1db
100
AcDbEntity
  8
Layer_1
 62
7
100
AcDbSpline
 70
8
 71
3
 72
8
 73
4
 74
0
 40
0
 40
0
 40
0
 40
0
 40
1
 40
1
 40
1
 40
1
 10
676.499017
 20
448.013310
 30
0.0
 10
656.949883
 20
452.304680
 30
0.0
 10
654.843883
 20
467.174013
 30
0.0
 10
673.294932
 20
470.635427
 30
0.0
  0
SPLINE
  5
1dc
100
AcDbEntity
  8
Layer_1
 62
7
100
AcDbSpline
 70
8
 71
3
 72
8
 73
4
 74
0
 40
0
 40
0
 40
0
 40
0
 40
1
 40
1
 40
1
 40
1
 10
673.294932
 20
470.635427
 30
0.0
 10
676.258753
 20
471.191443
 30
0.0
 10
677.645093
 20
472.284482
 30
0.0
 10
679.005893
 20
475.138091
 30
0.0
  0
SPLINE
  5
1dd
100
AcDbEntity
  8
Layer_1
 62
7
100
AcDbSpline
 70
8
 71
3
 72
8
 73
4
 74
0
 40
0
 40
0
 40
0
 40
0
 40
1
 40
1
 40
1
 40
1
 10
679.005893
 20
475.138091
 30
0.0
 10
684.007228
 20
485.626025
 30
0.0
 10
701.830091
 20
488.132872
 30
0.0
 10
706.396422
 20
479.941058
 30
0.0
  0
SPLINE
  5
1de
100
AcDbEntity
  8
Layer_1
 62
7
100
AcDbSpline
 70
8
 71
3
 72
8
 73
4
 74
0
 40
0
 40
0
 40
0
 40
0
 40
1
 40
1
 40
1
 40
1
 10
706.396422
 20
479.941058
 30
0.0
 10
717.758589
 20
459.557688
 30
0.0
 10
705.514564
 20
479.675452
 30
0.0
 10
703.338293
 20
481.361386
 30
0.0
  0
SPLINE
  5
1df
100
AcDbEntity
  8
Layer_1
 62
7
100
AcDbSpline
 70
8
 71
3
 72
8
 73
4
 74
0
 40
0
 40
0
 40
0
 40
0
 40
1
 40
1
 40
1
 40
1
 10
703.338293
 20
481.361386
 30
0.0
 10
694.578047
 20
488.147499
 30
0.0
 10
674.544331
 20
478.782397
 30
0.0
 10
680.439515
 20
470.720268
 30
0.0
  0
SPLINE
  5
1e0
100
AcDbEntity
  8
Layer_1
 62
7
100
AcDbSpline
 70
8
 71
3
 72
8
 73
4
 74
0
 40
0
 40
0
 40
0
 40
0
 40
1
 40
1
 40
1
 40
1
 10
680.439515
 20
470.720268
 30
0.0
 10
681.292488
 20
469.553754
 30
0.0
 10
682.328580
 20
466.344000
 30
0.0
 10
682.741956
 20
463.587449
 30
0.0
  0
SPLINE
  5
1e1
100
AcDbEntity
  8
Layer_1
 62
7
100
AcDbSpline
 70
8
 71
3
 72
8
 73
4
 74
0
 40
0
 40
0
 40
0
 40
0
 40
1
 40
1
 40
1
 40
1
 10
682.741956
 20
463.587449
 30
0.0
 10
683.450901
 20
458.859798
 30
0.0
 10
683.608791
 20
458.679883
 30
0.0
 10
685.525833
 20
460.414772
 30
0.0
  0
SPLINE
  5
1e2
100
AcDbEntity
  8
Layer_1
 62
7
100
AcDbSpline
 70
8
 71
3
 72
8
 73
4
 74
0
 40
0
 40
0
 40
0
 40
0
 40
1
 40
1
 40
1
 40
1
 10
685.525833
 20
460.414772
 30
0.0
 10
687.381591
 20
462.094214
 30
0.0
 10
687.858321
 20
462.098778
 30
0.0
 10
691.013735
 20
460.466929
 30
0.0
  0
SPLINE
  5
1e3
100
AcDbEntity
  8
Layer_1
 62
7
100
AcDbSpline
 70
8
 71
3
 72
8
 73
4
 74
0
 40
0
 40
0
 40
0
 40
0
 40
1
 40
1
 40
1
 40
1
 10
691.013735
 20
460.466929
 30
0.0
 10
695.833058
 20
457.974737
 30
0.0
 10
700.933635
 20
458.214009
 30
0.0
 10
703.785685
 20
461.066060
 30
0.0
  0
SPLINE
  5
1e4
100
AcDbEntity
  8
Layer_1
 62
7
100
AcDbSpline
 70
8
 71
3
 72
8
 73
4
 74
0
 40
0
 40
0
 40
0
 40
0
 40
1
 40
1
 40
1
 40
1
 10
703.785685
 20
461.066060
 30
0.0
 10
705.521027
 20
462.801402
 30
0.0
 10
706.512643
 20
463.111285
 30
0.0
 10
707.421628
 20
462.202299
 30
0.0
  0
SPLINE
  5
1e5
100
AcDbEntity
  8
Layer_1
 62
7
100
AcDbSpline
 70
8
 71
3
 72
8
 73
4
 74
0
 40
0
 40
0
 40
0
 40
0
 40
1
 40
1
 40
1
 40
1
 10
707.421628
 20
462.202299
 30
0.0
 10
715.044501
 20
456.294274
 30
0.0
 10
703.248945
 20
473.049468
 30
0.0
 10
712.816923
 20
473.156532
 30
0.0
  0
SPLINE
  5
1e6
100
AcDbEntity
  8
Layer_1
 62
7
100
AcDbSpline
 70
8
 71
3
 72
8
 73
4
 74
0
 40
0
 40
0
 40
0
 40
0
 40
1
 40
1
 40
1
 40
1
 10
712.816923
 20
473.156532
 30
0.0
 10
717.181427
 20
472.894328
 30
0.0
 10
716.377833
 20
472.358608
 30
0.0
 10
715.564942
 20
478.301981
 30
0.0
  0
SPLINE
  5
1e7
100
AcDbEntity
  8
Layer_1
 62
7
100
AcDbSpline
 70
8
 71
3
 72
8
 73
4
 74
0
 40
0
 40
0
 40
0
 40
0
 40
1
 40
1
 40
1
 40
1
 10
715.564942
 20
478.301981
 30
0.0
 10
713.942362
 20
490.165058
 30
0.0
 10
707.408816
 20
497.297395
 30
0.0
 10
698.154917
 20
497.307685
 30
0.0
  0
SPLINE
  5
1e8
100
AcDbEntity
  8
Layer_1
 62
7
100
AcDbSpline
 70
8
 71
3
 72
8
 73
4
 74
0
 40
0
 40
0
 40
0
 40
0
 40
1
 40
1
 40
1
 40
1
 10
698.154917
 20
497.307685
 30
0.0
 10
695.690107
 20
497.310435
 30
0.0
 10
693.078973
 20
498.377112
 30
0.0
 10
690.769389
 20
500.324712
 30
0.0
  0
SPLINE
  5
1e9
100
AcDbEntity
  8
Layer_1
 62
7
100
AcDbSpline
 70
8
 71
3
 72
8
 73
4
 74
0
 40
0
 40
0
 40
0
 40
0
 40
1
 40
1
 40
1
 40
1
 10
690.769389
 20
500.324712
 30
0.0
 10
686.028076
 20
504.322894
 30
0.0
 10
680.221644
 20
506.664113
 30
0.0
 10
677.171197
 20
505.807625
 30
0.0
  0
SPLINE
  5
1ea
100
AcDbEntity
  8
Layer_1
 62
7
100
AcDbSpline
 70
8
 71
3
 72
8
 73
4
 74
0
 40
0
 40
0
 40
0
 40
0
 40
1
 40
1
 40
1
 40
1
 10
677.171197
 20
505.807625
 30
0.0
 10
670.914680
 20
504.050939
 30
0.0
 10
668.222646
 20
502.442986
 30
0.0
 10
666.740891
 20
499.577584
 30
0.0
  0
SPLINE
  5
1eb
100
AcDbEntity
  8
Layer_1
 62
7
100
AcDbSpline
 70
8
 71
3
 72
8
 73
4
 74
0
 40
0
 40
0
 40
0
 40
0
 40
1
 40
1
 40
1
 40
1
 10
666.740891
 20
499.577584
 30
0.0
 10
665.543906
 20
497.262898
 30
0.0
 10
663.995849
 20
496.299175
 30
0.0
 10
660.603061
 20
495.756652
 30
0.0
  0
SPLINE
  5
1ec
100
AcDbEntity
  8
Layer_1
 62
7
100
AcDbSpline
 70
8
 71
3
 72
8
 73
4
 74
0
 40
0
 40
0
 40
0
 40
0
 40
1
 40
1
 40
1
 40
1
 10
660.603061
 20
495.756652
 30
0.0
 10
650.512545
 20
494.143115
 30
0.0
 10
643.451613
 20
486.178838
 30
0.0
 10
643.451613
 20
476.410904
 30
0.0
  0
SPLINE
  5
1ed
100
AcDbEntity
  8
Layer_1
 62
7
100
AcDbSpline
 70
8
 71
3
 72
8
 73
4
 74
0
 40
0
 40
0
 40
0
 40
0
 40
1
 40
1
 40
1
 40
1
 10
643.451613
 20
476.410904
 30
0.0
 10
643.451613
 20
473.866129
 30
0.0
 10
642.221206
 20
470.605606
 30
0.0
 10
640.042923
 20
467.377965
 30
0.0
  0
SPLINE
  5
1ee
100
AcDbEntity
  8
Layer_1
 62
7
100
AcDbSpline
 70
8
 71
3
 72
8
 73
4
 74
0
 40
0
 40
0
 40
0
 40
0
 40
1
 40
1
 40
1
 40
1
 10
640.042923
 20
467.377965
 30
0.0
 10
636.185565
 20
461.662469
 30
0.0
 10
635.616794
 20
455.989606
 30
0.0
 10
638.367732
 20
450.669883
 30
0.0
  0
SPLINE
  5
1ef
100
AcDbEntity
  8
Layer_1
 62
7
100
AcDbSpline
 70
8
 71
3
 72
8
 73
4
 74
0
 40
0
 40
0
 40
0
 40
0
 40
1
 40
1
 40
1
 40
1
 10
638.367732
 20
450.669883
 30
0.0
 10
640.647496
 20
446.261329
 30
0.0
 10
640.730438
 20
446.342995
 30
0.0
 10
640.832315
 20
453.096227
 30
0.0
  0
SPLINE
  5
1f0
100
AcDbEntity
  8
Layer_1
 62
7
100
AcDbSpline
 70
8
 71
3
 72
8
 73
4
 74
0
 40
0
 40
0
 40
0
 40
0
 40
1
 40
1
 40
1
 40
1
 10
640.832315
 20
453.096227
 30
0.0
 10
640.880220
 20
456.274431
 30
0.0
 10
641.449474
 20
459.404787
 30
0.0
 10
642.097219
 20
460.052532
 30
0.0
  0
SPLINE
  5
1f1
100
AcDbEntity
  8
Layer_1
 62
7
100
AcDbSpline
 70
8
 71
3
 72
8
 73
4
 74
0
 40
0
 40
0
 40
0
 40
0
 40
1
 40
1
 40
1
 40
1
 10
642.097219
 20
460.052532
 30
0.0
 10
642.910054
 20
460.865367
 30
0.0
 10
642.973380
 20
459.892942
 30
0.0
 10
642.301597
 20
456.914438
 30
0.0
  0
SPLINE
  5
1f2
100
AcDbEntity
  8
Layer_1
 62
7
100
AcDbSpline
 70
8
 71
3
 72
8
 73
4
 74
0
 40
0
 40
0
 40
0
 40
0
 40
1
 40
1
 40
1
 40
1
 10
642.301597
 20
456.914438
 30
0.0
 10
641.277014
 20
452.371578
 30
0.0
 10
643.370202
 20
443.746687
 30
0.0
 10
645.684520
 20
442.975238
 30
0.0
  0
SPLINE
  5
1f3
100
AcDbEntity
  8
Layer_1
 62
7
100
AcDbSpline
 70
8
 71
3
 72
8
 73
4
 74
0
 40
0
 40
0
 40
0
 40
0
 40
1
 40
1
 40
1
 40
1
 10
645.684520
 20
442.975238
 30
0.0
 10
646.331216
 20
442.759805
 30
0.0
 10
646.860331
 20
441.075572
 30
0.0
 10
646.860331
 20
439.232797
 30
0.0
  0
SPLINE
  5
1f4
100
AcDbEntity
  8
Layer_1
 62
7
100
AcDbSpline
 70
8
 71
3
 72
8
 73
4
 74
0
 40
0
 40
0
 40
0
 40
0
 40
1
 40
1
 40
1
 40
1
 10
646.860331
 20
439.232797
 30
0.0
 10
646.860331
 20
431.895628
 30
0.0
 10
651.042794
 20
426.293178
 30
0.0
 10
658.213795
 20
424.024668
 30
0.0
  0
SPLINE
  5
1f5
100
AcDbEntity
  8
Layer_1
 62
7
100
AcDbSpline
 70
8
 71
3
 72
8
 73
4
 74
0
 40
0
 40
0
 40
0
 40
0
 40
1
 40
1
 40
1
 40
1
 10
658.213795
 20
424.024668
 30
0.0
 10
660.750293
 20
423.222265
 30
0.0
 10
660.883833
 20
423.323631
 30
0.0
 10
659.494942
 20
424.997150
 30
0.0
  0
SPLINE
  5
1f6
100
AcDbEntity
  8
Layer_1
 62
7
100
AcDbSpline
 70
8
 71
3
 72
8
 73
4
 74
0
 40
0
 40
0
 40
0
 40
0
 40
1
 40
1
 40
1
 40
1
 10
659.494942
 20
424.997150
 30
0.0
 10
657.038494
 20
427.957002
 30
0.0
 10
659.279225
 20
427.170841
 30
0.0
 10
663.259011
 20
423.676488
 30
0.0
  0
SPLINE
  5
1f7
100
AcDbEntity
  8
Layer_1
 62
7
100
AcDbSpline
 70
8
 71
3
 72
8
 73
4
 74
0
 40
0
 40
0
 40
0
 40
0
 40
1
 40
1
 40
1
 40
1
 10
663.259011
 20
423.676488
 30
0.0
 10
665.256586
 20
421.922580
 30
0.0
 10
666.691257
 20
419.749540
 30
0.0
 10
666.447165
 20
418.847471
 30
0.0
  0
SPLINE
  5
1f8
100
AcDbEntity
  8
Layer_1
 62
7
100
AcDbSpline
 70
8
 71
3
 72
8
 73
4
 74
0
 40
0
 40
0
 40
0
 40
0
 40
1
 40
1
 40
1
 40
1
 10
666.447165
 20
418.847471
 30
0.0
 10
666.072907
 20
417.464532
 30
0.0
 10
666.176740
 20
417.455603
 30
0.0
 10
667.109764
 20
418.790778
 30
0.0
  0
SPLINE
  5
1f9
100
AcDbEntity
  8
Layer_1
 62
7
100
AcDbSpline
 70
8
 71
3
 72
8
 73
4
 74
0
 40
0
 40
0
 40
0
 40
0
 40
1
 40
1
 40
1
 40
1
 10
667.109764
 20
418.790778
 30
0.0
 10
667.760740
 20
419.722243
 30
0.0
 10
669.219874
 20
420.111524
 30
0.0
 10
670.654318
 20
419.736416
 30
0.0
  0
LWPOLYLINE
  5
1fa
100
AcDbEntity
  8
Layer_1
 62
7
100
AcDbPolyline
 90
1
 70
1
 10
662.785002
 20
419.195934
 30
0.0
  0
SPLINE
  5
1fb
100
AcDbEntity
  8
Layer_1
 62
7
100
AcDbSpline
 70
8
 71
3
 72
8
 73
4
 74
0
 40
0
 40
0
 40
0
 40
0
 40
1
 40
1
 40
1
 40
1
 10
702.819865
 20
433.398869
 30
0.0
 10
706.018791
 20
434.332233
 30
0.0
 10
711.575461
 20
444.874564
 30
0.0
 10
708.601493
 20
446.699424
 30
0.0
  0
SPLINE
  5
1fc
100
AcDbEntity
  8
Layer_1
 62
7
100
AcDbSpline
 70
8
 71
3
 72
8
 73
4
 74
0
 40
0
 40
0
 40
0
 40
0
 40
1
 40
1
 40
1
 40
1
 10
708.601493
 20
446.699424
 30
0.0
 10
707.820321
 20
446.960778
 30
0.0
 10
707.080762
 20
447.381043
 30
0.0
 10
707.080762
 20
448.615701
 30
0.0
  0
SPLINE
  5
1fd
100
AcDbEntity
  8
Layer_1
 62
7
100
AcDbSpline
 70
8
 71
3
 72
8
 73
4
 74
0
 40
0
 40
0
 40
0
 40
0
 40
1
 40
1
 40
1
 40
1
 10
707.080762
 20
448.615701
 30
0.0
 10
707.080762
 20
449.850359
 30
0.0
 10
707.592076
 20
450.544535
 30
0.0
 10
708.217002
 20
450.158315
 30
0.0
  0
SPLINE
  5
1fe
100
AcDbEntity
  8
Layer_1
 62
7
100
AcDbSpline
 70
8
 71
3
 72
8
 73
4
 74
0
 40
0
 40
0
 40
0
 40
0
 40
1
 40
1
 40
1
 40
1
 10
708.217002
 20
450.158315
 30
0.0
 10
708.841928
 20
449.772094
 30
0.0
 10
709.353213
 20
449.997591
 30
0.0
 10
709.353213
 20
450.659367
 30
0.0
  0
SPLINE
  5
1ff
100
AcDbEntity
  8
Layer_1
 62
7
100
AcDbSpline
 70
8
 71
3
 72
8
 73
4
 74
0
 40
0
 40
0
 40
0
 40
0
 40
1
 40
1
 40
1
 40
1
 10
709.353213
 20
450.659367
 30
0.0
 10
709.353213
 20
451.321200
 30
0.0
 10
708.714085
 20
451.903068
 30
0.0
 10
707.932942
 20
451.952362
 30
0.0
  0
SPLINE
  5
200
100
AcDbEntity
  8
Layer_1
 62
7
100
AcDbSpline
 70
8
 71
3
 72
8
 73
4
 74
0
 40
0
 40
0
 40
0
 40
0
 40
1
 40
1
 40
1
 40
1
 10
707.932942
 20
451.952362
 30
0.0
 10
707.461824
 20
451.982126
 30
0.0
 10
707.186041
 20
452.022378
 30
0.0
 10
707.105594
 20
452.091827
 30
0.0
  0
SPLINE
  5
201
100
AcDbEntity
  8
Layer_1
 62
7
100
AcDbSpline
 70
8
 71
3
 72
8
 73
4
 74
0
 40
0
 40
0
 40
0
 40
0
 40
1
 40
1
 40
1
 40
1
 10
707.105594
 20
452.091827
 30
0.0
 10
706.991924
 20
452.189906
 30
0.0
 10
707.267735
 20
452.346661
 30
0.0
 10
707.932942
 20
452.615131
 30
0.0
  0
SPLINE
  5
202
100
AcDbEntity
  8
Layer_1
 62
7
100
AcDbSpline
 70
8
 71
3
 72
8
 73
4
 74
0
 40
0
 40
0
 40
0
 40
0
 40
1
 40
1
 40
1
 40
1
 10
707.932942
 20
452.615131
 30
0.0
 10
709.846583
 20
453.387260
 30
0.0
 10
709.738356
 20
458.082142
 30
0.0
 10
707.769383
 20
459.716343
 30
0.0
  0
SPLINE
  5
203
100
AcDbEntity
  8
Layer_1
 62
7
100
AcDbSpline
 70
8
 71
3
 72
8
 73
4
 74
0
 40
0
 40
0
 40
0
 40
0
 40
1
 40
1
 40
1
 40
1
 10
707.769383
 20
459.716343
 30
0.0
 10
706.549266
 20
460.728964
 30
0.0
 10
705.784876
 20
460.630403
 30
0.0
 10
704.441820
 20
459.287348
 30
0.0
  0
SPLINE
  5
204
100
AcDbEntity
  8
Layer_1
 62
7
100
AcDbSpline
 70
8
 71
3
 72
8
 73
4
 74
0
 40
0
 40
0
 40
0
 40
0
 40
1
 40
1
 40
1
 40
1
 10
704.441820
 20
459.287348
 30
0.0
 10
702.019304
 20
456.864831
 30
0.0
 10
691.621200
 20
456.933855
 30
0.0
 10
689.166312
 20
459.388828
 30
0.0
  0
SPLINE
  5
205
100
AcDbEntity
  8
Layer_1
 62
7
100
AcDbSpline
 70
8
 71
3
 72
8
 73
4
 74
0
 40
0
 40
0
 40
0
 40
0
 40
1
 40
1
 40
1
 40
1
 10
689.166312
 20
459.388828
 30
0.0
 10
684.775191
 20
463.779950
 30
0.0
 10
684.175493
 20
452.800290
 30
0.0
 10
683.251342
 20
444.394630
 30
0.0
  0
SPLINE
  5
206
100
AcDbEntity
  8
Layer_1
 62
7
100
AcDbSpline
 70
8
 71
3
 72
8
 73
4
 74
0
 40
0
 40
0
 40
0
 40
0
 40
1
 40
1
 40
1
 40
1
 10
683.251342
 20
444.394630
 30
0.0
 10
682.025471
 20
433.245005
 30
0.0
 10
696.467509
 20
426.989083
 30
0.0
 10
702.820006
 20
433.398898
 30
0.0
  0
LWPOLYLINE
  5
207
100
AcDbEntity
  8
Layer_1
 62
7
100
AcDbPolyline
 90
1
 70
1
 10
670.654318
 20
419.736416
 30
0.0
  0
SPLINE
  5
208
100
AcDbEntity
  8
Layer_1
 62
7
100
AcDbSpline
 70
8
 71
3
 72
8
 73
4
 74
0
 40
0
 40
0
 40
0
 40
0
 40
1
 40
1
 40
1
 40
1
 10
685.903181
 20
446.749625
 30
0.0
 10
684.985039
 20
449.142293
 30
0.0
 10
686.237499
 20
451.862674
 30
0.0
 10
688.257241
 20
451.862674
 30
0.0
  0
SPLINE
  5
209
100
AcDbEntity
  8
Layer_1
 62
7
100
AcDbSpline
 70
8
 71
3
 72
8
 73
4
 74
0
 40
0
 40
0
 40
0
 40
0
 40
1
 40
1
 40
1
 40
1
 10
688.257241
 20
451.862674
 30
0.0
 10
690.244923
 20
451.862674
 30
0.0
 10
692.065928
 20
447.968324
 30
0.0
 10
691.064164
 20
446.347417
 30
0.0
  0
SPLINE
  5
20a
100
AcDbEntity
  8
Layer_1
 62
7
100
AcDbSpline
 70
8
 71
3
 72
8
 73
4
 74
0
 40
0
 40
0
 40
0
 40
0
 40
1
 40
1
 40
1
 40
1
 10
691.064164
 20
446.347417
 30
0.0
 10
689.999641
 20
444.625002
 30
0.0
 10
686.634123
 20
444.844828
 30
0.0
 10
685.903181
 20
446.749625
 30
0.0
  0
LWPOLYLINE
  5
20b
100
AcDbEntity
  8
Layer_1
 62
7
100
AcDbPolyline
 90
2
 70
0
 10
702.820006
 20
433.398898
 30
0.0
 10
702.819865
 20
433.398869
 30
0.0
  0
SPLINE
  5
20c
100
AcDbEntity
  8
Layer_1
 62
7
100
AcDbSpline
 70
8
 71
3
 72
8
 73
4
 74
0
 40
0
 40
0
 40
0
 40
0
 40
1
 40
1
 40
1
 40
1
 10
690.037228
 20
449.590195
 30
0.0
 10
690.037228
 20
450.215121
 30
0.0
 10
689.525915
 20
450.726435
 30
0.0
 10
688.900989
 20
450.726435
 30
0.0
  0
SPLINE
  5
20d
100
AcDbEntity
  8
Layer_1
 62
7
100
AcDbSpline
 70
8
 71
3
 72
8
 73
4
 74
0
 40
0
 40
0
 40
0
 40
0
 40
1
 40
1
 40
1
 40
1
 10
688.900989
 20
450.726435
 30
0.0
 10
688.276063
 20
450.726435
 30
0.0
 10
687.764778
 20
450.215121
 30
0.0
 10
687.764778
 20
449.590195
 30
0.0
  0
SPLINE
  5
20e
100
AcDbEntity
  8
Layer_1
 62
7
100
AcDbSpline
 70
8
 71
3
 72
8
 73
4
 74
0
 40
0
 40
0
 40
0
 40
0
 40
1
 40
1
 40
1
 40
1
 10
687.764778
 20
449.590195
 30
0.0
 10
687.764778
 20
448.965269
 30
0.0
 10
688.276063
 20
448.453956
 30
0.0
 10
688.900989
 20
448.453956
 30
0.0
  0
SPLINE
  5
20f
100
AcDbEntity
  8
Layer_1
 62
7
100
AcDbSpline
 70
8
 71
3
 72
8
 73
4
 74
0
 40
0
 40
0
 40
0
 40
0
 40
1
 40
1
 40
1
 40
1
 10
688.900989
 20
448.453956
 30
0.0
 10
689.525915
 20
448.453956
 30
0.0
 10
690.037228
 20
448.965269
 30
0.0
 10
690.037228
 20
449.590195
 30
0.0
  0
LWPOLYLINE
  5
210
100
AcDbEntity
  8
Layer_1
 62
7
100
AcDbPolyline
 90
1
 70
1
 10
685.903181
 20
446.749625
 30
0.0
  0
SPLINE
  5
211
100
AcDbEntity
  8
Layer_1
 62
7
100
AcDbSpline
 70
8
 71
3
 72
8
 73
4
 74
0
 40
0
 40
0
 40
0
 40
0
 40
1
 40
1
 40
1
 40
1
 10
675.066529
 20
459.155820
 30
0.0
 10
674.539455
 20
467.433184
 30
0.0
 10
673.303408
 20
469.518265
 30
0.0
 10
669.617206
 20
468.348293
 30
0.0
  0
SPLINE
  5
212
100
AcDbEntity
  8
Layer_1
 62
7
100
AcDbSpline
 70
8
 71
3
 72
8
 73
4
 74
0
 40
0
 40
0
 40
0
 40
0
 40
1
 40
1
 40
1
 40
1
 10
669.617206
 20
468.348293
 30
0.0
 10
667.867720
 20
467.793043
 30
0.0
 10
667.378006
 20
467.015102
 30
0.0
 10
667.936772
 20
465.678907
 30
0.0
  0
SPLINE
  5
213
100
AcDbEntity
  8
Layer_1
 62
7
100
AcDbSpline
 70
8
 71
3
 72
8
 73
4
 74
0
 40
0
 40
0
 40
0
 40
0
 40
1
 40
1
 40
1
 40
1
 10
667.936772
 20
465.678907
 30
0.0
 10
668.370501
 20
464.641739
 30
0.0
 10
668.881219
 20
461.000806
 30
0.0
 10
669.071707
 20
457.587978
 30
0.0
  0
SPLINE
  5
214
100
AcDbEntity
  8
Layer_1
 62
7
100
AcDbSpline
 70
8
 71
3
 72
8
 73
4
 74
0
 40
0
 40
0
 40
0
 40
0
 40
1
 40
1
 40
1
 40
1
 10
669.071707
 20
457.587978
 30
0.0
 10
669.337880
 20
452.820246
 30
0.0
 10
669.898006
 20
451.205093
 30
0.0
 10
671.489943
 20
450.615543
 30
0.0
  0
SPLINE
  5
215
100
AcDbEntity
  8
Layer_1
 62
7
100
AcDbSpline
 70
8
 71
3
 72
8
 73
4
 74
0
 40
0
 40
0
 40
0
 40
0
 40
1
 40
1
 40
1
 40
1
 10
671.489943
 20
450.615543
 30
0.0
 10
674.812205
 20
449.385137
 30
0.0
 10
675.572995
 20
451.201776
 30
0.0
 10
675.066529
 20
459.155820
 30
0.0
  0
LWPOLYLINE
  5
216
100
AcDbEntity
  8
Layer_1
 62
7
100
AcDbPolyline
 90
1
 70
1
 10
690.037228
 20
449.590195
 30
0.0
  0
SPLINE
  5
217
100
AcDbEntity
  8
Layer_1
 62
7
100
AcDbSpline
 70
8
 71
3
 72
8
 73
4
 74
0
 40
0
 40
0
 40
0
 40
0
 40
1
 40
1
 40
1
 40
1
 10
717.590665
 20
468.401272
 30
0.0
 10
715.488378
 20
472.011449
 30
0.0
 10
708.328998
 20
473.944394
 30
0.0
 10
711.503660
 20
471.085512
 30
0.0
  0
SPLINE
  5
218
100
AcDbEntity
  8
Layer_1
 62
7
100
AcDbSpline
 70
8
 71
3
 72
8
 73
4
 74
0
 40
0
 40
0
 40
0
 40
0
 40
1
 40
1
 40
1
 40
1
 10
711.503660
 20
471.085512
 30
0.0
 10
716.976822
 20
464.524328
 30
0.0
 10
715.489597
 20
461.310633
 30
0.0
 10
716.487506
 20
454.513833
 30
0.0
  0
SPLINE
  5
219
100
AcDbEntity
  8
Layer_1
 62
7
100
AcDbSpline
 70
8
 71
3
 72
8
 73
4
 74
0
 40
0
 40
0
 40
0
 40
0
 40
1
 40
1
 40
1
 40
1
 10
716.487506
 20
454.513833
 30
0.0
 10
723.596258
 20
457.376882
 30
0.0
 10
719.216731
 20
465.331493
 30
0.0
 10
717.590665
 20
468.401272
 30
0.0
  0
LWPOLYLINE
  5
21a
100
AcDbEntity
  8
Layer_1
 62
7
100
AcDbPolyline
 90
1
 70
1
 10
675.066529
 20
459.155820
 30
0.0
  0
SPLINE
  5
21b
100
AcDbEntity
  8
Layer_1
 62
7
100
AcDbSpline
 70
8
 71
3
 72
8
 73
4
 74
0
 40
0
 40
0
 40
0
 40
0
 40
1
 40
1
 40
1
 40
1
 10
659.001600
 20
502.055065
 30
0.0
 10
665.493619
 20
507.485962
 30
0.0
 10
660.177978
 20
517.050567
 30
0.0
 10
652.715773
 20
517.046117
 30
0.0
  0
SPLINE
  5
21c
100
AcDbEntity
  8
Layer_1
 62
7
100
AcDbSpline
 70
8
 71
3
 72
8
 73
4
 74
0
 40
0
 40
0
 40
0
 40
0
 40
1
 40
1
 40
1
 40
1
 10
652.715773
 20
517.046117
 30
0.0
 10
648.958592
 20
517.043877
 30
0.0
 10
645.520195
 20
512.252986
 30
0.0
 10
645.352186
 20
509.355128
 30
0.0
  0
SPLINE
  5
21d
100
AcDbEntity
  8
Layer_1
 62
7
100
AcDbSpline
 70
8
 71
3
 72
8
 73
4
 74
0
 40
0
 40
0
 40
0
 40
0
 40
1
 40
1
 40
1
 40
1
 10
645.352186
 20
509.355128
 30
0.0
 10
644.948249
 20
502.387795
 30
0.0
 10
652.023666
 20
496.217650
 30
0.0
 10
659.001600
 20
502.055065
 30
0.0
  0
LWPOLYLINE
  5
21e
100
AcDbEntity
  8
Layer_1
 62
7
100
AcDbPolyline
 90
1
 70
1
 10
717.590665
 20
468.401272
 30
0.0
  0
SPLINE
  5
21f
100
AcDbEntity
  8
Layer_1
 62
7
100
AcDbSpline
 70
8
 71
3
 72
8
 73
4
 74
0
 40
0
 40
0
 40
0
 40
0
 40
1
 40
1
 40
1
 40
1
 10
196.570035
 20
456.989272
 30
0.0
 10
195.660556
 20
458.395342
 30
0.0
 10
194.560923
 20
460.990942
 30
0.0
 10
194.126409
 20
462.757238
 30
0.0
  0
SPLINE
  5
220
100
AcDbEntity
  8
Layer_1
 62
7
100
AcDbSpline
 70
8
 71
3
 72
8
 73
4
 74
0
 40
0
 40
0
 40
0
 40
0
 40
1
 40
1
 40
1
 40
1
 10
194.126409
 20
462.757238
 30
0.0
 10
193.466713
 20
465.438869
 30
0.0
 10
192.894540
 20
465.857773
 30
0.0
 10
190.658061
 20
465.296428
 30
0.0
  0
SPLINE
  5
221
100
AcDbEntity
  8
Layer_1
 62
7
100
AcDbSpline
 70
8
 71
3
 72
8
 73
4
 74
0
 40
0
 40
0
 40
0
 40
0
 40
1
 40
1
 40
1
 40
1
 10
190.658061
 20
465.296428
 30
0.0
 10
187.826975
 20
464.585924
 30
0.0
 10
183.400189
 20
467.859203
 30
0.0
 10
183.400189
 20
470.663150
 30
0.0
  0
SPLINE
  5
222
100
AcDbEntity
  8
Layer_1
 62
7
100
AcDbSpline
 70
8
 71
3
 72
8
 73
4
 74
0
 40
0
 40
0
 40
0
 40
0
 40
1
 40
1
 40
1
 40
1
 10
183.400189
 20
470.663150
 30
0.0
 10
183.400189
 20
471.465808
 30
0.0
 10
181.815596
 20
473.058567
 30
0.0
 10
179.878873
 20
474.202602
 30
0.0
  0
SPLINE
  5
223
100
AcDbEntity
  8
Layer_1
 62
7
100
AcDbSpline
 70
8
 71
3
 72
8
 73
4
 74
0
 40
0
 40
0
 40
0
 40
0
 40
1
 40
1
 40
1
 40
1
 10
179.878873
 20
474.202602
 30
0.0
 10
176.094663
 20
476.438003
 30
0.0
 10
173.174077
 20
482.004794
 30
0.0
 10
173.174077
 20
486.982290
 30
0.0
  0
SPLINE
  5
224
100
AcDbEntity
  8
Layer_1
 62
7
100
AcDbSpline
 70
8
 71
3
 72
8
 73
4
 74
0
 40
0
 40
0
 40
0
 40
0
 40
1
 40
1
 40
1
 40
1
 10
173.174077
 20
486.982290
 30
0.0
 10
173.174077
 20
489.020400
 30
0.0
 10
171.890254
 20
491.243528
 30
0.0
 10
169.380122
 20
493.552148
 30
0.0
  0
SPLINE
  5
225
100
AcDbEntity
  8
Layer_1
 62
7
100
AcDbSpline
 70
8
 71
3
 72
8
 73
4
 74
0
 40
0
 40
0
 40
0
 40
0
 40
1
 40
1
 40
1
 40
1
 10
169.380122
 20
493.552148
 30
0.0
 10
161.354018
 20
500.933934
 30
0.0
 10
160.927240
 20
516.142431
 30
0.0
 10
168.612900
 20
520.892419
 30
0.0
  0
SPLINE
  5
226
100
AcDbEntity
  8
Layer_1
 62
7
100
AcDbSpline
 70
8
 71
3
 72
8
 73
4
 74
0
 40
0
 40
0
 40
0
 40
0
 40
1
 40
1
 40
1
 40
1
 10
168.612900
 20
520.892419
 30
0.0
 10
169.246760
 20
521.284167
 30
0.0
 10
169.765370
 20
523.670287
 30
0.0
 10
169.765370
 20
526.194907
 30
0.0
  0
SPLINE
  5
227
100
AcDbEntity
  8
Layer_1
 62
7
100
AcDbSpline
 70
8
 71
3
 72
8
 73
4
 74
0
 40
0
 40
0
 40
0
 40
0
 40
1
 40
1
 40
1
 40
1
 10
169.765370
 20
526.194907
 30
0.0
 10
169.765370
 20
531.896655
 30
0.0
 10
172.463278
 20
537.650957
 30
0.0
 10
176.718512
 20
541.294526
 30
0.0
  0
SPLINE
  5
228
100
AcDbEntity
  8
Layer_1
 62
7
100
AcDbSpline
 70
8
 71
3
 72
8
 73
4
 74
0
 40
0
 40
0
 40
0
 40
0
 40
1
 40
1
 40
1
 40
1
 10
176.718512
 20
541.294526
 30
0.0
 10
179.955414
 20
544.066157
 30
0.0
 10
180.656271
 20
547.461751
 30
0.0
 10
178.322343
 20
548.124831
 30
0.0
  0
SPLINE
  5
229
100
AcDbEntity
  8
Layer_1
 62
7
100
AcDbSpline
 70
8
 71
3
 72
8
 73
4
 74
0
 40
0
 40
0
 40
0
 40
0
 40
1
 40
1
 40
1
 40
1
 10
178.322343
 20
548.124831
 30
0.0
 10
168.333214
 20
550.962850
 30
0.0
 10
170.315836
 20
566.861471
 30
0.0
 10
180.744934
 20
567.158003
 30
0.0
  0
SPLINE
  5
22a
100
AcDbEntity
  8
Layer_1
 62
7
100
AcDbSpline
 70
8
 71
3
 72
8
 73
4
 74
0
 40
0
 40
0
 40
0
 40
0
 40
1
 40
1
 40
1
 40
1
 10
180.744934
 20
567.158003
 30
0.0
 10
189.305649
 20
567.401499
 30
0.0
 10
195.075896
 20
554.302715
 30
0.0
 10
188.015216
 20
550.487877
 30
0.0
  0
SPLINE
  5
22b
100
AcDbEntity
  8
Layer_1
 62
7
100
AcDbSpline
 70
8
 71
3
 72
8
 73
4
 74
0
 40
0
 40
0
 40
0
 40
0
 40
1
 40
1
 40
1
 40
1
 10
188.015216
 20
550.487877
 30
0.0
 10
185.773915
 20
549.276917
 30
0.0
 10
186.417017
 20
546.893688
 30
0.0
 10
188.946505
 20
546.467726
 30
0.0
  0
SPLINE
  5
22c
100
AcDbEntity
  8
Layer_1
 62
7
100
AcDbSpline
 70
8
 71
3
 72
8
 73
4
 74
0
 40
0
 40
0
 40
0
 40
0
 40
1
 40
1
 40
1
 40
1
 10
188.946505
 20
546.467726
 30
0.0
 10
190.105866
 20
546.272419
 30
0.0
 10
192.436897
 20
548.241307
 30
0.0
 10
194.090295
 20
550.409046
 30
0.0
  0
SPLINE
  5
22d
100
AcDbEntity
  8
Layer_1
 62
7
100
AcDbSpline
 70
8
 71
3
 72
8
 73
4
 74
0
 40
0
 40
0
 40
0
 40
0
 40
1
 40
1
 40
1
 40
1
 10
194.090295
 20
550.409046
 30
0.0
 10
199.794543
 20
557.887691
 30
0.0
 10
209.167690
 20
558.305972
 30
0.0
 10
218.109047
 20
551.480882
 30
0.0
  0
SPLINE
  5
22e
100
AcDbEntity
  8
Layer_1
 62
7
100
AcDbSpline
 70
8
 71
3
 72
8
 73
4
 74
0
 40
0
 40
0
 40
0
 40
0
 40
1
 40
1
 40
1
 40
1
 10
218.109047
 20
551.480882
 30
0.0
 10
221.369729
 20
548.991950
 30
0.0
 10
224.451215
 20
547.603965
 30
0.0
 10
226.716301
 20
547.603965
 30
0.0
  0
SPLINE
  5
22f
100
AcDbEntity
  8
Layer_1
 62
7
100
AcDbSpline
 70
8
 71
3
 72
8
 73
4
 74
0
 40
0
 40
0
 40
0
 40
0
 40
1
 40
1
 40
1
 40
1
 10
226.716301
 20
547.603965
 30
0.0
 10
235.534238
 20
547.603965
 30
0.0
 10
242.118162
 20
540.715720
 30
0.0
 10
243.865752
 20
529.661820
 30
0.0
  0
SPLINE
  5
230
100
AcDbEntity
  8
Layer_1
 62
7
100
AcDbSpline
 70
8
 71
3
 72
8
 73
4
 74
0
 40
0
 40
0
 40
0
 40
0
 40
1
 40
1
 40
1
 40
1
 10
243.865752
 20
529.661820
 30
0.0
 10
244.849212
 20
523.441247
 30
0.0
 10
247.675586
 20
521.290205
 30
0.0
 10
250.827177
 20
517.970551
 30
0.0
  0
SPLINE
  5
231
100
AcDbEntity
  8
Layer_1
 62
7
100
AcDbSpline
 70
8
 71
3
 72
8
 73
4
 74
0
 40
0
 40
0
 40
0
 40
0
 40
1
 40
1
 40
1
 40
1
 10
250.827177
 20
517.970551
 30
0.0
 10
256.766831
 20
511.714120
 30
0.0
 10
253.444190
 20
498.761802
 30
0.0
 10
246.184347
 20
493.048913
 30
0.0
  0
SPLINE
  5
232
100
AcDbEntity
  8
Layer_1
 62
7
100
AcDbSpline
 70
8
 71
3
 72
8
 73
4
 74
0
 40
0
 40
0
 40
0
 40
0
 40
1
 40
1
 40
1
 40
1
 10
246.184347
 20
493.048913
 30
0.0
 10
243.451956
 20
490.898750
 30
0.0
 10
243.052520
 20
489.796186
 30
0.0
 10
243.052520
 20
484.403924
 30
0.0
  0
SPLINE
  5
233
100
AcDbEntity
  8
Layer_1
 62
7
100
AcDbSpline
 70
8
 71
3
 72
8
 73
4
 74
0
 40
0
 40
0
 40
0
 40
0
 40
1
 40
1
 40
1
 40
1
 10
243.052520
 20
484.403924
 30
0.0
 10
243.052520
 20
478.610986
 30
0.0
 10
242.749661
 20
477.935150
 30
0.0
 10
238.223517
 20
473.628132
 30
0.0
  0
SPLINE
  5
234
100
AcDbEntity
  8
Layer_1
 62
7
100
AcDbSpline
 70
8
 71
3
 72
8
 73
4
 74
0
 40
0
 40
0
 40
0
 40
0
 40
1
 40
1
 40
1
 40
1
 10
238.223517
 20
473.628132
 30
0.0
 10
235.567573
 20
471.100762
 30
0.0
 10
233.394523
 20
468.235928
 30
0.0
 10
233.394523
 20
467.261745
 30
0.0
  0
SPLINE
  5
235
100
AcDbEntity
  8
Layer_1
 62
7
100
AcDbSpline
 70
8
 71
3
 72
8
 73
4
 74
0
 40
0
 40
0
 40
0
 40
0
 40
1
 40
1
 40
1
 40
1
 10
233.394523
 20
467.261745
 30
0.0
 10
233.394523
 20
455.683380
 30
0.0
 10
223.887172
 20
452.442983
 30
0.0
 10
221.049312
 20
463.054110
 30
0.0
  0
SPLINE
  5
236
100
AcDbEntity
  8
Layer_1
 62
7
100
AcDbSpline
 70
8
 71
3
 72
8
 73
4
 74
0
 40
0
 40
0
 40
0
 40
0
 40
1
 40
1
 40
1
 40
1
 10
221.049312
 20
463.054110
 30
0.0
 10
219.976696
 20
467.064765
 30
0.0
 10
207.261122
 20
468.324397
 30
0.0
 10
207.261122
 20
464.419956
 30
0.0
  0
SPLINE
  5
237
100
AcDbEntity
  8
Layer_1
 62
7
100
AcDbSpline
 70
8
 71
3
 72
8
 73
4
 74
0
 40
0
 40
0
 40
0
 40
0
 40
1
 40
1
 40
1
 40
1
 10
207.261122
 20
464.419956
 30
0.0
 10
207.261122
 20
456.172186
 30
0.0
 10
200.250306
 20
451.299402
 30
0.0
 10
196.570035
 20
456.989272
 30
0.0
  0
LWPOLYLINE
  5
238
100
AcDbEntity
  8
Layer_1
 62
7
100
AcDbPolyline
 90
1
 70
1
 10
659.001600
 20
502.055065
 30
0.0
  0
SPLINE
  5
239
100
AcDbEntity
  8
Layer_1
 62
7
100
AcDbSpline
 70
8
 71
3
 72
8
 73
4
 74
0
 40
0
 40
0
 40
0
 40
0
 40
1
 40
1
 40
1
 40
1
 10
806.847392
 20
325.324148
 30
0.0
 10
808.188378
 20
324.973474
 30
0.0
 10
810.898923
 20
325.149250
 30
0.0
 10
812.870844
 20
325.714819
 30
0.0
  0
SPLINE
  5
23a
100
AcDbEntity
  8
Layer_1
 62
7
100
AcDbSpline
 70
8
 71
3
 72
8
 73
4
 74
0
 40
0
 40
0
 40
0
 40
0
 40
1
 40
1
 40
1
 40
1
 10
812.870844
 20
325.714819
 30
0.0
 10
815.439657
 20
326.451543
 30
0.0
 10
816.703002
 20
326.344507
 30
0.0
 10
817.326765
 20
325.337301
 30
0.0
  0
SPLINE
  5
23b
100
AcDbEntity
  8
Layer_1
 62
7
100
AcDbSpline
 70
8
 71
3
 72
8
 73
4
 74
0
 40
0
 40
0
 40
0
 40
0
 40
1
 40
1
 40
1
 40
1
 10
817.326765
 20
325.337301
 30
0.0
 10
818.593200
 20
323.292387
 30
0.0
 10
829.314227
 20
323.853449
 30
0.0
 10
831.790233
 20
326.094208
 30
0.0
  0
SPLINE
  5
23c
100
AcDbEntity
  8
Layer_1
 62
7
100
AcDbSpline
 70
8
 71
3
 72
8
 73
4
 74
0
 40
0
 40
0
 40
0
 40
0
 40
1
 40
1
 40
1
 40
1
 10
831.790233
 20
326.094208
 30
0.0
 10
832.892740
 20
327.091975
 30
0.0
 10
835.679452
 20
327.908324
 30
0.0
 10
837.982913
 20
327.908324
 30
0.0
  0
SPLINE
  5
23d
100
AcDbEntity
  8
Layer_1
 62
7
100
AcDbSpline
 70
8
 71
3
 72
8
 73
4
 74
0
 40
0
 40
0
 40
0
 40
0
 40
1
 40
1
 40
1
 40
1
 10
837.982913
 20
327.908324
 30
0.0
 10
845.117376
 20
327.908324
 30
0.0
 10
850.727169
 20
334.059420
 30
0.0
 10
850.416123
 20
341.541213
 30
0.0
  0
SPLINE
  5
23e
100
AcDbEntity
  8
Layer_1
 62
7
100
AcDbSpline
 70
8
 71
3
 72
8
 73
4
 74
0
 40
0
 40
0
 40
0
 40
0
 40
1
 40
1
 40
1
 40
1
 10
850.416123
 20
341.541213
 30
0.0
 10
852.572920
 20
349.591209
 30
0.0
 10
871.282091
 20
364.643490
 30
0.0
 10
853.282545
 20
377.516296
 30
0.0
  0
SPLINE
  5
23f
100
AcDbEntity
  8
Layer_1
 62
7
100
AcDbSpline
 70
8
 71
3
 72
8
 73
4
 74
0
 40
0
 40
0
 40
0
 40
0
 40
1
 40
1
 40
1
 40
1
 10
853.282545
 20
377.516296
 30
0.0
 10
849.411893
 20
380.284498
 30
0.0
 10
855.676431
 20
402.219298
 30
0.0
 10
834.348019
 20
402.895446
 30
0.0
  0
SPLINE
  5
240
100
AcDbEntity
  8
Layer_1
 62
7
100
AcDbSpline
 70
8
 71
3
 72
8
 73
4
 74
0
 40
0
 40
0
 40
0
 40
0
 40
1
 40
1
 40
1
 40
1
 10
834.348019
 20
402.895446
 30
0.0
 10
831.883238
 20
402.898224
 30
0.0
 10
829.272104
 20
403.964872
 30
0.0
 10
826.962491
 20
405.912472
 30
0.0
  0
SPLINE
  5
241
100
AcDbEntity
  8
Layer_1
 62
7
100
AcDbSpline
 70
8
 71
3
 72
8
 73
4
 74
0
 40
0
 40
0
 40
0
 40
0
 40
1
 40
1
 40
1
 40
1
 10
826.962491
 20
405.912472
 30
0.0
 10
819.597033
 20
412.018923
 30
0.0
 10
807.722220
 20
413.982709
 30
0.0
 10
802.934022
 20
405.165345
 30
0.0
  0
SPLINE
  5
242
100
AcDbEntity
  8
Layer_1
 62
7
100
AcDbSpline
 70
8
 71
3
 72
8
 73
4
 74
0
 40
0
 40
0
 40
0
 40
0
 40
1
 40
1
 40
1
 40
1
 10
802.934022
 20
405.165345
 30
0.0
 10
801.737036
 20
402.850658
 30
0.0
 10
800.188951
 20
401.886935
 30
0.0
 10
796.796192
 20
401.344413
 30
0.0
  0
SPLINE
  5
243
100
AcDbEntity
  8
Layer_1
 62
7
100
AcDbSpline
 70
8
 71
3
 72
8
 73
4
 74
0
 40
0
 40
0
 40
0
 40
0
 40
1
 40
1
 40
1
 40
1
 10
796.796192
 20
401.344413
 30
0.0
 10
786.705647
 20
399.730876
 30
0.0
 10
779.644743
 20
391.766598
 30
0.0
 10
779.644743
 20
381.998665
 30
0.0
  0
SPLINE
  5
244
100
AcDbEntity
  8
Layer_1
 62
7
100
AcDbSpline
 70
8
 71
3
 72
8
 73
4
 74
0
 40
0
 40
0
 40
0
 40
0
 40
1
 40
1
 40
1
 40
1
 10
779.644743
 20
381.998665
 30
0.0
 10
779.644743
 20
379.453890
 30
0.0
 10
778.414337
 20
376.193367
 30
0.0
 10
776.236025
 20
372.965726
 30
0.0
  0
SPLINE
  5
245
100
AcDbEntity
  8
Layer_1
 62
7
100
AcDbSpline
 70
8
 71
3
 72
8
 73
4
 74
0
 40
0
 40
0
 40
0
 40
0
 40
1
 40
1
 40
1
 40
1
 10
776.236025
 20
372.965726
 30
0.0
 10
772.378696
 20
367.250230
 30
0.0
 10
771.809924
 20
361.577367
 30
0.0
 10
774.560863
 20
356.257644
 30
0.0
  0
SPLINE
  5
246
100
AcDbEntity
  8
Layer_1
 62
7
100
AcDbSpline
 70
8
 71
3
 72
8
 73
4
 74
0
 40
0
 40
0
 40
0
 40
0
 40
1
 40
1
 40
1
 40
1
 10
774.560863
 20
356.257644
 30
0.0
 10
776.840598
 20
351.849090
 30
0.0
 10
776.923569
 20
351.930756
 30
0.0
 10
777.025446
 20
358.683987
 30
0.0
  0
SPLINE
  5
247
100
AcDbEntity
  8
Layer_1
 62
7
100
AcDbSpline
 70
8
 71
3
 72
8
 73
4
 74
0
 40
0
 40
0
 40
0
 40
0
 40
1
 40
1
 40
1
 40
1
 10
777.025446
 20
358.683987
 30
0.0
 10
777.073351
 20
361.862192
 30
0.0
 10
777.642605
 20
364.992548
 30
0.0
 10
778.290350
 20
365.640293
 30
0.0
  0
SPLINE
  5
248
100
AcDbEntity
  8
Layer_1
 62
7
100
AcDbSpline
 70
8
 71
3
 72
8
 73
4
 74
0
 40
0
 40
0
 40
0
 40
0
 40
1
 40
1
 40
1
 40
1
 10
778.290350
 20
365.640293
 30
0.0
 10
779.103156
 20
366.453128
 30
0.0
 10
779.166482
 20
365.480702
 30
0.0
 10
778.494728
 20
362.502198
 30
0.0
  0
SPLINE
  5
249
100
AcDbEntity
  8
Layer_1
 62
7
100
AcDbSpline
 70
8
 71
3
 72
8
 73
4
 74
0
 40
0
 40
0
 40
0
 40
0
 40
1
 40
1
 40
1
 40
1
 10
778.494728
 20
362.502198
 30
0.0
 10
777.470145
 20
357.959339
 30
0.0
 10
779.563332
 20
349.334447
 30
0.0
 10
781.877650
 20
348.562998
 30
0.0
  0
SPLINE
  5
24a
100
AcDbEntity
  8
Layer_1
 62
7
100
AcDbSpline
 70
8
 71
3
 72
8
 73
4
 74
0
 40
0
 40
0
 40
0
 40
0
 40
1
 40
1
 40
1
 40
1
 10
781.877650
 20
348.562998
 30
0.0
 10
782.524346
 20
348.347565
 30
0.0
 10
783.053461
 20
346.663332
 30
0.0
 10
783.053461
 20
344.820557
 30
0.0
  0
SPLINE
  5
24b
100
AcDbEntity
  8
Layer_1
 62
7
100
AcDbSpline
 70
8
 71
3
 72
8
 73
4
 74
0
 40
0
 40
0
 40
0
 40
0
 40
1
 40
1
 40
1
 40
1
 10
783.053461
 20
344.820557
 30
0.0
 10
784.649565
 20
332.179172
 30
0.0
 10
796.231219
 20
328.129597
 30
0.0
 10
806.847449
 20
325.324176
 30
0.0
  0
LWPOLYLINE
  5
24c
100
AcDbEntity
  8
Layer_1
 62
7
100
AcDbPolyline
 90
1
 70
1
 10
196.570035
 20
456.989272
 30
0.0
  0
SPLINE
  5
24d
100
AcDbEntity
  8
Layer_1
 62
7
100
AcDbSpline
 70
8
 71
3
 72
8
 73
4
 74
0
 40
0
 40
0
 40
0
 40
0
 40
1
 40
1
 40
1
 40
1
 10
693.139578
 20
296.401776
 30
0.0
 10
692.712057
 20
276.158438
 30
0.0
 10
669.188693
 20
273.148838
 30
0.0
 10
663.363326
 20
292.592183
 30
0.0
  0
SPLINE
  5
24e
100
AcDbEntity
  8
Layer_1
 62
7
100
AcDbSpline
 70
8
 71
3
 72
8
 73
4
 74
0
 40
0
 40
0
 40
0
 40
0
 40
1
 40
1
 40
1
 40
1
 10
663.363326
 20
292.592183
 30
0.0
 10
662.366494
 20
295.919291
 30
0.0
 10
661.305997
 20
297.181049
 30
0.0
 10
659.099339
 20
297.665461
 30
0.0
  0
SPLINE
  5
24f
100
AcDbEntity
  8
Layer_1
 62
7
100
AcDbSpline
 70
8
 71
3
 72
8
 73
4
 74
0
 40
0
 40
0
 40
0
 40
0
 40
1
 40
1
 40
1
 40
1
 10
659.099339
 20
297.665461
 30
0.0
 10
639.550205
 20
301.956831
 30
0.0
 10
637.444176
 20
316.826164
 30
0.0
 10
655.895254
 20
320.287578
 30
0.0
  0
SPLINE
  5
250
100
AcDbEntity
  8
Layer_1
 62
7
100
AcDbSpline
 70
8
 71
3
 72
8
 73
4
 74
0
 40
0
 40
0
 40
0
 40
0
 40
1
 40
1
 40
1
 40
1
 10
655.895254
 20
320.287578
 30
0.0
 10
658.859046
 20
320.843594
 30
0.0
 10
660.245414
 20
321.936633
 30
0.0
 10
661.606186
 20
324.790243
 30
0.0
  0
SPLINE
  5
251
100
AcDbEntity
  8
Layer_1
 62
7
100
AcDbSpline
 70
8
 71
3
 72
8
 73
4
 74
0
 40
0
 40
0
 40
0
 40
0
 40
1
 40
1
 40
1
 40
1
 10
661.606186
 20
324.790243
 30
0.0
 10
666.607550
 20
335.278176
 30
0.0
 10
684.430413
 20
337.785024
 30
0.0
 10
688.996715
 20
329.593209
 30
0.0
  0
SPLINE
  5
252
100
AcDbEntity
  8
Layer_1
 62
7
100
AcDbSpline
 70
8
 71
3
 72
8
 73
4
 74
0
 40
0
 40
0
 40
0
 40
0
 40
1
 40
1
 40
1
 40
1
 10
688.996715
 20
329.593209
 30
0.0
 10
686.054891
 20
328.573247
 30
0.0
 10
692.653691
 20
321.374296
 30
0.0
 10
695.417244
 20
322.808683
 30
0.0
  0
SPLINE
  5
253
100
AcDbEntity
  8
Layer_1
 62
7
100
AcDbSpline
 70
8
 71
3
 72
8
 73
4
 74
0
 40
0
 40
0
 40
0
 40
0
 40
1
 40
1
 40
1
 40
1
 10
695.417244
 20
322.808683
 30
0.0
 10
701.922444
 20
325.145225
 30
0.0
 10
723.092882
 20
307.650161
 30
0.0
 10
693.139578
 20
296.401776
 30
0.0
  0
LWPOLYLINE
  5
254
100
AcDbEntity
  8
Layer_1
 62
7
100
AcDbPolyline
 90
1
 70
1
 10
806.847449
 20
325.324176
 30
0.0
  0
LWPOLYLINE
  5
255
100
AcDbEntity
  8
Layer_1
 62
7
100
AcDbPolyline
 90
1
 70
1
 10
693.139578
 20
296.401776
 30
0.0
  0
ENDSEC
  0
SECTION
  2
OBJECTS
  0
DICTIONARY
  5
C
330
0
100
AcDbDictionary
  3
ACAD_GROUP
350
D
  3
ACAD_MLINESTYLE
350
17
  0
DICTIONARY
  5
D
330
C
100
AcDbDictionary
  0
DICTIONARY
  5
1A
330
C
100
AcDbDictionary
  0
DICTIONARY
  5
17
330
C
100
AcDbDictionary
  3
STANDARD
350
18
  0
DICTIONARY
  5
19
330
C
100
AcDbDictionary
  0
ENDSEC
  0
EOF
