G04 #@! TF.GenerationSoftware,KiCad,Pcbnew,(5.1.5)-3*
G04 #@! TF.CreationDate,2020-05-11T16:08:06-04:00*
G04 #@! TF.ProjectId,charlieplex,63686172-6c69-4657-906c-65782e6b6963,rev?*
G04 #@! TF.SameCoordinates,Original*
G04 #@! TF.FileFunction,Copper,L1,Top*
G04 #@! TF.FilePolarity,Positive*
%FSLAX46Y46*%
G04 Gerber Fmt 4.6, Leading zero omitted, Abs format (unit mm)*
G04 Created by KiCad (PCBNEW (5.1.5)-3) date 2020-05-11 16:08:06*
%MOMM*%
%LPD*%
G04 APERTURE LIST*
%ADD10C,0.010000*%
%ADD11C,0.100000*%
%ADD12C,0.800000*%
%ADD13C,0.250000*%
%ADD14C,0.200000*%
G04 APERTURE END LIST*
D10*
G36*
X195833939Y-105292453D02*
G01*
X196936859Y-105624078D01*
X197758643Y-106141093D01*
X198198574Y-106807645D01*
X198245263Y-107129269D01*
X198451577Y-107873670D01*
X198970738Y-108576024D01*
X199653078Y-109096348D01*
X200348927Y-109294660D01*
X200535322Y-109271096D01*
X201476037Y-109284931D01*
X202524040Y-109689236D01*
X203559533Y-110390361D01*
X204462712Y-111294656D01*
X205113778Y-112308469D01*
X205356663Y-113040026D01*
X205313682Y-114202016D01*
X204795033Y-115379356D01*
X203854102Y-116509645D01*
X202544274Y-117530482D01*
X200918936Y-118379465D01*
X200718421Y-118461580D01*
X200060793Y-118857111D01*
X199849857Y-119381404D01*
X199849474Y-119410401D01*
X199761316Y-120031789D01*
X199540182Y-120870484D01*
X199438035Y-121178911D01*
X198685818Y-122619414D01*
X197609595Y-123738479D01*
X196302581Y-124486764D01*
X194857995Y-124814926D01*
X193369053Y-124673623D01*
X193031579Y-124570038D01*
X191906663Y-124035139D01*
X190970210Y-123240293D01*
X190131787Y-122090194D01*
X189439206Y-120784250D01*
X188383341Y-118571998D01*
X186830618Y-118138783D01*
X185239028Y-117541568D01*
X183876680Y-116733179D01*
X182820834Y-115781945D01*
X182148752Y-114756192D01*
X181935790Y-113810000D01*
X182195359Y-112777331D01*
X182952129Y-111842955D01*
X184173192Y-111034961D01*
X185825640Y-110381437D01*
X186020266Y-110323663D01*
X186927257Y-110016606D01*
X187576112Y-109635879D01*
X188164602Y-109038037D01*
X188638126Y-108424938D01*
X189917650Y-106975074D01*
X191307552Y-105987731D01*
X192913921Y-105390708D01*
X193187555Y-105328791D01*
X194550598Y-105182073D01*
X195833939Y-105292453D01*
G37*
X195833939Y-105292453D02*
X196936859Y-105624078D01*
X197758643Y-106141093D01*
X198198574Y-106807645D01*
X198245263Y-107129269D01*
X198451577Y-107873670D01*
X198970738Y-108576024D01*
X199653078Y-109096348D01*
X200348927Y-109294660D01*
X200535322Y-109271096D01*
X201476037Y-109284931D01*
X202524040Y-109689236D01*
X203559533Y-110390361D01*
X204462712Y-111294656D01*
X205113778Y-112308469D01*
X205356663Y-113040026D01*
X205313682Y-114202016D01*
X204795033Y-115379356D01*
X203854102Y-116509645D01*
X202544274Y-117530482D01*
X200918936Y-118379465D01*
X200718421Y-118461580D01*
X200060793Y-118857111D01*
X199849857Y-119381404D01*
X199849474Y-119410401D01*
X199761316Y-120031789D01*
X199540182Y-120870484D01*
X199438035Y-121178911D01*
X198685818Y-122619414D01*
X197609595Y-123738479D01*
X196302581Y-124486764D01*
X194857995Y-124814926D01*
X193369053Y-124673623D01*
X193031579Y-124570038D01*
X191906663Y-124035139D01*
X190970210Y-123240293D01*
X190131787Y-122090194D01*
X189439206Y-120784250D01*
X188383341Y-118571998D01*
X186830618Y-118138783D01*
X185239028Y-117541568D01*
X183876680Y-116733179D01*
X182820834Y-115781945D01*
X182148752Y-114756192D01*
X181935790Y-113810000D01*
X182195359Y-112777331D01*
X182952129Y-111842955D01*
X184173192Y-111034961D01*
X185825640Y-110381437D01*
X186020266Y-110323663D01*
X186927257Y-110016606D01*
X187576112Y-109635879D01*
X188164602Y-109038037D01*
X188638126Y-108424938D01*
X189917650Y-106975074D01*
X191307552Y-105987731D01*
X192913921Y-105390708D01*
X193187555Y-105328791D01*
X194550598Y-105182073D01*
X195833939Y-105292453D01*
G04 #@! TA.AperFunction,SMDPad,CuDef*
D11*
G36*
X181374505Y-95601204D02*
G01*
X181398773Y-95604804D01*
X181422572Y-95610765D01*
X181445671Y-95619030D01*
X181467850Y-95629520D01*
X181488893Y-95642132D01*
X181508599Y-95656747D01*
X181526777Y-95673223D01*
X181543253Y-95691401D01*
X181557868Y-95711107D01*
X181570480Y-95732150D01*
X181580970Y-95754329D01*
X181589235Y-95777428D01*
X181595196Y-95801227D01*
X181598796Y-95825495D01*
X181600000Y-95849999D01*
X181600000Y-96750001D01*
X181598796Y-96774505D01*
X181595196Y-96798773D01*
X181589235Y-96822572D01*
X181580970Y-96845671D01*
X181570480Y-96867850D01*
X181557868Y-96888893D01*
X181543253Y-96908599D01*
X181526777Y-96926777D01*
X181508599Y-96943253D01*
X181488893Y-96957868D01*
X181467850Y-96970480D01*
X181445671Y-96980970D01*
X181422572Y-96989235D01*
X181398773Y-96995196D01*
X181374505Y-96998796D01*
X181350001Y-97000000D01*
X180699999Y-97000000D01*
X180675495Y-96998796D01*
X180651227Y-96995196D01*
X180627428Y-96989235D01*
X180604329Y-96980970D01*
X180582150Y-96970480D01*
X180561107Y-96957868D01*
X180541401Y-96943253D01*
X180523223Y-96926777D01*
X180506747Y-96908599D01*
X180492132Y-96888893D01*
X180479520Y-96867850D01*
X180469030Y-96845671D01*
X180460765Y-96822572D01*
X180454804Y-96798773D01*
X180451204Y-96774505D01*
X180450000Y-96750001D01*
X180450000Y-95849999D01*
X180451204Y-95825495D01*
X180454804Y-95801227D01*
X180460765Y-95777428D01*
X180469030Y-95754329D01*
X180479520Y-95732150D01*
X180492132Y-95711107D01*
X180506747Y-95691401D01*
X180523223Y-95673223D01*
X180541401Y-95656747D01*
X180561107Y-95642132D01*
X180582150Y-95629520D01*
X180604329Y-95619030D01*
X180627428Y-95610765D01*
X180651227Y-95604804D01*
X180675495Y-95601204D01*
X180699999Y-95600000D01*
X181350001Y-95600000D01*
X181374505Y-95601204D01*
G37*
G04 #@! TD.AperFunction*
G04 #@! TA.AperFunction,SMDPad,CuDef*
G36*
X179324505Y-95601204D02*
G01*
X179348773Y-95604804D01*
X179372572Y-95610765D01*
X179395671Y-95619030D01*
X179417850Y-95629520D01*
X179438893Y-95642132D01*
X179458599Y-95656747D01*
X179476777Y-95673223D01*
X179493253Y-95691401D01*
X179507868Y-95711107D01*
X179520480Y-95732150D01*
X179530970Y-95754329D01*
X179539235Y-95777428D01*
X179545196Y-95801227D01*
X179548796Y-95825495D01*
X179550000Y-95849999D01*
X179550000Y-96750001D01*
X179548796Y-96774505D01*
X179545196Y-96798773D01*
X179539235Y-96822572D01*
X179530970Y-96845671D01*
X179520480Y-96867850D01*
X179507868Y-96888893D01*
X179493253Y-96908599D01*
X179476777Y-96926777D01*
X179458599Y-96943253D01*
X179438893Y-96957868D01*
X179417850Y-96970480D01*
X179395671Y-96980970D01*
X179372572Y-96989235D01*
X179348773Y-96995196D01*
X179324505Y-96998796D01*
X179300001Y-97000000D01*
X178649999Y-97000000D01*
X178625495Y-96998796D01*
X178601227Y-96995196D01*
X178577428Y-96989235D01*
X178554329Y-96980970D01*
X178532150Y-96970480D01*
X178511107Y-96957868D01*
X178491401Y-96943253D01*
X178473223Y-96926777D01*
X178456747Y-96908599D01*
X178442132Y-96888893D01*
X178429520Y-96867850D01*
X178419030Y-96845671D01*
X178410765Y-96822572D01*
X178404804Y-96798773D01*
X178401204Y-96774505D01*
X178400000Y-96750001D01*
X178400000Y-95849999D01*
X178401204Y-95825495D01*
X178404804Y-95801227D01*
X178410765Y-95777428D01*
X178419030Y-95754329D01*
X178429520Y-95732150D01*
X178442132Y-95711107D01*
X178456747Y-95691401D01*
X178473223Y-95673223D01*
X178491401Y-95656747D01*
X178511107Y-95642132D01*
X178532150Y-95629520D01*
X178554329Y-95619030D01*
X178577428Y-95610765D01*
X178601227Y-95604804D01*
X178625495Y-95601204D01*
X178649999Y-95600000D01*
X179300001Y-95600000D01*
X179324505Y-95601204D01*
G37*
G04 #@! TD.AperFunction*
G04 #@! TA.AperFunction,SMDPad,CuDef*
G36*
X193974505Y-126301204D02*
G01*
X193998773Y-126304804D01*
X194022572Y-126310765D01*
X194045671Y-126319030D01*
X194067850Y-126329520D01*
X194088893Y-126342132D01*
X194108599Y-126356747D01*
X194126777Y-126373223D01*
X194143253Y-126391401D01*
X194157868Y-126411107D01*
X194170480Y-126432150D01*
X194180970Y-126454329D01*
X194189235Y-126477428D01*
X194195196Y-126501227D01*
X194198796Y-126525495D01*
X194200000Y-126549999D01*
X194200000Y-127450001D01*
X194198796Y-127474505D01*
X194195196Y-127498773D01*
X194189235Y-127522572D01*
X194180970Y-127545671D01*
X194170480Y-127567850D01*
X194157868Y-127588893D01*
X194143253Y-127608599D01*
X194126777Y-127626777D01*
X194108599Y-127643253D01*
X194088893Y-127657868D01*
X194067850Y-127670480D01*
X194045671Y-127680970D01*
X194022572Y-127689235D01*
X193998773Y-127695196D01*
X193974505Y-127698796D01*
X193950001Y-127700000D01*
X193299999Y-127700000D01*
X193275495Y-127698796D01*
X193251227Y-127695196D01*
X193227428Y-127689235D01*
X193204329Y-127680970D01*
X193182150Y-127670480D01*
X193161107Y-127657868D01*
X193141401Y-127643253D01*
X193123223Y-127626777D01*
X193106747Y-127608599D01*
X193092132Y-127588893D01*
X193079520Y-127567850D01*
X193069030Y-127545671D01*
X193060765Y-127522572D01*
X193054804Y-127498773D01*
X193051204Y-127474505D01*
X193050000Y-127450001D01*
X193050000Y-126549999D01*
X193051204Y-126525495D01*
X193054804Y-126501227D01*
X193060765Y-126477428D01*
X193069030Y-126454329D01*
X193079520Y-126432150D01*
X193092132Y-126411107D01*
X193106747Y-126391401D01*
X193123223Y-126373223D01*
X193141401Y-126356747D01*
X193161107Y-126342132D01*
X193182150Y-126329520D01*
X193204329Y-126319030D01*
X193227428Y-126310765D01*
X193251227Y-126304804D01*
X193275495Y-126301204D01*
X193299999Y-126300000D01*
X193950001Y-126300000D01*
X193974505Y-126301204D01*
G37*
G04 #@! TD.AperFunction*
G04 #@! TA.AperFunction,SMDPad,CuDef*
G36*
X191924505Y-126301204D02*
G01*
X191948773Y-126304804D01*
X191972572Y-126310765D01*
X191995671Y-126319030D01*
X192017850Y-126329520D01*
X192038893Y-126342132D01*
X192058599Y-126356747D01*
X192076777Y-126373223D01*
X192093253Y-126391401D01*
X192107868Y-126411107D01*
X192120480Y-126432150D01*
X192130970Y-126454329D01*
X192139235Y-126477428D01*
X192145196Y-126501227D01*
X192148796Y-126525495D01*
X192150000Y-126549999D01*
X192150000Y-127450001D01*
X192148796Y-127474505D01*
X192145196Y-127498773D01*
X192139235Y-127522572D01*
X192130970Y-127545671D01*
X192120480Y-127567850D01*
X192107868Y-127588893D01*
X192093253Y-127608599D01*
X192076777Y-127626777D01*
X192058599Y-127643253D01*
X192038893Y-127657868D01*
X192017850Y-127670480D01*
X191995671Y-127680970D01*
X191972572Y-127689235D01*
X191948773Y-127695196D01*
X191924505Y-127698796D01*
X191900001Y-127700000D01*
X191249999Y-127700000D01*
X191225495Y-127698796D01*
X191201227Y-127695196D01*
X191177428Y-127689235D01*
X191154329Y-127680970D01*
X191132150Y-127670480D01*
X191111107Y-127657868D01*
X191091401Y-127643253D01*
X191073223Y-127626777D01*
X191056747Y-127608599D01*
X191042132Y-127588893D01*
X191029520Y-127567850D01*
X191019030Y-127545671D01*
X191010765Y-127522572D01*
X191004804Y-127498773D01*
X191001204Y-127474505D01*
X191000000Y-127450001D01*
X191000000Y-126549999D01*
X191001204Y-126525495D01*
X191004804Y-126501227D01*
X191010765Y-126477428D01*
X191019030Y-126454329D01*
X191029520Y-126432150D01*
X191042132Y-126411107D01*
X191056747Y-126391401D01*
X191073223Y-126373223D01*
X191091401Y-126356747D01*
X191111107Y-126342132D01*
X191132150Y-126329520D01*
X191154329Y-126319030D01*
X191177428Y-126310765D01*
X191201227Y-126304804D01*
X191225495Y-126301204D01*
X191249999Y-126300000D01*
X191900001Y-126300000D01*
X191924505Y-126301204D01*
G37*
G04 #@! TD.AperFunction*
G04 #@! TA.AperFunction,SMDPad,CuDef*
G36*
X185824505Y-126101204D02*
G01*
X185848773Y-126104804D01*
X185872572Y-126110765D01*
X185895671Y-126119030D01*
X185917850Y-126129520D01*
X185938893Y-126142132D01*
X185958599Y-126156747D01*
X185976777Y-126173223D01*
X185993253Y-126191401D01*
X186007868Y-126211107D01*
X186020480Y-126232150D01*
X186030970Y-126254329D01*
X186039235Y-126277428D01*
X186045196Y-126301227D01*
X186048796Y-126325495D01*
X186050000Y-126349999D01*
X186050000Y-127250001D01*
X186048796Y-127274505D01*
X186045196Y-127298773D01*
X186039235Y-127322572D01*
X186030970Y-127345671D01*
X186020480Y-127367850D01*
X186007868Y-127388893D01*
X185993253Y-127408599D01*
X185976777Y-127426777D01*
X185958599Y-127443253D01*
X185938893Y-127457868D01*
X185917850Y-127470480D01*
X185895671Y-127480970D01*
X185872572Y-127489235D01*
X185848773Y-127495196D01*
X185824505Y-127498796D01*
X185800001Y-127500000D01*
X185149999Y-127500000D01*
X185125495Y-127498796D01*
X185101227Y-127495196D01*
X185077428Y-127489235D01*
X185054329Y-127480970D01*
X185032150Y-127470480D01*
X185011107Y-127457868D01*
X184991401Y-127443253D01*
X184973223Y-127426777D01*
X184956747Y-127408599D01*
X184942132Y-127388893D01*
X184929520Y-127367850D01*
X184919030Y-127345671D01*
X184910765Y-127322572D01*
X184904804Y-127298773D01*
X184901204Y-127274505D01*
X184900000Y-127250001D01*
X184900000Y-126349999D01*
X184901204Y-126325495D01*
X184904804Y-126301227D01*
X184910765Y-126277428D01*
X184919030Y-126254329D01*
X184929520Y-126232150D01*
X184942132Y-126211107D01*
X184956747Y-126191401D01*
X184973223Y-126173223D01*
X184991401Y-126156747D01*
X185011107Y-126142132D01*
X185032150Y-126129520D01*
X185054329Y-126119030D01*
X185077428Y-126110765D01*
X185101227Y-126104804D01*
X185125495Y-126101204D01*
X185149999Y-126100000D01*
X185800001Y-126100000D01*
X185824505Y-126101204D01*
G37*
G04 #@! TD.AperFunction*
G04 #@! TA.AperFunction,SMDPad,CuDef*
G36*
X187874505Y-126101204D02*
G01*
X187898773Y-126104804D01*
X187922572Y-126110765D01*
X187945671Y-126119030D01*
X187967850Y-126129520D01*
X187988893Y-126142132D01*
X188008599Y-126156747D01*
X188026777Y-126173223D01*
X188043253Y-126191401D01*
X188057868Y-126211107D01*
X188070480Y-126232150D01*
X188080970Y-126254329D01*
X188089235Y-126277428D01*
X188095196Y-126301227D01*
X188098796Y-126325495D01*
X188100000Y-126349999D01*
X188100000Y-127250001D01*
X188098796Y-127274505D01*
X188095196Y-127298773D01*
X188089235Y-127322572D01*
X188080970Y-127345671D01*
X188070480Y-127367850D01*
X188057868Y-127388893D01*
X188043253Y-127408599D01*
X188026777Y-127426777D01*
X188008599Y-127443253D01*
X187988893Y-127457868D01*
X187967850Y-127470480D01*
X187945671Y-127480970D01*
X187922572Y-127489235D01*
X187898773Y-127495196D01*
X187874505Y-127498796D01*
X187850001Y-127500000D01*
X187199999Y-127500000D01*
X187175495Y-127498796D01*
X187151227Y-127495196D01*
X187127428Y-127489235D01*
X187104329Y-127480970D01*
X187082150Y-127470480D01*
X187061107Y-127457868D01*
X187041401Y-127443253D01*
X187023223Y-127426777D01*
X187006747Y-127408599D01*
X186992132Y-127388893D01*
X186979520Y-127367850D01*
X186969030Y-127345671D01*
X186960765Y-127322572D01*
X186954804Y-127298773D01*
X186951204Y-127274505D01*
X186950000Y-127250001D01*
X186950000Y-126349999D01*
X186951204Y-126325495D01*
X186954804Y-126301227D01*
X186960765Y-126277428D01*
X186969030Y-126254329D01*
X186979520Y-126232150D01*
X186992132Y-126211107D01*
X187006747Y-126191401D01*
X187023223Y-126173223D01*
X187041401Y-126156747D01*
X187061107Y-126142132D01*
X187082150Y-126129520D01*
X187104329Y-126119030D01*
X187127428Y-126110765D01*
X187151227Y-126104804D01*
X187175495Y-126101204D01*
X187199999Y-126100000D01*
X187850001Y-126100000D01*
X187874505Y-126101204D01*
G37*
G04 #@! TD.AperFunction*
G04 #@! TA.AperFunction,SMDPad,CuDef*
G36*
X184374505Y-120101204D02*
G01*
X184398773Y-120104804D01*
X184422572Y-120110765D01*
X184445671Y-120119030D01*
X184467850Y-120129520D01*
X184488893Y-120142132D01*
X184508599Y-120156747D01*
X184526777Y-120173223D01*
X184543253Y-120191401D01*
X184557868Y-120211107D01*
X184570480Y-120232150D01*
X184580970Y-120254329D01*
X184589235Y-120277428D01*
X184595196Y-120301227D01*
X184598796Y-120325495D01*
X184600000Y-120349999D01*
X184600000Y-121000001D01*
X184598796Y-121024505D01*
X184595196Y-121048773D01*
X184589235Y-121072572D01*
X184580970Y-121095671D01*
X184570480Y-121117850D01*
X184557868Y-121138893D01*
X184543253Y-121158599D01*
X184526777Y-121176777D01*
X184508599Y-121193253D01*
X184488893Y-121207868D01*
X184467850Y-121220480D01*
X184445671Y-121230970D01*
X184422572Y-121239235D01*
X184398773Y-121245196D01*
X184374505Y-121248796D01*
X184350001Y-121250000D01*
X183449999Y-121250000D01*
X183425495Y-121248796D01*
X183401227Y-121245196D01*
X183377428Y-121239235D01*
X183354329Y-121230970D01*
X183332150Y-121220480D01*
X183311107Y-121207868D01*
X183291401Y-121193253D01*
X183273223Y-121176777D01*
X183256747Y-121158599D01*
X183242132Y-121138893D01*
X183229520Y-121117850D01*
X183219030Y-121095671D01*
X183210765Y-121072572D01*
X183204804Y-121048773D01*
X183201204Y-121024505D01*
X183200000Y-121000001D01*
X183200000Y-120349999D01*
X183201204Y-120325495D01*
X183204804Y-120301227D01*
X183210765Y-120277428D01*
X183219030Y-120254329D01*
X183229520Y-120232150D01*
X183242132Y-120211107D01*
X183256747Y-120191401D01*
X183273223Y-120173223D01*
X183291401Y-120156747D01*
X183311107Y-120142132D01*
X183332150Y-120129520D01*
X183354329Y-120119030D01*
X183377428Y-120110765D01*
X183401227Y-120104804D01*
X183425495Y-120101204D01*
X183449999Y-120100000D01*
X184350001Y-120100000D01*
X184374505Y-120101204D01*
G37*
G04 #@! TD.AperFunction*
G04 #@! TA.AperFunction,SMDPad,CuDef*
G36*
X184374505Y-122151204D02*
G01*
X184398773Y-122154804D01*
X184422572Y-122160765D01*
X184445671Y-122169030D01*
X184467850Y-122179520D01*
X184488893Y-122192132D01*
X184508599Y-122206747D01*
X184526777Y-122223223D01*
X184543253Y-122241401D01*
X184557868Y-122261107D01*
X184570480Y-122282150D01*
X184580970Y-122304329D01*
X184589235Y-122327428D01*
X184595196Y-122351227D01*
X184598796Y-122375495D01*
X184600000Y-122399999D01*
X184600000Y-123050001D01*
X184598796Y-123074505D01*
X184595196Y-123098773D01*
X184589235Y-123122572D01*
X184580970Y-123145671D01*
X184570480Y-123167850D01*
X184557868Y-123188893D01*
X184543253Y-123208599D01*
X184526777Y-123226777D01*
X184508599Y-123243253D01*
X184488893Y-123257868D01*
X184467850Y-123270480D01*
X184445671Y-123280970D01*
X184422572Y-123289235D01*
X184398773Y-123295196D01*
X184374505Y-123298796D01*
X184350001Y-123300000D01*
X183449999Y-123300000D01*
X183425495Y-123298796D01*
X183401227Y-123295196D01*
X183377428Y-123289235D01*
X183354329Y-123280970D01*
X183332150Y-123270480D01*
X183311107Y-123257868D01*
X183291401Y-123243253D01*
X183273223Y-123226777D01*
X183256747Y-123208599D01*
X183242132Y-123188893D01*
X183229520Y-123167850D01*
X183219030Y-123145671D01*
X183210765Y-123122572D01*
X183204804Y-123098773D01*
X183201204Y-123074505D01*
X183200000Y-123050001D01*
X183200000Y-122399999D01*
X183201204Y-122375495D01*
X183204804Y-122351227D01*
X183210765Y-122327428D01*
X183219030Y-122304329D01*
X183229520Y-122282150D01*
X183242132Y-122261107D01*
X183256747Y-122241401D01*
X183273223Y-122223223D01*
X183291401Y-122206747D01*
X183311107Y-122192132D01*
X183332150Y-122179520D01*
X183354329Y-122169030D01*
X183377428Y-122160765D01*
X183401227Y-122154804D01*
X183425495Y-122151204D01*
X183449999Y-122150000D01*
X184350001Y-122150000D01*
X184374505Y-122151204D01*
G37*
G04 #@! TD.AperFunction*
G04 #@! TA.AperFunction,SMDPad,CuDef*
G36*
X178874505Y-118001204D02*
G01*
X178898773Y-118004804D01*
X178922572Y-118010765D01*
X178945671Y-118019030D01*
X178967850Y-118029520D01*
X178988893Y-118042132D01*
X179008599Y-118056747D01*
X179026777Y-118073223D01*
X179043253Y-118091401D01*
X179057868Y-118111107D01*
X179070480Y-118132150D01*
X179080970Y-118154329D01*
X179089235Y-118177428D01*
X179095196Y-118201227D01*
X179098796Y-118225495D01*
X179100000Y-118249999D01*
X179100000Y-118900001D01*
X179098796Y-118924505D01*
X179095196Y-118948773D01*
X179089235Y-118972572D01*
X179080970Y-118995671D01*
X179070480Y-119017850D01*
X179057868Y-119038893D01*
X179043253Y-119058599D01*
X179026777Y-119076777D01*
X179008599Y-119093253D01*
X178988893Y-119107868D01*
X178967850Y-119120480D01*
X178945671Y-119130970D01*
X178922572Y-119139235D01*
X178898773Y-119145196D01*
X178874505Y-119148796D01*
X178850001Y-119150000D01*
X177949999Y-119150000D01*
X177925495Y-119148796D01*
X177901227Y-119145196D01*
X177877428Y-119139235D01*
X177854329Y-119130970D01*
X177832150Y-119120480D01*
X177811107Y-119107868D01*
X177791401Y-119093253D01*
X177773223Y-119076777D01*
X177756747Y-119058599D01*
X177742132Y-119038893D01*
X177729520Y-119017850D01*
X177719030Y-118995671D01*
X177710765Y-118972572D01*
X177704804Y-118948773D01*
X177701204Y-118924505D01*
X177700000Y-118900001D01*
X177700000Y-118249999D01*
X177701204Y-118225495D01*
X177704804Y-118201227D01*
X177710765Y-118177428D01*
X177719030Y-118154329D01*
X177729520Y-118132150D01*
X177742132Y-118111107D01*
X177756747Y-118091401D01*
X177773223Y-118073223D01*
X177791401Y-118056747D01*
X177811107Y-118042132D01*
X177832150Y-118029520D01*
X177854329Y-118019030D01*
X177877428Y-118010765D01*
X177901227Y-118004804D01*
X177925495Y-118001204D01*
X177949999Y-118000000D01*
X178850001Y-118000000D01*
X178874505Y-118001204D01*
G37*
G04 #@! TD.AperFunction*
G04 #@! TA.AperFunction,SMDPad,CuDef*
G36*
X178874505Y-120051204D02*
G01*
X178898773Y-120054804D01*
X178922572Y-120060765D01*
X178945671Y-120069030D01*
X178967850Y-120079520D01*
X178988893Y-120092132D01*
X179008599Y-120106747D01*
X179026777Y-120123223D01*
X179043253Y-120141401D01*
X179057868Y-120161107D01*
X179070480Y-120182150D01*
X179080970Y-120204329D01*
X179089235Y-120227428D01*
X179095196Y-120251227D01*
X179098796Y-120275495D01*
X179100000Y-120299999D01*
X179100000Y-120950001D01*
X179098796Y-120974505D01*
X179095196Y-120998773D01*
X179089235Y-121022572D01*
X179080970Y-121045671D01*
X179070480Y-121067850D01*
X179057868Y-121088893D01*
X179043253Y-121108599D01*
X179026777Y-121126777D01*
X179008599Y-121143253D01*
X178988893Y-121157868D01*
X178967850Y-121170480D01*
X178945671Y-121180970D01*
X178922572Y-121189235D01*
X178898773Y-121195196D01*
X178874505Y-121198796D01*
X178850001Y-121200000D01*
X177949999Y-121200000D01*
X177925495Y-121198796D01*
X177901227Y-121195196D01*
X177877428Y-121189235D01*
X177854329Y-121180970D01*
X177832150Y-121170480D01*
X177811107Y-121157868D01*
X177791401Y-121143253D01*
X177773223Y-121126777D01*
X177756747Y-121108599D01*
X177742132Y-121088893D01*
X177729520Y-121067850D01*
X177719030Y-121045671D01*
X177710765Y-121022572D01*
X177704804Y-120998773D01*
X177701204Y-120974505D01*
X177700000Y-120950001D01*
X177700000Y-120299999D01*
X177701204Y-120275495D01*
X177704804Y-120251227D01*
X177710765Y-120227428D01*
X177719030Y-120204329D01*
X177729520Y-120182150D01*
X177742132Y-120161107D01*
X177756747Y-120141401D01*
X177773223Y-120123223D01*
X177791401Y-120106747D01*
X177811107Y-120092132D01*
X177832150Y-120079520D01*
X177854329Y-120069030D01*
X177877428Y-120060765D01*
X177901227Y-120054804D01*
X177925495Y-120051204D01*
X177949999Y-120050000D01*
X178850001Y-120050000D01*
X178874505Y-120051204D01*
G37*
G04 #@! TD.AperFunction*
G04 #@! TA.AperFunction,SMDPad,CuDef*
G36*
X176474505Y-110826204D02*
G01*
X176498773Y-110829804D01*
X176522572Y-110835765D01*
X176545671Y-110844030D01*
X176567850Y-110854520D01*
X176588893Y-110867132D01*
X176608599Y-110881747D01*
X176626777Y-110898223D01*
X176643253Y-110916401D01*
X176657868Y-110936107D01*
X176670480Y-110957150D01*
X176680970Y-110979329D01*
X176689235Y-111002428D01*
X176695196Y-111026227D01*
X176698796Y-111050495D01*
X176700000Y-111074999D01*
X176700000Y-111725001D01*
X176698796Y-111749505D01*
X176695196Y-111773773D01*
X176689235Y-111797572D01*
X176680970Y-111820671D01*
X176670480Y-111842850D01*
X176657868Y-111863893D01*
X176643253Y-111883599D01*
X176626777Y-111901777D01*
X176608599Y-111918253D01*
X176588893Y-111932868D01*
X176567850Y-111945480D01*
X176545671Y-111955970D01*
X176522572Y-111964235D01*
X176498773Y-111970196D01*
X176474505Y-111973796D01*
X176450001Y-111975000D01*
X175549999Y-111975000D01*
X175525495Y-111973796D01*
X175501227Y-111970196D01*
X175477428Y-111964235D01*
X175454329Y-111955970D01*
X175432150Y-111945480D01*
X175411107Y-111932868D01*
X175391401Y-111918253D01*
X175373223Y-111901777D01*
X175356747Y-111883599D01*
X175342132Y-111863893D01*
X175329520Y-111842850D01*
X175319030Y-111820671D01*
X175310765Y-111797572D01*
X175304804Y-111773773D01*
X175301204Y-111749505D01*
X175300000Y-111725001D01*
X175300000Y-111074999D01*
X175301204Y-111050495D01*
X175304804Y-111026227D01*
X175310765Y-111002428D01*
X175319030Y-110979329D01*
X175329520Y-110957150D01*
X175342132Y-110936107D01*
X175356747Y-110916401D01*
X175373223Y-110898223D01*
X175391401Y-110881747D01*
X175411107Y-110867132D01*
X175432150Y-110854520D01*
X175454329Y-110844030D01*
X175477428Y-110835765D01*
X175501227Y-110829804D01*
X175525495Y-110826204D01*
X175549999Y-110825000D01*
X176450001Y-110825000D01*
X176474505Y-110826204D01*
G37*
G04 #@! TD.AperFunction*
G04 #@! TA.AperFunction,SMDPad,CuDef*
G36*
X176474505Y-112876204D02*
G01*
X176498773Y-112879804D01*
X176522572Y-112885765D01*
X176545671Y-112894030D01*
X176567850Y-112904520D01*
X176588893Y-112917132D01*
X176608599Y-112931747D01*
X176626777Y-112948223D01*
X176643253Y-112966401D01*
X176657868Y-112986107D01*
X176670480Y-113007150D01*
X176680970Y-113029329D01*
X176689235Y-113052428D01*
X176695196Y-113076227D01*
X176698796Y-113100495D01*
X176700000Y-113124999D01*
X176700000Y-113775001D01*
X176698796Y-113799505D01*
X176695196Y-113823773D01*
X176689235Y-113847572D01*
X176680970Y-113870671D01*
X176670480Y-113892850D01*
X176657868Y-113913893D01*
X176643253Y-113933599D01*
X176626777Y-113951777D01*
X176608599Y-113968253D01*
X176588893Y-113982868D01*
X176567850Y-113995480D01*
X176545671Y-114005970D01*
X176522572Y-114014235D01*
X176498773Y-114020196D01*
X176474505Y-114023796D01*
X176450001Y-114025000D01*
X175549999Y-114025000D01*
X175525495Y-114023796D01*
X175501227Y-114020196D01*
X175477428Y-114014235D01*
X175454329Y-114005970D01*
X175432150Y-113995480D01*
X175411107Y-113982868D01*
X175391401Y-113968253D01*
X175373223Y-113951777D01*
X175356747Y-113933599D01*
X175342132Y-113913893D01*
X175329520Y-113892850D01*
X175319030Y-113870671D01*
X175310765Y-113847572D01*
X175304804Y-113823773D01*
X175301204Y-113799505D01*
X175300000Y-113775001D01*
X175300000Y-113124999D01*
X175301204Y-113100495D01*
X175304804Y-113076227D01*
X175310765Y-113052428D01*
X175319030Y-113029329D01*
X175329520Y-113007150D01*
X175342132Y-112986107D01*
X175356747Y-112966401D01*
X175373223Y-112948223D01*
X175391401Y-112931747D01*
X175411107Y-112917132D01*
X175432150Y-112904520D01*
X175454329Y-112894030D01*
X175477428Y-112885765D01*
X175501227Y-112879804D01*
X175525495Y-112876204D01*
X175549999Y-112875000D01*
X176450001Y-112875000D01*
X176474505Y-112876204D01*
G37*
G04 #@! TD.AperFunction*
G04 #@! TA.AperFunction,SMDPad,CuDef*
G36*
X183999505Y-108801204D02*
G01*
X184023773Y-108804804D01*
X184047572Y-108810765D01*
X184070671Y-108819030D01*
X184092850Y-108829520D01*
X184113893Y-108842132D01*
X184133599Y-108856747D01*
X184151777Y-108873223D01*
X184168253Y-108891401D01*
X184182868Y-108911107D01*
X184195480Y-108932150D01*
X184205970Y-108954329D01*
X184214235Y-108977428D01*
X184220196Y-109001227D01*
X184223796Y-109025495D01*
X184225000Y-109049999D01*
X184225000Y-109950001D01*
X184223796Y-109974505D01*
X184220196Y-109998773D01*
X184214235Y-110022572D01*
X184205970Y-110045671D01*
X184195480Y-110067850D01*
X184182868Y-110088893D01*
X184168253Y-110108599D01*
X184151777Y-110126777D01*
X184133599Y-110143253D01*
X184113893Y-110157868D01*
X184092850Y-110170480D01*
X184070671Y-110180970D01*
X184047572Y-110189235D01*
X184023773Y-110195196D01*
X183999505Y-110198796D01*
X183975001Y-110200000D01*
X183324999Y-110200000D01*
X183300495Y-110198796D01*
X183276227Y-110195196D01*
X183252428Y-110189235D01*
X183229329Y-110180970D01*
X183207150Y-110170480D01*
X183186107Y-110157868D01*
X183166401Y-110143253D01*
X183148223Y-110126777D01*
X183131747Y-110108599D01*
X183117132Y-110088893D01*
X183104520Y-110067850D01*
X183094030Y-110045671D01*
X183085765Y-110022572D01*
X183079804Y-109998773D01*
X183076204Y-109974505D01*
X183075000Y-109950001D01*
X183075000Y-109049999D01*
X183076204Y-109025495D01*
X183079804Y-109001227D01*
X183085765Y-108977428D01*
X183094030Y-108954329D01*
X183104520Y-108932150D01*
X183117132Y-108911107D01*
X183131747Y-108891401D01*
X183148223Y-108873223D01*
X183166401Y-108856747D01*
X183186107Y-108842132D01*
X183207150Y-108829520D01*
X183229329Y-108819030D01*
X183252428Y-108810765D01*
X183276227Y-108804804D01*
X183300495Y-108801204D01*
X183324999Y-108800000D01*
X183975001Y-108800000D01*
X183999505Y-108801204D01*
G37*
G04 #@! TD.AperFunction*
G04 #@! TA.AperFunction,SMDPad,CuDef*
G36*
X181949505Y-108801204D02*
G01*
X181973773Y-108804804D01*
X181997572Y-108810765D01*
X182020671Y-108819030D01*
X182042850Y-108829520D01*
X182063893Y-108842132D01*
X182083599Y-108856747D01*
X182101777Y-108873223D01*
X182118253Y-108891401D01*
X182132868Y-108911107D01*
X182145480Y-108932150D01*
X182155970Y-108954329D01*
X182164235Y-108977428D01*
X182170196Y-109001227D01*
X182173796Y-109025495D01*
X182175000Y-109049999D01*
X182175000Y-109950001D01*
X182173796Y-109974505D01*
X182170196Y-109998773D01*
X182164235Y-110022572D01*
X182155970Y-110045671D01*
X182145480Y-110067850D01*
X182132868Y-110088893D01*
X182118253Y-110108599D01*
X182101777Y-110126777D01*
X182083599Y-110143253D01*
X182063893Y-110157868D01*
X182042850Y-110170480D01*
X182020671Y-110180970D01*
X181997572Y-110189235D01*
X181973773Y-110195196D01*
X181949505Y-110198796D01*
X181925001Y-110200000D01*
X181274999Y-110200000D01*
X181250495Y-110198796D01*
X181226227Y-110195196D01*
X181202428Y-110189235D01*
X181179329Y-110180970D01*
X181157150Y-110170480D01*
X181136107Y-110157868D01*
X181116401Y-110143253D01*
X181098223Y-110126777D01*
X181081747Y-110108599D01*
X181067132Y-110088893D01*
X181054520Y-110067850D01*
X181044030Y-110045671D01*
X181035765Y-110022572D01*
X181029804Y-109998773D01*
X181026204Y-109974505D01*
X181025000Y-109950001D01*
X181025000Y-109049999D01*
X181026204Y-109025495D01*
X181029804Y-109001227D01*
X181035765Y-108977428D01*
X181044030Y-108954329D01*
X181054520Y-108932150D01*
X181067132Y-108911107D01*
X181081747Y-108891401D01*
X181098223Y-108873223D01*
X181116401Y-108856747D01*
X181136107Y-108842132D01*
X181157150Y-108829520D01*
X181179329Y-108819030D01*
X181202428Y-108810765D01*
X181226227Y-108804804D01*
X181250495Y-108801204D01*
X181274999Y-108800000D01*
X181925001Y-108800000D01*
X181949505Y-108801204D01*
G37*
G04 #@! TD.AperFunction*
G04 #@! TA.AperFunction,SMDPad,CuDef*
G36*
X184274505Y-102801204D02*
G01*
X184298773Y-102804804D01*
X184322572Y-102810765D01*
X184345671Y-102819030D01*
X184367850Y-102829520D01*
X184388893Y-102842132D01*
X184408599Y-102856747D01*
X184426777Y-102873223D01*
X184443253Y-102891401D01*
X184457868Y-102911107D01*
X184470480Y-102932150D01*
X184480970Y-102954329D01*
X184489235Y-102977428D01*
X184495196Y-103001227D01*
X184498796Y-103025495D01*
X184500000Y-103049999D01*
X184500000Y-103950001D01*
X184498796Y-103974505D01*
X184495196Y-103998773D01*
X184489235Y-104022572D01*
X184480970Y-104045671D01*
X184470480Y-104067850D01*
X184457868Y-104088893D01*
X184443253Y-104108599D01*
X184426777Y-104126777D01*
X184408599Y-104143253D01*
X184388893Y-104157868D01*
X184367850Y-104170480D01*
X184345671Y-104180970D01*
X184322572Y-104189235D01*
X184298773Y-104195196D01*
X184274505Y-104198796D01*
X184250001Y-104200000D01*
X183599999Y-104200000D01*
X183575495Y-104198796D01*
X183551227Y-104195196D01*
X183527428Y-104189235D01*
X183504329Y-104180970D01*
X183482150Y-104170480D01*
X183461107Y-104157868D01*
X183441401Y-104143253D01*
X183423223Y-104126777D01*
X183406747Y-104108599D01*
X183392132Y-104088893D01*
X183379520Y-104067850D01*
X183369030Y-104045671D01*
X183360765Y-104022572D01*
X183354804Y-103998773D01*
X183351204Y-103974505D01*
X183350000Y-103950001D01*
X183350000Y-103049999D01*
X183351204Y-103025495D01*
X183354804Y-103001227D01*
X183360765Y-102977428D01*
X183369030Y-102954329D01*
X183379520Y-102932150D01*
X183392132Y-102911107D01*
X183406747Y-102891401D01*
X183423223Y-102873223D01*
X183441401Y-102856747D01*
X183461107Y-102842132D01*
X183482150Y-102829520D01*
X183504329Y-102819030D01*
X183527428Y-102810765D01*
X183551227Y-102804804D01*
X183575495Y-102801204D01*
X183599999Y-102800000D01*
X184250001Y-102800000D01*
X184274505Y-102801204D01*
G37*
G04 #@! TD.AperFunction*
G04 #@! TA.AperFunction,SMDPad,CuDef*
G36*
X182224505Y-102801204D02*
G01*
X182248773Y-102804804D01*
X182272572Y-102810765D01*
X182295671Y-102819030D01*
X182317850Y-102829520D01*
X182338893Y-102842132D01*
X182358599Y-102856747D01*
X182376777Y-102873223D01*
X182393253Y-102891401D01*
X182407868Y-102911107D01*
X182420480Y-102932150D01*
X182430970Y-102954329D01*
X182439235Y-102977428D01*
X182445196Y-103001227D01*
X182448796Y-103025495D01*
X182450000Y-103049999D01*
X182450000Y-103950001D01*
X182448796Y-103974505D01*
X182445196Y-103998773D01*
X182439235Y-104022572D01*
X182430970Y-104045671D01*
X182420480Y-104067850D01*
X182407868Y-104088893D01*
X182393253Y-104108599D01*
X182376777Y-104126777D01*
X182358599Y-104143253D01*
X182338893Y-104157868D01*
X182317850Y-104170480D01*
X182295671Y-104180970D01*
X182272572Y-104189235D01*
X182248773Y-104195196D01*
X182224505Y-104198796D01*
X182200001Y-104200000D01*
X181549999Y-104200000D01*
X181525495Y-104198796D01*
X181501227Y-104195196D01*
X181477428Y-104189235D01*
X181454329Y-104180970D01*
X181432150Y-104170480D01*
X181411107Y-104157868D01*
X181391401Y-104143253D01*
X181373223Y-104126777D01*
X181356747Y-104108599D01*
X181342132Y-104088893D01*
X181329520Y-104067850D01*
X181319030Y-104045671D01*
X181310765Y-104022572D01*
X181304804Y-103998773D01*
X181301204Y-103974505D01*
X181300000Y-103950001D01*
X181300000Y-103049999D01*
X181301204Y-103025495D01*
X181304804Y-103001227D01*
X181310765Y-102977428D01*
X181319030Y-102954329D01*
X181329520Y-102932150D01*
X181342132Y-102911107D01*
X181356747Y-102891401D01*
X181373223Y-102873223D01*
X181391401Y-102856747D01*
X181411107Y-102842132D01*
X181432150Y-102829520D01*
X181454329Y-102819030D01*
X181477428Y-102810765D01*
X181501227Y-102804804D01*
X181525495Y-102801204D01*
X181549999Y-102800000D01*
X182200001Y-102800000D01*
X182224505Y-102801204D01*
G37*
G04 #@! TD.AperFunction*
G04 #@! TA.AperFunction,SMDPad,CuDef*
G36*
X201074505Y-107076204D02*
G01*
X201098773Y-107079804D01*
X201122572Y-107085765D01*
X201145671Y-107094030D01*
X201167850Y-107104520D01*
X201188893Y-107117132D01*
X201208599Y-107131747D01*
X201226777Y-107148223D01*
X201243253Y-107166401D01*
X201257868Y-107186107D01*
X201270480Y-107207150D01*
X201280970Y-107229329D01*
X201289235Y-107252428D01*
X201295196Y-107276227D01*
X201298796Y-107300495D01*
X201300000Y-107324999D01*
X201300000Y-107975001D01*
X201298796Y-107999505D01*
X201295196Y-108023773D01*
X201289235Y-108047572D01*
X201280970Y-108070671D01*
X201270480Y-108092850D01*
X201257868Y-108113893D01*
X201243253Y-108133599D01*
X201226777Y-108151777D01*
X201208599Y-108168253D01*
X201188893Y-108182868D01*
X201167850Y-108195480D01*
X201145671Y-108205970D01*
X201122572Y-108214235D01*
X201098773Y-108220196D01*
X201074505Y-108223796D01*
X201050001Y-108225000D01*
X200149999Y-108225000D01*
X200125495Y-108223796D01*
X200101227Y-108220196D01*
X200077428Y-108214235D01*
X200054329Y-108205970D01*
X200032150Y-108195480D01*
X200011107Y-108182868D01*
X199991401Y-108168253D01*
X199973223Y-108151777D01*
X199956747Y-108133599D01*
X199942132Y-108113893D01*
X199929520Y-108092850D01*
X199919030Y-108070671D01*
X199910765Y-108047572D01*
X199904804Y-108023773D01*
X199901204Y-107999505D01*
X199900000Y-107975001D01*
X199900000Y-107324999D01*
X199901204Y-107300495D01*
X199904804Y-107276227D01*
X199910765Y-107252428D01*
X199919030Y-107229329D01*
X199929520Y-107207150D01*
X199942132Y-107186107D01*
X199956747Y-107166401D01*
X199973223Y-107148223D01*
X199991401Y-107131747D01*
X200011107Y-107117132D01*
X200032150Y-107104520D01*
X200054329Y-107094030D01*
X200077428Y-107085765D01*
X200101227Y-107079804D01*
X200125495Y-107076204D01*
X200149999Y-107075000D01*
X201050001Y-107075000D01*
X201074505Y-107076204D01*
G37*
G04 #@! TD.AperFunction*
G04 #@! TA.AperFunction,SMDPad,CuDef*
G36*
X201074505Y-105026204D02*
G01*
X201098773Y-105029804D01*
X201122572Y-105035765D01*
X201145671Y-105044030D01*
X201167850Y-105054520D01*
X201188893Y-105067132D01*
X201208599Y-105081747D01*
X201226777Y-105098223D01*
X201243253Y-105116401D01*
X201257868Y-105136107D01*
X201270480Y-105157150D01*
X201280970Y-105179329D01*
X201289235Y-105202428D01*
X201295196Y-105226227D01*
X201298796Y-105250495D01*
X201300000Y-105274999D01*
X201300000Y-105925001D01*
X201298796Y-105949505D01*
X201295196Y-105973773D01*
X201289235Y-105997572D01*
X201280970Y-106020671D01*
X201270480Y-106042850D01*
X201257868Y-106063893D01*
X201243253Y-106083599D01*
X201226777Y-106101777D01*
X201208599Y-106118253D01*
X201188893Y-106132868D01*
X201167850Y-106145480D01*
X201145671Y-106155970D01*
X201122572Y-106164235D01*
X201098773Y-106170196D01*
X201074505Y-106173796D01*
X201050001Y-106175000D01*
X200149999Y-106175000D01*
X200125495Y-106173796D01*
X200101227Y-106170196D01*
X200077428Y-106164235D01*
X200054329Y-106155970D01*
X200032150Y-106145480D01*
X200011107Y-106132868D01*
X199991401Y-106118253D01*
X199973223Y-106101777D01*
X199956747Y-106083599D01*
X199942132Y-106063893D01*
X199929520Y-106042850D01*
X199919030Y-106020671D01*
X199910765Y-105997572D01*
X199904804Y-105973773D01*
X199901204Y-105949505D01*
X199900000Y-105925001D01*
X199900000Y-105274999D01*
X199901204Y-105250495D01*
X199904804Y-105226227D01*
X199910765Y-105202428D01*
X199919030Y-105179329D01*
X199929520Y-105157150D01*
X199942132Y-105136107D01*
X199956747Y-105116401D01*
X199973223Y-105098223D01*
X199991401Y-105081747D01*
X200011107Y-105067132D01*
X200032150Y-105054520D01*
X200054329Y-105044030D01*
X200077428Y-105035765D01*
X200101227Y-105029804D01*
X200125495Y-105026204D01*
X200149999Y-105025000D01*
X201050001Y-105025000D01*
X201074505Y-105026204D01*
G37*
G04 #@! TD.AperFunction*
G04 #@! TA.AperFunction,SMDPad,CuDef*
G36*
X197174505Y-101401204D02*
G01*
X197198773Y-101404804D01*
X197222572Y-101410765D01*
X197245671Y-101419030D01*
X197267850Y-101429520D01*
X197288893Y-101442132D01*
X197308599Y-101456747D01*
X197326777Y-101473223D01*
X197343253Y-101491401D01*
X197357868Y-101511107D01*
X197370480Y-101532150D01*
X197380970Y-101554329D01*
X197389235Y-101577428D01*
X197395196Y-101601227D01*
X197398796Y-101625495D01*
X197400000Y-101649999D01*
X197400000Y-102550001D01*
X197398796Y-102574505D01*
X197395196Y-102598773D01*
X197389235Y-102622572D01*
X197380970Y-102645671D01*
X197370480Y-102667850D01*
X197357868Y-102688893D01*
X197343253Y-102708599D01*
X197326777Y-102726777D01*
X197308599Y-102743253D01*
X197288893Y-102757868D01*
X197267850Y-102770480D01*
X197245671Y-102780970D01*
X197222572Y-102789235D01*
X197198773Y-102795196D01*
X197174505Y-102798796D01*
X197150001Y-102800000D01*
X196499999Y-102800000D01*
X196475495Y-102798796D01*
X196451227Y-102795196D01*
X196427428Y-102789235D01*
X196404329Y-102780970D01*
X196382150Y-102770480D01*
X196361107Y-102757868D01*
X196341401Y-102743253D01*
X196323223Y-102726777D01*
X196306747Y-102708599D01*
X196292132Y-102688893D01*
X196279520Y-102667850D01*
X196269030Y-102645671D01*
X196260765Y-102622572D01*
X196254804Y-102598773D01*
X196251204Y-102574505D01*
X196250000Y-102550001D01*
X196250000Y-101649999D01*
X196251204Y-101625495D01*
X196254804Y-101601227D01*
X196260765Y-101577428D01*
X196269030Y-101554329D01*
X196279520Y-101532150D01*
X196292132Y-101511107D01*
X196306747Y-101491401D01*
X196323223Y-101473223D01*
X196341401Y-101456747D01*
X196361107Y-101442132D01*
X196382150Y-101429520D01*
X196404329Y-101419030D01*
X196427428Y-101410765D01*
X196451227Y-101404804D01*
X196475495Y-101401204D01*
X196499999Y-101400000D01*
X197150001Y-101400000D01*
X197174505Y-101401204D01*
G37*
G04 #@! TD.AperFunction*
G04 #@! TA.AperFunction,SMDPad,CuDef*
G36*
X195124505Y-101401204D02*
G01*
X195148773Y-101404804D01*
X195172572Y-101410765D01*
X195195671Y-101419030D01*
X195217850Y-101429520D01*
X195238893Y-101442132D01*
X195258599Y-101456747D01*
X195276777Y-101473223D01*
X195293253Y-101491401D01*
X195307868Y-101511107D01*
X195320480Y-101532150D01*
X195330970Y-101554329D01*
X195339235Y-101577428D01*
X195345196Y-101601227D01*
X195348796Y-101625495D01*
X195350000Y-101649999D01*
X195350000Y-102550001D01*
X195348796Y-102574505D01*
X195345196Y-102598773D01*
X195339235Y-102622572D01*
X195330970Y-102645671D01*
X195320480Y-102667850D01*
X195307868Y-102688893D01*
X195293253Y-102708599D01*
X195276777Y-102726777D01*
X195258599Y-102743253D01*
X195238893Y-102757868D01*
X195217850Y-102770480D01*
X195195671Y-102780970D01*
X195172572Y-102789235D01*
X195148773Y-102795196D01*
X195124505Y-102798796D01*
X195100001Y-102800000D01*
X194449999Y-102800000D01*
X194425495Y-102798796D01*
X194401227Y-102795196D01*
X194377428Y-102789235D01*
X194354329Y-102780970D01*
X194332150Y-102770480D01*
X194311107Y-102757868D01*
X194291401Y-102743253D01*
X194273223Y-102726777D01*
X194256747Y-102708599D01*
X194242132Y-102688893D01*
X194229520Y-102667850D01*
X194219030Y-102645671D01*
X194210765Y-102622572D01*
X194204804Y-102598773D01*
X194201204Y-102574505D01*
X194200000Y-102550001D01*
X194200000Y-101649999D01*
X194201204Y-101625495D01*
X194204804Y-101601227D01*
X194210765Y-101577428D01*
X194219030Y-101554329D01*
X194229520Y-101532150D01*
X194242132Y-101511107D01*
X194256747Y-101491401D01*
X194273223Y-101473223D01*
X194291401Y-101456747D01*
X194311107Y-101442132D01*
X194332150Y-101429520D01*
X194354329Y-101419030D01*
X194377428Y-101410765D01*
X194401227Y-101404804D01*
X194425495Y-101401204D01*
X194449999Y-101400000D01*
X195100001Y-101400000D01*
X195124505Y-101401204D01*
G37*
G04 #@! TD.AperFunction*
G04 #@! TA.AperFunction,SMDPad,CuDef*
G36*
X187024505Y-99101204D02*
G01*
X187048773Y-99104804D01*
X187072572Y-99110765D01*
X187095671Y-99119030D01*
X187117850Y-99129520D01*
X187138893Y-99142132D01*
X187158599Y-99156747D01*
X187176777Y-99173223D01*
X187193253Y-99191401D01*
X187207868Y-99211107D01*
X187220480Y-99232150D01*
X187230970Y-99254329D01*
X187239235Y-99277428D01*
X187245196Y-99301227D01*
X187248796Y-99325495D01*
X187250000Y-99349999D01*
X187250000Y-100250001D01*
X187248796Y-100274505D01*
X187245196Y-100298773D01*
X187239235Y-100322572D01*
X187230970Y-100345671D01*
X187220480Y-100367850D01*
X187207868Y-100388893D01*
X187193253Y-100408599D01*
X187176777Y-100426777D01*
X187158599Y-100443253D01*
X187138893Y-100457868D01*
X187117850Y-100470480D01*
X187095671Y-100480970D01*
X187072572Y-100489235D01*
X187048773Y-100495196D01*
X187024505Y-100498796D01*
X187000001Y-100500000D01*
X186349999Y-100500000D01*
X186325495Y-100498796D01*
X186301227Y-100495196D01*
X186277428Y-100489235D01*
X186254329Y-100480970D01*
X186232150Y-100470480D01*
X186211107Y-100457868D01*
X186191401Y-100443253D01*
X186173223Y-100426777D01*
X186156747Y-100408599D01*
X186142132Y-100388893D01*
X186129520Y-100367850D01*
X186119030Y-100345671D01*
X186110765Y-100322572D01*
X186104804Y-100298773D01*
X186101204Y-100274505D01*
X186100000Y-100250001D01*
X186100000Y-99349999D01*
X186101204Y-99325495D01*
X186104804Y-99301227D01*
X186110765Y-99277428D01*
X186119030Y-99254329D01*
X186129520Y-99232150D01*
X186142132Y-99211107D01*
X186156747Y-99191401D01*
X186173223Y-99173223D01*
X186191401Y-99156747D01*
X186211107Y-99142132D01*
X186232150Y-99129520D01*
X186254329Y-99119030D01*
X186277428Y-99110765D01*
X186301227Y-99104804D01*
X186325495Y-99101204D01*
X186349999Y-99100000D01*
X187000001Y-99100000D01*
X187024505Y-99101204D01*
G37*
G04 #@! TD.AperFunction*
G04 #@! TA.AperFunction,SMDPad,CuDef*
G36*
X189074505Y-99101204D02*
G01*
X189098773Y-99104804D01*
X189122572Y-99110765D01*
X189145671Y-99119030D01*
X189167850Y-99129520D01*
X189188893Y-99142132D01*
X189208599Y-99156747D01*
X189226777Y-99173223D01*
X189243253Y-99191401D01*
X189257868Y-99211107D01*
X189270480Y-99232150D01*
X189280970Y-99254329D01*
X189289235Y-99277428D01*
X189295196Y-99301227D01*
X189298796Y-99325495D01*
X189300000Y-99349999D01*
X189300000Y-100250001D01*
X189298796Y-100274505D01*
X189295196Y-100298773D01*
X189289235Y-100322572D01*
X189280970Y-100345671D01*
X189270480Y-100367850D01*
X189257868Y-100388893D01*
X189243253Y-100408599D01*
X189226777Y-100426777D01*
X189208599Y-100443253D01*
X189188893Y-100457868D01*
X189167850Y-100470480D01*
X189145671Y-100480970D01*
X189122572Y-100489235D01*
X189098773Y-100495196D01*
X189074505Y-100498796D01*
X189050001Y-100500000D01*
X188399999Y-100500000D01*
X188375495Y-100498796D01*
X188351227Y-100495196D01*
X188327428Y-100489235D01*
X188304329Y-100480970D01*
X188282150Y-100470480D01*
X188261107Y-100457868D01*
X188241401Y-100443253D01*
X188223223Y-100426777D01*
X188206747Y-100408599D01*
X188192132Y-100388893D01*
X188179520Y-100367850D01*
X188169030Y-100345671D01*
X188160765Y-100322572D01*
X188154804Y-100298773D01*
X188151204Y-100274505D01*
X188150000Y-100250001D01*
X188150000Y-99349999D01*
X188151204Y-99325495D01*
X188154804Y-99301227D01*
X188160765Y-99277428D01*
X188169030Y-99254329D01*
X188179520Y-99232150D01*
X188192132Y-99211107D01*
X188206747Y-99191401D01*
X188223223Y-99173223D01*
X188241401Y-99156747D01*
X188261107Y-99142132D01*
X188282150Y-99129520D01*
X188304329Y-99119030D01*
X188327428Y-99110765D01*
X188351227Y-99104804D01*
X188375495Y-99101204D01*
X188399999Y-99100000D01*
X189050001Y-99100000D01*
X189074505Y-99101204D01*
G37*
G04 #@! TD.AperFunction*
G04 #@! TA.AperFunction,SMDPad,CuDef*
G36*
X200449505Y-124801204D02*
G01*
X200473773Y-124804804D01*
X200497572Y-124810765D01*
X200520671Y-124819030D01*
X200542850Y-124829520D01*
X200563893Y-124842132D01*
X200583599Y-124856747D01*
X200601777Y-124873223D01*
X200618253Y-124891401D01*
X200632868Y-124911107D01*
X200645480Y-124932150D01*
X200655970Y-124954329D01*
X200664235Y-124977428D01*
X200670196Y-125001227D01*
X200673796Y-125025495D01*
X200675000Y-125049999D01*
X200675000Y-125950001D01*
X200673796Y-125974505D01*
X200670196Y-125998773D01*
X200664235Y-126022572D01*
X200655970Y-126045671D01*
X200645480Y-126067850D01*
X200632868Y-126088893D01*
X200618253Y-126108599D01*
X200601777Y-126126777D01*
X200583599Y-126143253D01*
X200563893Y-126157868D01*
X200542850Y-126170480D01*
X200520671Y-126180970D01*
X200497572Y-126189235D01*
X200473773Y-126195196D01*
X200449505Y-126198796D01*
X200425001Y-126200000D01*
X199774999Y-126200000D01*
X199750495Y-126198796D01*
X199726227Y-126195196D01*
X199702428Y-126189235D01*
X199679329Y-126180970D01*
X199657150Y-126170480D01*
X199636107Y-126157868D01*
X199616401Y-126143253D01*
X199598223Y-126126777D01*
X199581747Y-126108599D01*
X199567132Y-126088893D01*
X199554520Y-126067850D01*
X199544030Y-126045671D01*
X199535765Y-126022572D01*
X199529804Y-125998773D01*
X199526204Y-125974505D01*
X199525000Y-125950001D01*
X199525000Y-125049999D01*
X199526204Y-125025495D01*
X199529804Y-125001227D01*
X199535765Y-124977428D01*
X199544030Y-124954329D01*
X199554520Y-124932150D01*
X199567132Y-124911107D01*
X199581747Y-124891401D01*
X199598223Y-124873223D01*
X199616401Y-124856747D01*
X199636107Y-124842132D01*
X199657150Y-124829520D01*
X199679329Y-124819030D01*
X199702428Y-124810765D01*
X199726227Y-124804804D01*
X199750495Y-124801204D01*
X199774999Y-124800000D01*
X200425001Y-124800000D01*
X200449505Y-124801204D01*
G37*
G04 #@! TD.AperFunction*
G04 #@! TA.AperFunction,SMDPad,CuDef*
G36*
X198399505Y-124801204D02*
G01*
X198423773Y-124804804D01*
X198447572Y-124810765D01*
X198470671Y-124819030D01*
X198492850Y-124829520D01*
X198513893Y-124842132D01*
X198533599Y-124856747D01*
X198551777Y-124873223D01*
X198568253Y-124891401D01*
X198582868Y-124911107D01*
X198595480Y-124932150D01*
X198605970Y-124954329D01*
X198614235Y-124977428D01*
X198620196Y-125001227D01*
X198623796Y-125025495D01*
X198625000Y-125049999D01*
X198625000Y-125950001D01*
X198623796Y-125974505D01*
X198620196Y-125998773D01*
X198614235Y-126022572D01*
X198605970Y-126045671D01*
X198595480Y-126067850D01*
X198582868Y-126088893D01*
X198568253Y-126108599D01*
X198551777Y-126126777D01*
X198533599Y-126143253D01*
X198513893Y-126157868D01*
X198492850Y-126170480D01*
X198470671Y-126180970D01*
X198447572Y-126189235D01*
X198423773Y-126195196D01*
X198399505Y-126198796D01*
X198375001Y-126200000D01*
X197724999Y-126200000D01*
X197700495Y-126198796D01*
X197676227Y-126195196D01*
X197652428Y-126189235D01*
X197629329Y-126180970D01*
X197607150Y-126170480D01*
X197586107Y-126157868D01*
X197566401Y-126143253D01*
X197548223Y-126126777D01*
X197531747Y-126108599D01*
X197517132Y-126088893D01*
X197504520Y-126067850D01*
X197494030Y-126045671D01*
X197485765Y-126022572D01*
X197479804Y-125998773D01*
X197476204Y-125974505D01*
X197475000Y-125950001D01*
X197475000Y-125049999D01*
X197476204Y-125025495D01*
X197479804Y-125001227D01*
X197485765Y-124977428D01*
X197494030Y-124954329D01*
X197504520Y-124932150D01*
X197517132Y-124911107D01*
X197531747Y-124891401D01*
X197548223Y-124873223D01*
X197566401Y-124856747D01*
X197586107Y-124842132D01*
X197607150Y-124829520D01*
X197629329Y-124819030D01*
X197652428Y-124810765D01*
X197676227Y-124804804D01*
X197700495Y-124801204D01*
X197724999Y-124800000D01*
X198375001Y-124800000D01*
X198399505Y-124801204D01*
G37*
G04 #@! TD.AperFunction*
D12*
X180200000Y-104000000D03*
X180400000Y-99600000D03*
X201503687Y-104119119D03*
X190500000Y-99700000D03*
X194500000Y-100400000D03*
X182800000Y-104800000D03*
X182902158Y-107103237D03*
X195400000Y-127400000D03*
X177600000Y-122500000D03*
X179700000Y-117900000D03*
X194336989Y-104511684D03*
X190100000Y-102100000D03*
X197100000Y-104500000D03*
X200500000Y-103500000D03*
X188224847Y-102375153D03*
X180900000Y-119800000D03*
X190300000Y-124900000D03*
X185400000Y-123500000D03*
X203225000Y-118100000D03*
X179736179Y-100596203D03*
X178000000Y-103600000D03*
X186700000Y-123800000D03*
X185400000Y-104900000D03*
X189200000Y-103500000D03*
D13*
X180200000Y-104000000D02*
X180599999Y-103600001D01*
X180599999Y-99799999D02*
X180400000Y-99600000D01*
X180599999Y-103600001D02*
X180599999Y-99799999D01*
D14*
X201903686Y-104519118D02*
X201903686Y-108103686D01*
X201503687Y-104119119D02*
X201903686Y-104519118D01*
X204022703Y-119277297D02*
X200100000Y-123200000D01*
X204022703Y-118377297D02*
X204022703Y-119277297D01*
X201903686Y-108103686D02*
X205700000Y-111900000D01*
X205700000Y-111900000D02*
X205700000Y-116700000D01*
X205700000Y-116700000D02*
X204022703Y-118377297D01*
D13*
X200100000Y-123200000D02*
X200100000Y-125500000D01*
X183925000Y-103500000D02*
X183925000Y-100575000D01*
X183925000Y-100575000D02*
X186300000Y-98200000D01*
X188725000Y-99100000D02*
X188725000Y-99800000D01*
X187825000Y-98200000D02*
X188725000Y-99100000D01*
X186300000Y-98200000D02*
X187825000Y-98200000D01*
X188725000Y-99800000D02*
X190400000Y-99800000D01*
X190400000Y-99800000D02*
X190500000Y-99700000D01*
X194775000Y-100675000D02*
X194500000Y-100400000D01*
X194775000Y-102100000D02*
X194775000Y-100675000D01*
X183925000Y-103500000D02*
X183925000Y-103675000D01*
X183925000Y-103675000D02*
X182800000Y-104800000D01*
X183075000Y-109500000D02*
X183650000Y-109500000D01*
X182902158Y-109327158D02*
X183075000Y-109500000D01*
X182902158Y-107103237D02*
X182902158Y-109327158D01*
X178400000Y-114750000D02*
X178400000Y-118575000D01*
X183650000Y-109500000D02*
X178400000Y-114750000D01*
X197475000Y-125500000D02*
X198050000Y-125500000D01*
X196734315Y-125500000D02*
X197475000Y-125500000D01*
X195400000Y-126834315D02*
X196734315Y-125500000D01*
X195400000Y-127400000D02*
X195400000Y-126834315D01*
X183375019Y-128275019D02*
X177600000Y-122500000D01*
X195400000Y-127400000D02*
X194524981Y-128275019D01*
X194524981Y-128275019D02*
X183375019Y-128275019D01*
X179075000Y-117900000D02*
X178400000Y-118575000D01*
X179700000Y-117900000D02*
X179075000Y-117900000D01*
X191386684Y-104511684D02*
X186675000Y-99800000D01*
X194336989Y-104511684D02*
X191386684Y-104511684D01*
X196825000Y-102800000D02*
X196825000Y-102100000D01*
X196499990Y-103125010D02*
X196825000Y-102800000D01*
X191690695Y-103125010D02*
X196499990Y-103125010D01*
X190665685Y-102100000D02*
X191690695Y-103125010D01*
X190100000Y-102100000D02*
X190665685Y-102100000D01*
X197100000Y-104850000D02*
X197100000Y-104500000D01*
X200600000Y-107650000D02*
X199900000Y-107650000D01*
X199900000Y-107650000D02*
X197100000Y-104850000D01*
X200500000Y-105500000D02*
X200600000Y-105600000D01*
X200500000Y-103500000D02*
X200500000Y-105500000D01*
X181600000Y-96300000D02*
X181700000Y-96400000D01*
X181025000Y-96300000D02*
X181600000Y-96300000D01*
X181875000Y-102800000D02*
X181875000Y-103500000D01*
X181353583Y-102278583D02*
X181875000Y-102800000D01*
X181353583Y-96746417D02*
X181353583Y-102278583D01*
X181700000Y-96400000D02*
X181353583Y-96746417D01*
X181875000Y-109225000D02*
X181600000Y-109500000D01*
X181875000Y-104200000D02*
X181875000Y-103500000D01*
X182500000Y-106500000D02*
X181900000Y-106500000D01*
X184474990Y-104525010D02*
X182500000Y-106500000D01*
X181875000Y-103500000D02*
X181900000Y-106500000D01*
X188224847Y-102375153D02*
X186638037Y-102375153D01*
X186638037Y-102375153D02*
X184488180Y-104525010D01*
X181900000Y-106500000D02*
X181875000Y-109225000D01*
X184488180Y-104525010D02*
X184474990Y-104525010D01*
X181025000Y-109500000D02*
X181600000Y-109500000D01*
X177325000Y-109500000D02*
X181025000Y-109500000D01*
X176000000Y-110825000D02*
X177325000Y-109500000D01*
X176000000Y-111400000D02*
X176000000Y-110825000D01*
X183524990Y-119724990D02*
X183900000Y-120100000D01*
X177374990Y-114425010D02*
X177374990Y-119138180D01*
X181600000Y-110200000D02*
X177374990Y-114425010D01*
X183900000Y-120100000D02*
X183900000Y-120675000D01*
X181600000Y-109500000D02*
X181600000Y-110200000D01*
X180900000Y-119800000D02*
X183524990Y-119724990D01*
D14*
X177374990Y-119138180D02*
X177374990Y-119174990D01*
X177374990Y-119174990D02*
X177800000Y-119600000D01*
X180134315Y-119600000D02*
X180334315Y-119800000D01*
X180334315Y-119800000D02*
X180900000Y-119800000D01*
X177800000Y-119600000D02*
X180134315Y-119600000D01*
D13*
X176000000Y-118925000D02*
X176000000Y-113450000D01*
X178400000Y-120625000D02*
X177700000Y-120625000D01*
X177700000Y-120625000D02*
X176000000Y-118925000D01*
X179100000Y-120625000D02*
X179175000Y-120700000D01*
X178400000Y-120625000D02*
X179100000Y-120625000D01*
X181200000Y-122725000D02*
X183900000Y-122725000D01*
X179100000Y-120625000D02*
X181200000Y-122725000D01*
X184600000Y-122725000D02*
X183900000Y-122725000D01*
X185475000Y-126800000D02*
X185475000Y-123600000D01*
X192225000Y-124900000D02*
X190300000Y-124900000D01*
X193625000Y-127000000D02*
X193625000Y-126300000D01*
X193625000Y-126300000D02*
X192225000Y-124900000D01*
X185475000Y-123600000D02*
X185400000Y-123500000D01*
X185400000Y-123500000D02*
X184600000Y-122725000D01*
D14*
X203225000Y-118775000D02*
X203225000Y-118100000D01*
X199000000Y-123000000D02*
X203225000Y-118775000D01*
X196922176Y-125074990D02*
X198997166Y-123000000D01*
X194200000Y-127000000D02*
X196100000Y-125100000D01*
X193625000Y-127000000D02*
X194200000Y-127000000D01*
X196100000Y-125100000D02*
X196533261Y-125100000D01*
X196533261Y-125100000D02*
X196558271Y-125074990D01*
X198997166Y-123000000D02*
X199000000Y-123000000D01*
X196558271Y-125074990D02*
X196922176Y-125074990D01*
D13*
X179736179Y-100030518D02*
X179736179Y-100596203D01*
X178975000Y-96300000D02*
X178400000Y-96300000D01*
X178400000Y-96300000D02*
X178000000Y-96700000D01*
X178000000Y-98300000D02*
X179700000Y-100000000D01*
X178000000Y-96700000D02*
X178000000Y-98300000D01*
X178705661Y-99000000D02*
X179700000Y-100000000D01*
X179700000Y-100000000D02*
X179736179Y-100030518D01*
X187725000Y-127000000D02*
X187525000Y-126800000D01*
X191575000Y-127000000D02*
X187725000Y-127000000D01*
X178000000Y-107811810D02*
X178000000Y-103600000D01*
X174974990Y-110836820D02*
X178000000Y-107811810D01*
X187525000Y-127500000D02*
X187199990Y-127825010D01*
X187525000Y-126800000D02*
X187525000Y-127500000D01*
X174974990Y-118788180D02*
X174974990Y-110836820D01*
X187199990Y-127825010D02*
X184011820Y-127825010D01*
X184011820Y-127825010D02*
X174974990Y-118788180D01*
X186700000Y-123800000D02*
X186700000Y-120700000D01*
X181900000Y-111900000D02*
X183000000Y-110800000D01*
X183938190Y-110800000D02*
X185200000Y-109538190D01*
X183000000Y-110800000D02*
X183938190Y-110800000D01*
X185200000Y-109538190D02*
X185200000Y-105100000D01*
X185200000Y-105100000D02*
X185400000Y-104900000D01*
X186700000Y-120700000D02*
X185074999Y-119074999D01*
X181248001Y-112551999D02*
X183000000Y-110800000D01*
X181874999Y-119074999D02*
X181200000Y-118400000D01*
X185074999Y-119074999D02*
X181874999Y-119074999D01*
X181200000Y-118400000D02*
X181248001Y-112551999D01*
X192200000Y-113500000D02*
X192200000Y-106500000D01*
X194100000Y-115400000D02*
X192200000Y-113500000D01*
X189200000Y-103500000D02*
X192200000Y-106500000D01*
M02*
