G04 #@! TF.GenerationSoftware,KiCad,Pcbnew,(5.1.5)-3*
G04 #@! TF.CreationDate,2020-05-11T16:08:06-04:00*
G04 #@! TF.ProjectId,charlieplex,63686172-6c69-4657-906c-65782e6b6963,rev?*
G04 #@! TF.SameCoordinates,Original*
G04 #@! TF.FileFunction,Copper,L2,Bot*
G04 #@! TF.FilePolarity,Positive*
%FSLAX46Y46*%
G04 Gerber Fmt 4.6, Leading zero omitted, Abs format (unit mm)*
G04 Created by KiCad (PCBNEW (5.1.5)-3) date 2020-05-11 16:08:06*
%MOMM*%
%LPD*%
G04 APERTURE LIST*
%ADD10C,17.800000*%
%ADD11R,5.100000X5.100000*%
%ADD12R,1.700000X0.650000*%
%ADD13C,0.100000*%
%ADD14R,1.000000X2.510000*%
%ADD15C,0.800000*%
%ADD16C,0.250000*%
%ADD17C,0.200000*%
G04 APERTURE END LIST*
D10*
X189700000Y-114100000D03*
D11*
X202500000Y-114100000D03*
X176900000Y-114100000D03*
D12*
X192750000Y-103605000D03*
X192750000Y-102335000D03*
X192750000Y-101065000D03*
X192750000Y-99795000D03*
X185450000Y-99795000D03*
X185450000Y-101065000D03*
X185450000Y-102335000D03*
X185450000Y-103605000D03*
G04 #@! TA.AperFunction,SMDPad,CuDef*
D13*
G36*
X177574505Y-107401204D02*
G01*
X177598773Y-107404804D01*
X177622572Y-107410765D01*
X177645671Y-107419030D01*
X177667850Y-107429520D01*
X177688893Y-107442132D01*
X177708599Y-107456747D01*
X177726777Y-107473223D01*
X177743253Y-107491401D01*
X177757868Y-107511107D01*
X177770480Y-107532150D01*
X177780970Y-107554329D01*
X177789235Y-107577428D01*
X177795196Y-107601227D01*
X177798796Y-107625495D01*
X177800000Y-107649999D01*
X177800000Y-108300001D01*
X177798796Y-108324505D01*
X177795196Y-108348773D01*
X177789235Y-108372572D01*
X177780970Y-108395671D01*
X177770480Y-108417850D01*
X177757868Y-108438893D01*
X177743253Y-108458599D01*
X177726777Y-108476777D01*
X177708599Y-108493253D01*
X177688893Y-108507868D01*
X177667850Y-108520480D01*
X177645671Y-108530970D01*
X177622572Y-108539235D01*
X177598773Y-108545196D01*
X177574505Y-108548796D01*
X177550001Y-108550000D01*
X176649999Y-108550000D01*
X176625495Y-108548796D01*
X176601227Y-108545196D01*
X176577428Y-108539235D01*
X176554329Y-108530970D01*
X176532150Y-108520480D01*
X176511107Y-108507868D01*
X176491401Y-108493253D01*
X176473223Y-108476777D01*
X176456747Y-108458599D01*
X176442132Y-108438893D01*
X176429520Y-108417850D01*
X176419030Y-108395671D01*
X176410765Y-108372572D01*
X176404804Y-108348773D01*
X176401204Y-108324505D01*
X176400000Y-108300001D01*
X176400000Y-107649999D01*
X176401204Y-107625495D01*
X176404804Y-107601227D01*
X176410765Y-107577428D01*
X176419030Y-107554329D01*
X176429520Y-107532150D01*
X176442132Y-107511107D01*
X176456747Y-107491401D01*
X176473223Y-107473223D01*
X176491401Y-107456747D01*
X176511107Y-107442132D01*
X176532150Y-107429520D01*
X176554329Y-107419030D01*
X176577428Y-107410765D01*
X176601227Y-107404804D01*
X176625495Y-107401204D01*
X176649999Y-107400000D01*
X177550001Y-107400000D01*
X177574505Y-107401204D01*
G37*
G04 #@! TD.AperFunction*
G04 #@! TA.AperFunction,SMDPad,CuDef*
G36*
X177574505Y-109451204D02*
G01*
X177598773Y-109454804D01*
X177622572Y-109460765D01*
X177645671Y-109469030D01*
X177667850Y-109479520D01*
X177688893Y-109492132D01*
X177708599Y-109506747D01*
X177726777Y-109523223D01*
X177743253Y-109541401D01*
X177757868Y-109561107D01*
X177770480Y-109582150D01*
X177780970Y-109604329D01*
X177789235Y-109627428D01*
X177795196Y-109651227D01*
X177798796Y-109675495D01*
X177800000Y-109699999D01*
X177800000Y-110350001D01*
X177798796Y-110374505D01*
X177795196Y-110398773D01*
X177789235Y-110422572D01*
X177780970Y-110445671D01*
X177770480Y-110467850D01*
X177757868Y-110488893D01*
X177743253Y-110508599D01*
X177726777Y-110526777D01*
X177708599Y-110543253D01*
X177688893Y-110557868D01*
X177667850Y-110570480D01*
X177645671Y-110580970D01*
X177622572Y-110589235D01*
X177598773Y-110595196D01*
X177574505Y-110598796D01*
X177550001Y-110600000D01*
X176649999Y-110600000D01*
X176625495Y-110598796D01*
X176601227Y-110595196D01*
X176577428Y-110589235D01*
X176554329Y-110580970D01*
X176532150Y-110570480D01*
X176511107Y-110557868D01*
X176491401Y-110543253D01*
X176473223Y-110526777D01*
X176456747Y-110508599D01*
X176442132Y-110488893D01*
X176429520Y-110467850D01*
X176419030Y-110445671D01*
X176410765Y-110422572D01*
X176404804Y-110398773D01*
X176401204Y-110374505D01*
X176400000Y-110350001D01*
X176400000Y-109699999D01*
X176401204Y-109675495D01*
X176404804Y-109651227D01*
X176410765Y-109627428D01*
X176419030Y-109604329D01*
X176429520Y-109582150D01*
X176442132Y-109561107D01*
X176456747Y-109541401D01*
X176473223Y-109523223D01*
X176491401Y-109506747D01*
X176511107Y-109492132D01*
X176532150Y-109479520D01*
X176554329Y-109469030D01*
X176577428Y-109460765D01*
X176601227Y-109454804D01*
X176625495Y-109451204D01*
X176649999Y-109450000D01*
X177550001Y-109450000D01*
X177574505Y-109451204D01*
G37*
G04 #@! TD.AperFunction*
D14*
X183940000Y-125100000D03*
X189020000Y-125100000D03*
X194100000Y-125100000D03*
X186480000Y-128410000D03*
X191560000Y-128410000D03*
X196640000Y-128410000D03*
G04 #@! TA.AperFunction,SMDPad,CuDef*
D13*
G36*
X179924505Y-102001204D02*
G01*
X179948773Y-102004804D01*
X179972572Y-102010765D01*
X179995671Y-102019030D01*
X180017850Y-102029520D01*
X180038893Y-102042132D01*
X180058599Y-102056747D01*
X180076777Y-102073223D01*
X180093253Y-102091401D01*
X180107868Y-102111107D01*
X180120480Y-102132150D01*
X180130970Y-102154329D01*
X180139235Y-102177428D01*
X180145196Y-102201227D01*
X180148796Y-102225495D01*
X180150000Y-102249999D01*
X180150000Y-103150001D01*
X180148796Y-103174505D01*
X180145196Y-103198773D01*
X180139235Y-103222572D01*
X180130970Y-103245671D01*
X180120480Y-103267850D01*
X180107868Y-103288893D01*
X180093253Y-103308599D01*
X180076777Y-103326777D01*
X180058599Y-103343253D01*
X180038893Y-103357868D01*
X180017850Y-103370480D01*
X179995671Y-103380970D01*
X179972572Y-103389235D01*
X179948773Y-103395196D01*
X179924505Y-103398796D01*
X179900001Y-103400000D01*
X179249999Y-103400000D01*
X179225495Y-103398796D01*
X179201227Y-103395196D01*
X179177428Y-103389235D01*
X179154329Y-103380970D01*
X179132150Y-103370480D01*
X179111107Y-103357868D01*
X179091401Y-103343253D01*
X179073223Y-103326777D01*
X179056747Y-103308599D01*
X179042132Y-103288893D01*
X179029520Y-103267850D01*
X179019030Y-103245671D01*
X179010765Y-103222572D01*
X179004804Y-103198773D01*
X179001204Y-103174505D01*
X179000000Y-103150001D01*
X179000000Y-102249999D01*
X179001204Y-102225495D01*
X179004804Y-102201227D01*
X179010765Y-102177428D01*
X179019030Y-102154329D01*
X179029520Y-102132150D01*
X179042132Y-102111107D01*
X179056747Y-102091401D01*
X179073223Y-102073223D01*
X179091401Y-102056747D01*
X179111107Y-102042132D01*
X179132150Y-102029520D01*
X179154329Y-102019030D01*
X179177428Y-102010765D01*
X179201227Y-102004804D01*
X179225495Y-102001204D01*
X179249999Y-102000000D01*
X179900001Y-102000000D01*
X179924505Y-102001204D01*
G37*
G04 #@! TD.AperFunction*
G04 #@! TA.AperFunction,SMDPad,CuDef*
G36*
X181974505Y-102001204D02*
G01*
X181998773Y-102004804D01*
X182022572Y-102010765D01*
X182045671Y-102019030D01*
X182067850Y-102029520D01*
X182088893Y-102042132D01*
X182108599Y-102056747D01*
X182126777Y-102073223D01*
X182143253Y-102091401D01*
X182157868Y-102111107D01*
X182170480Y-102132150D01*
X182180970Y-102154329D01*
X182189235Y-102177428D01*
X182195196Y-102201227D01*
X182198796Y-102225495D01*
X182200000Y-102249999D01*
X182200000Y-103150001D01*
X182198796Y-103174505D01*
X182195196Y-103198773D01*
X182189235Y-103222572D01*
X182180970Y-103245671D01*
X182170480Y-103267850D01*
X182157868Y-103288893D01*
X182143253Y-103308599D01*
X182126777Y-103326777D01*
X182108599Y-103343253D01*
X182088893Y-103357868D01*
X182067850Y-103370480D01*
X182045671Y-103380970D01*
X182022572Y-103389235D01*
X181998773Y-103395196D01*
X181974505Y-103398796D01*
X181950001Y-103400000D01*
X181299999Y-103400000D01*
X181275495Y-103398796D01*
X181251227Y-103395196D01*
X181227428Y-103389235D01*
X181204329Y-103380970D01*
X181182150Y-103370480D01*
X181161107Y-103357868D01*
X181141401Y-103343253D01*
X181123223Y-103326777D01*
X181106747Y-103308599D01*
X181092132Y-103288893D01*
X181079520Y-103267850D01*
X181069030Y-103245671D01*
X181060765Y-103222572D01*
X181054804Y-103198773D01*
X181051204Y-103174505D01*
X181050000Y-103150001D01*
X181050000Y-102249999D01*
X181051204Y-102225495D01*
X181054804Y-102201227D01*
X181060765Y-102177428D01*
X181069030Y-102154329D01*
X181079520Y-102132150D01*
X181092132Y-102111107D01*
X181106747Y-102091401D01*
X181123223Y-102073223D01*
X181141401Y-102056747D01*
X181161107Y-102042132D01*
X181182150Y-102029520D01*
X181204329Y-102019030D01*
X181227428Y-102010765D01*
X181251227Y-102004804D01*
X181275495Y-102001204D01*
X181299999Y-102000000D01*
X181950001Y-102000000D01*
X181974505Y-102001204D01*
G37*
G04 #@! TD.AperFunction*
G04 #@! TA.AperFunction,SMDPad,CuDef*
G36*
X202174505Y-106601204D02*
G01*
X202198773Y-106604804D01*
X202222572Y-106610765D01*
X202245671Y-106619030D01*
X202267850Y-106629520D01*
X202288893Y-106642132D01*
X202308599Y-106656747D01*
X202326777Y-106673223D01*
X202343253Y-106691401D01*
X202357868Y-106711107D01*
X202370480Y-106732150D01*
X202380970Y-106754329D01*
X202389235Y-106777428D01*
X202395196Y-106801227D01*
X202398796Y-106825495D01*
X202400000Y-106849999D01*
X202400000Y-107500001D01*
X202398796Y-107524505D01*
X202395196Y-107548773D01*
X202389235Y-107572572D01*
X202380970Y-107595671D01*
X202370480Y-107617850D01*
X202357868Y-107638893D01*
X202343253Y-107658599D01*
X202326777Y-107676777D01*
X202308599Y-107693253D01*
X202288893Y-107707868D01*
X202267850Y-107720480D01*
X202245671Y-107730970D01*
X202222572Y-107739235D01*
X202198773Y-107745196D01*
X202174505Y-107748796D01*
X202150001Y-107750000D01*
X201249999Y-107750000D01*
X201225495Y-107748796D01*
X201201227Y-107745196D01*
X201177428Y-107739235D01*
X201154329Y-107730970D01*
X201132150Y-107720480D01*
X201111107Y-107707868D01*
X201091401Y-107693253D01*
X201073223Y-107676777D01*
X201056747Y-107658599D01*
X201042132Y-107638893D01*
X201029520Y-107617850D01*
X201019030Y-107595671D01*
X201010765Y-107572572D01*
X201004804Y-107548773D01*
X201001204Y-107524505D01*
X201000000Y-107500001D01*
X201000000Y-106849999D01*
X201001204Y-106825495D01*
X201004804Y-106801227D01*
X201010765Y-106777428D01*
X201019030Y-106754329D01*
X201029520Y-106732150D01*
X201042132Y-106711107D01*
X201056747Y-106691401D01*
X201073223Y-106673223D01*
X201091401Y-106656747D01*
X201111107Y-106642132D01*
X201132150Y-106629520D01*
X201154329Y-106619030D01*
X201177428Y-106610765D01*
X201201227Y-106604804D01*
X201225495Y-106601204D01*
X201249999Y-106600000D01*
X202150001Y-106600000D01*
X202174505Y-106601204D01*
G37*
G04 #@! TD.AperFunction*
G04 #@! TA.AperFunction,SMDPad,CuDef*
G36*
X202174505Y-108651204D02*
G01*
X202198773Y-108654804D01*
X202222572Y-108660765D01*
X202245671Y-108669030D01*
X202267850Y-108679520D01*
X202288893Y-108692132D01*
X202308599Y-108706747D01*
X202326777Y-108723223D01*
X202343253Y-108741401D01*
X202357868Y-108761107D01*
X202370480Y-108782150D01*
X202380970Y-108804329D01*
X202389235Y-108827428D01*
X202395196Y-108851227D01*
X202398796Y-108875495D01*
X202400000Y-108899999D01*
X202400000Y-109550001D01*
X202398796Y-109574505D01*
X202395196Y-109598773D01*
X202389235Y-109622572D01*
X202380970Y-109645671D01*
X202370480Y-109667850D01*
X202357868Y-109688893D01*
X202343253Y-109708599D01*
X202326777Y-109726777D01*
X202308599Y-109743253D01*
X202288893Y-109757868D01*
X202267850Y-109770480D01*
X202245671Y-109780970D01*
X202222572Y-109789235D01*
X202198773Y-109795196D01*
X202174505Y-109798796D01*
X202150001Y-109800000D01*
X201249999Y-109800000D01*
X201225495Y-109798796D01*
X201201227Y-109795196D01*
X201177428Y-109789235D01*
X201154329Y-109780970D01*
X201132150Y-109770480D01*
X201111107Y-109757868D01*
X201091401Y-109743253D01*
X201073223Y-109726777D01*
X201056747Y-109708599D01*
X201042132Y-109688893D01*
X201029520Y-109667850D01*
X201019030Y-109645671D01*
X201010765Y-109622572D01*
X201004804Y-109598773D01*
X201001204Y-109574505D01*
X201000000Y-109550001D01*
X201000000Y-108899999D01*
X201001204Y-108875495D01*
X201004804Y-108851227D01*
X201010765Y-108827428D01*
X201019030Y-108804329D01*
X201029520Y-108782150D01*
X201042132Y-108761107D01*
X201056747Y-108741401D01*
X201073223Y-108723223D01*
X201091401Y-108706747D01*
X201111107Y-108692132D01*
X201132150Y-108679520D01*
X201154329Y-108669030D01*
X201177428Y-108660765D01*
X201201227Y-108654804D01*
X201225495Y-108651204D01*
X201249999Y-108650000D01*
X202150001Y-108650000D01*
X202174505Y-108651204D01*
G37*
G04 #@! TD.AperFunction*
G04 #@! TA.AperFunction,SMDPad,CuDef*
G36*
X199174505Y-102201204D02*
G01*
X199198773Y-102204804D01*
X199222572Y-102210765D01*
X199245671Y-102219030D01*
X199267850Y-102229520D01*
X199288893Y-102242132D01*
X199308599Y-102256747D01*
X199326777Y-102273223D01*
X199343253Y-102291401D01*
X199357868Y-102311107D01*
X199370480Y-102332150D01*
X199380970Y-102354329D01*
X199389235Y-102377428D01*
X199395196Y-102401227D01*
X199398796Y-102425495D01*
X199400000Y-102449999D01*
X199400000Y-103100001D01*
X199398796Y-103124505D01*
X199395196Y-103148773D01*
X199389235Y-103172572D01*
X199380970Y-103195671D01*
X199370480Y-103217850D01*
X199357868Y-103238893D01*
X199343253Y-103258599D01*
X199326777Y-103276777D01*
X199308599Y-103293253D01*
X199288893Y-103307868D01*
X199267850Y-103320480D01*
X199245671Y-103330970D01*
X199222572Y-103339235D01*
X199198773Y-103345196D01*
X199174505Y-103348796D01*
X199150001Y-103350000D01*
X198249999Y-103350000D01*
X198225495Y-103348796D01*
X198201227Y-103345196D01*
X198177428Y-103339235D01*
X198154329Y-103330970D01*
X198132150Y-103320480D01*
X198111107Y-103307868D01*
X198091401Y-103293253D01*
X198073223Y-103276777D01*
X198056747Y-103258599D01*
X198042132Y-103238893D01*
X198029520Y-103217850D01*
X198019030Y-103195671D01*
X198010765Y-103172572D01*
X198004804Y-103148773D01*
X198001204Y-103124505D01*
X198000000Y-103100001D01*
X198000000Y-102449999D01*
X198001204Y-102425495D01*
X198004804Y-102401227D01*
X198010765Y-102377428D01*
X198019030Y-102354329D01*
X198029520Y-102332150D01*
X198042132Y-102311107D01*
X198056747Y-102291401D01*
X198073223Y-102273223D01*
X198091401Y-102256747D01*
X198111107Y-102242132D01*
X198132150Y-102229520D01*
X198154329Y-102219030D01*
X198177428Y-102210765D01*
X198201227Y-102204804D01*
X198225495Y-102201204D01*
X198249999Y-102200000D01*
X199150001Y-102200000D01*
X199174505Y-102201204D01*
G37*
G04 #@! TD.AperFunction*
G04 #@! TA.AperFunction,SMDPad,CuDef*
G36*
X199174505Y-104251204D02*
G01*
X199198773Y-104254804D01*
X199222572Y-104260765D01*
X199245671Y-104269030D01*
X199267850Y-104279520D01*
X199288893Y-104292132D01*
X199308599Y-104306747D01*
X199326777Y-104323223D01*
X199343253Y-104341401D01*
X199357868Y-104361107D01*
X199370480Y-104382150D01*
X199380970Y-104404329D01*
X199389235Y-104427428D01*
X199395196Y-104451227D01*
X199398796Y-104475495D01*
X199400000Y-104499999D01*
X199400000Y-105150001D01*
X199398796Y-105174505D01*
X199395196Y-105198773D01*
X199389235Y-105222572D01*
X199380970Y-105245671D01*
X199370480Y-105267850D01*
X199357868Y-105288893D01*
X199343253Y-105308599D01*
X199326777Y-105326777D01*
X199308599Y-105343253D01*
X199288893Y-105357868D01*
X199267850Y-105370480D01*
X199245671Y-105380970D01*
X199222572Y-105389235D01*
X199198773Y-105395196D01*
X199174505Y-105398796D01*
X199150001Y-105400000D01*
X198249999Y-105400000D01*
X198225495Y-105398796D01*
X198201227Y-105395196D01*
X198177428Y-105389235D01*
X198154329Y-105380970D01*
X198132150Y-105370480D01*
X198111107Y-105357868D01*
X198091401Y-105343253D01*
X198073223Y-105326777D01*
X198056747Y-105308599D01*
X198042132Y-105288893D01*
X198029520Y-105267850D01*
X198019030Y-105245671D01*
X198010765Y-105222572D01*
X198004804Y-105198773D01*
X198001204Y-105174505D01*
X198000000Y-105150001D01*
X198000000Y-104499999D01*
X198001204Y-104475495D01*
X198004804Y-104451227D01*
X198010765Y-104427428D01*
X198019030Y-104404329D01*
X198029520Y-104382150D01*
X198042132Y-104361107D01*
X198056747Y-104341401D01*
X198073223Y-104323223D01*
X198091401Y-104306747D01*
X198111107Y-104292132D01*
X198132150Y-104279520D01*
X198154329Y-104269030D01*
X198177428Y-104260765D01*
X198201227Y-104254804D01*
X198225495Y-104251204D01*
X198249999Y-104250000D01*
X199150001Y-104250000D01*
X199174505Y-104251204D01*
G37*
G04 #@! TD.AperFunction*
G04 #@! TA.AperFunction,SMDPad,CuDef*
G36*
X196474505Y-100301204D02*
G01*
X196498773Y-100304804D01*
X196522572Y-100310765D01*
X196545671Y-100319030D01*
X196567850Y-100329520D01*
X196588893Y-100342132D01*
X196608599Y-100356747D01*
X196626777Y-100373223D01*
X196643253Y-100391401D01*
X196657868Y-100411107D01*
X196670480Y-100432150D01*
X196680970Y-100454329D01*
X196689235Y-100477428D01*
X196695196Y-100501227D01*
X196698796Y-100525495D01*
X196700000Y-100549999D01*
X196700000Y-101200001D01*
X196698796Y-101224505D01*
X196695196Y-101248773D01*
X196689235Y-101272572D01*
X196680970Y-101295671D01*
X196670480Y-101317850D01*
X196657868Y-101338893D01*
X196643253Y-101358599D01*
X196626777Y-101376777D01*
X196608599Y-101393253D01*
X196588893Y-101407868D01*
X196567850Y-101420480D01*
X196545671Y-101430970D01*
X196522572Y-101439235D01*
X196498773Y-101445196D01*
X196474505Y-101448796D01*
X196450001Y-101450000D01*
X195549999Y-101450000D01*
X195525495Y-101448796D01*
X195501227Y-101445196D01*
X195477428Y-101439235D01*
X195454329Y-101430970D01*
X195432150Y-101420480D01*
X195411107Y-101407868D01*
X195391401Y-101393253D01*
X195373223Y-101376777D01*
X195356747Y-101358599D01*
X195342132Y-101338893D01*
X195329520Y-101317850D01*
X195319030Y-101295671D01*
X195310765Y-101272572D01*
X195304804Y-101248773D01*
X195301204Y-101224505D01*
X195300000Y-101200001D01*
X195300000Y-100549999D01*
X195301204Y-100525495D01*
X195304804Y-100501227D01*
X195310765Y-100477428D01*
X195319030Y-100454329D01*
X195329520Y-100432150D01*
X195342132Y-100411107D01*
X195356747Y-100391401D01*
X195373223Y-100373223D01*
X195391401Y-100356747D01*
X195411107Y-100342132D01*
X195432150Y-100329520D01*
X195454329Y-100319030D01*
X195477428Y-100310765D01*
X195501227Y-100304804D01*
X195525495Y-100301204D01*
X195549999Y-100300000D01*
X196450001Y-100300000D01*
X196474505Y-100301204D01*
G37*
G04 #@! TD.AperFunction*
G04 #@! TA.AperFunction,SMDPad,CuDef*
G36*
X196474505Y-102351204D02*
G01*
X196498773Y-102354804D01*
X196522572Y-102360765D01*
X196545671Y-102369030D01*
X196567850Y-102379520D01*
X196588893Y-102392132D01*
X196608599Y-102406747D01*
X196626777Y-102423223D01*
X196643253Y-102441401D01*
X196657868Y-102461107D01*
X196670480Y-102482150D01*
X196680970Y-102504329D01*
X196689235Y-102527428D01*
X196695196Y-102551227D01*
X196698796Y-102575495D01*
X196700000Y-102599999D01*
X196700000Y-103250001D01*
X196698796Y-103274505D01*
X196695196Y-103298773D01*
X196689235Y-103322572D01*
X196680970Y-103345671D01*
X196670480Y-103367850D01*
X196657868Y-103388893D01*
X196643253Y-103408599D01*
X196626777Y-103426777D01*
X196608599Y-103443253D01*
X196588893Y-103457868D01*
X196567850Y-103470480D01*
X196545671Y-103480970D01*
X196522572Y-103489235D01*
X196498773Y-103495196D01*
X196474505Y-103498796D01*
X196450001Y-103500000D01*
X195549999Y-103500000D01*
X195525495Y-103498796D01*
X195501227Y-103495196D01*
X195477428Y-103489235D01*
X195454329Y-103480970D01*
X195432150Y-103470480D01*
X195411107Y-103457868D01*
X195391401Y-103443253D01*
X195373223Y-103426777D01*
X195356747Y-103408599D01*
X195342132Y-103388893D01*
X195329520Y-103367850D01*
X195319030Y-103345671D01*
X195310765Y-103322572D01*
X195304804Y-103298773D01*
X195301204Y-103274505D01*
X195300000Y-103250001D01*
X195300000Y-102599999D01*
X195301204Y-102575495D01*
X195304804Y-102551227D01*
X195310765Y-102527428D01*
X195319030Y-102504329D01*
X195329520Y-102482150D01*
X195342132Y-102461107D01*
X195356747Y-102441401D01*
X195373223Y-102423223D01*
X195391401Y-102406747D01*
X195411107Y-102392132D01*
X195432150Y-102379520D01*
X195454329Y-102369030D01*
X195477428Y-102360765D01*
X195501227Y-102354804D01*
X195525495Y-102351204D01*
X195549999Y-102350000D01*
X196450001Y-102350000D01*
X196474505Y-102351204D01*
G37*
G04 #@! TD.AperFunction*
D15*
X180200000Y-104000000D03*
X180400000Y-99600000D03*
X201503687Y-104119119D03*
X190500000Y-99700000D03*
X194500000Y-100400000D03*
X182800000Y-104800000D03*
X182902158Y-107103237D03*
X195400000Y-127400000D03*
X177600000Y-122500000D03*
X179700000Y-117900000D03*
X194336989Y-104511684D03*
X190100000Y-102100000D03*
X197100000Y-104500000D03*
X200500000Y-103500000D03*
X188224847Y-102375153D03*
X180900000Y-119800000D03*
X190300000Y-124900000D03*
X185400000Y-123500000D03*
X203225000Y-118100000D03*
X179736179Y-100596203D03*
X178000000Y-103600000D03*
X186700000Y-123800000D03*
X185400000Y-104900000D03*
X189200000Y-103500000D03*
D16*
X189700000Y-117835000D02*
X189700000Y-114100000D01*
X183940000Y-123595000D02*
X189700000Y-117835000D01*
X183940000Y-125100000D02*
X183940000Y-123595000D01*
X177800000Y-107975000D02*
X180000000Y-110175000D01*
X177100000Y-107975000D02*
X177800000Y-107975000D01*
X180000000Y-111700000D02*
X180200000Y-111900000D01*
X180000000Y-110175000D02*
X180000000Y-111700000D01*
X187500000Y-111900000D02*
X189700000Y-114100000D01*
X180200000Y-111900000D02*
X187500000Y-111900000D01*
X177100000Y-107975000D02*
X177100000Y-107100000D01*
X177100000Y-107100000D02*
X180200000Y-104000000D01*
X183379566Y-100765434D02*
X184350000Y-99795000D01*
X181565434Y-100765434D02*
X183379566Y-100765434D01*
X184350000Y-99795000D02*
X185450000Y-99795000D01*
X180400000Y-99600000D02*
X181565434Y-100765434D01*
X193470000Y-104900000D02*
X192750000Y-104180000D01*
X202500000Y-114100000D02*
X199700000Y-114100000D01*
X192750000Y-104180000D02*
X192750000Y-103605000D01*
X199700000Y-114100000D02*
X199600000Y-114000000D01*
X177100000Y-113900000D02*
X176900000Y-114100000D01*
X177100000Y-110025000D02*
X177100000Y-113900000D01*
X193470000Y-104900000D02*
X193700000Y-104900000D01*
X193700000Y-104900000D02*
X199600000Y-110800000D01*
X199600000Y-114000000D02*
X199600000Y-110800000D01*
X199600000Y-110800000D02*
X199600000Y-110700000D01*
X202500000Y-116900000D02*
X202500000Y-114100000D01*
X202500000Y-121045000D02*
X202500000Y-116900000D01*
X196640000Y-126905000D02*
X202500000Y-121045000D01*
X196640000Y-128410000D02*
X196640000Y-126905000D01*
D17*
X198700000Y-104825000D02*
X200797806Y-104825000D01*
X200797806Y-104825000D02*
X201503687Y-104119119D01*
D16*
X195300000Y-100875000D02*
X196000000Y-100875000D01*
X194930000Y-100875000D02*
X195300000Y-100875000D01*
X192750000Y-99795000D02*
X193850000Y-99795000D01*
X192655000Y-99700000D02*
X192750000Y-99795000D01*
X190500000Y-99700000D02*
X192655000Y-99700000D01*
X193850000Y-99795000D02*
X194500000Y-100400000D01*
X194500000Y-100400000D02*
X194930000Y-100875000D01*
X182800000Y-104800000D02*
X182800000Y-107001079D01*
X182800000Y-107001079D02*
X182902158Y-107103237D01*
X194895000Y-127400000D02*
X195400000Y-127400000D01*
X194100000Y-125100000D02*
X194100000Y-126605000D01*
X194100000Y-126605000D02*
X194895000Y-127400000D01*
X177600000Y-122500000D02*
X179700000Y-120400000D01*
X179700000Y-120400000D02*
X179700000Y-117900000D01*
X201700000Y-109225000D02*
X199050305Y-109225000D01*
X199050305Y-109225000D02*
X194336989Y-104511684D01*
X189548001Y-104225001D02*
X190100000Y-103673002D01*
X185748001Y-105625001D02*
X187148001Y-104225001D01*
X190100000Y-103673002D02*
X190100000Y-102100000D01*
X187148001Y-104225001D02*
X189548001Y-104225001D01*
X181773002Y-102700000D02*
X181625000Y-102700000D01*
X184698003Y-105625001D02*
X181773002Y-102700000D01*
X185748001Y-105625001D02*
X184698003Y-105625001D01*
X197100000Y-104025000D02*
X196000000Y-102925000D01*
X197100000Y-104500000D02*
X197100000Y-104025000D01*
X198700000Y-102200000D02*
X198700000Y-102775000D01*
X194809990Y-102024990D02*
X198524990Y-102024990D01*
X198524990Y-102024990D02*
X198700000Y-102200000D01*
X193850000Y-101065000D02*
X194809990Y-102024990D01*
X192750000Y-101065000D02*
X193850000Y-101065000D01*
X198700000Y-102775000D02*
X199775000Y-102775000D01*
X199775000Y-102775000D02*
X200500000Y-103500000D01*
X192750000Y-101065000D02*
X189535000Y-101065000D01*
X189535000Y-101065000D02*
X188224847Y-102375153D01*
X189229999Y-129990001D02*
X185690001Y-129990001D01*
X191560000Y-128410000D02*
X190810000Y-128410000D01*
X190810000Y-128410000D02*
X189229999Y-129990001D01*
X180900000Y-125200000D02*
X180900000Y-119800000D01*
X185690001Y-129990001D02*
X180900000Y-125200000D01*
X201000000Y-107175000D02*
X201700000Y-107175000D01*
X198115000Y-107175000D02*
X201000000Y-107175000D01*
X193275000Y-102335000D02*
X198115000Y-107175000D01*
X192750000Y-102335000D02*
X193275000Y-102335000D01*
X189220000Y-124900000D02*
X189020000Y-125100000D01*
X190300000Y-124900000D02*
X189220000Y-124900000D01*
X185825001Y-123074999D02*
X185400000Y-123500000D01*
X187568002Y-123595000D02*
X187048001Y-123074999D01*
X188270000Y-123595000D02*
X187568002Y-123595000D01*
X187048001Y-123074999D02*
X185825001Y-123074999D01*
X189020000Y-124345000D02*
X188270000Y-123595000D01*
X189020000Y-125100000D02*
X189020000Y-124345000D01*
D17*
X202700010Y-107475010D02*
X202700010Y-108900010D01*
X201700000Y-107175000D02*
X202400000Y-107175000D01*
X202400000Y-107175000D02*
X202700010Y-107475010D01*
X202700010Y-108900010D02*
X204700000Y-110900000D01*
X204700000Y-110900000D02*
X205049999Y-111249999D01*
X205249999Y-111249999D02*
X205467511Y-111467511D01*
X205049999Y-111249999D02*
X205249999Y-111249999D01*
X205467511Y-111467511D02*
X205467511Y-111767511D01*
X205467511Y-111767511D02*
X205700000Y-112000000D01*
X205700000Y-116540002D02*
X203900000Y-118340002D01*
X205700000Y-112000000D02*
X205700000Y-116540002D01*
X203900000Y-118340002D02*
X203465002Y-118340002D01*
X203465002Y-118340002D02*
X203225000Y-118100000D01*
D16*
X179736179Y-102538821D02*
X179575000Y-102700000D01*
X179736179Y-100596203D02*
X179736179Y-102538821D01*
X184350000Y-102335000D02*
X185450000Y-102335000D01*
X183689990Y-101674990D02*
X184350000Y-102335000D01*
X179575000Y-102000000D02*
X179900010Y-101674990D01*
X179900010Y-101674990D02*
X183689990Y-101674990D01*
X179575000Y-102700000D02*
X179575000Y-102000000D01*
X178675000Y-103600000D02*
X179575000Y-102700000D01*
X178000000Y-103600000D02*
X178675000Y-103600000D01*
X186480000Y-128410000D02*
X186480000Y-124020000D01*
X186480000Y-124020000D02*
X186700000Y-123800000D01*
X185400000Y-103655000D02*
X185450000Y-103605000D01*
X185400000Y-104900000D02*
X185400000Y-103655000D01*
X185450000Y-101065000D02*
X186765000Y-101065000D01*
X186765000Y-101065000D02*
X186765000Y-101965000D01*
X188300000Y-103500000D02*
X189200000Y-103500000D01*
X186765000Y-101965000D02*
X188300000Y-103500000D01*
M02*
