M48
; DRILL file {KiCad (5.1.5)-3} date 05/11/20 16:08:41
; FORMAT={-:-/ absolute / inch / decimal}
; #@! TF.CreationDate,2020-05-11T16:08:41-04:00
; #@! TF.GenerationSoftware,Kicad,Pcbnew,(5.1.5)-3
; #@! TF.FileFunction,Plated,1,2,PTH
FMAT,2
INCH
T1C0.0157
%
G90
G05
T1
X6.9921Y-4.8228
X7.0079Y-4.0787
X7.0748Y-4.6417
X7.0762Y-3.9605
X7.0945Y-4.0945
X7.1024Y-3.9213
X7.122Y-4.7165
X7.1969Y-4.126
X7.2009Y-4.2167
X7.2992Y-4.1299
X7.2992Y-4.8622
X7.3504Y-4.874
X7.4104Y-4.0305
X7.4488Y-4.0748
X7.4843Y-4.0197
X7.4921Y-4.9173
X7.5Y-3.9252
X7.6511Y-4.1146
X7.6575Y-3.9528
X7.6929Y-5.0157
X7.7598Y-4.1142
X7.8937Y-4.0748
X7.9332Y-4.0992
X8.001Y-4.6496
T0
M30
