G04 #@! TF.GenerationSoftware,KiCad,Pcbnew,(5.1.5)-3*
G04 #@! TF.CreationDate,2020-05-11T16:08:06-04:00*
G04 #@! TF.ProjectId,charlieplex,63686172-6c69-4657-906c-65782e6b6963,rev?*
G04 #@! TF.SameCoordinates,Original*
G04 #@! TF.FileFunction,Legend,Top*
G04 #@! TF.FilePolarity,Positive*
%FSLAX46Y46*%
G04 Gerber Fmt 4.6, Leading zero omitted, Abs format (unit mm)*
G04 Created by KiCad (PCBNEW (5.1.5)-3) date 2020-05-11 16:08:06*
%MOMM*%
%LPD*%
G04 APERTURE LIST*
%ADD10C,0.010000*%
%ADD11C,0.120000*%
G04 APERTURE END LIST*
D10*
G36*
X190673117Y-100817349D02*
G01*
X190735617Y-100889621D01*
X190351661Y-100930173D01*
X190068421Y-100933627D01*
X189550640Y-100907302D01*
X189472084Y-100846915D01*
X189603643Y-100811953D01*
X190300307Y-100768907D01*
X190673117Y-100817349D01*
G37*
X190673117Y-100817349D02*
X190735617Y-100889621D01*
X190351661Y-100930173D01*
X190068421Y-100933627D01*
X189550640Y-100907302D01*
X189472084Y-100846915D01*
X189603643Y-100811953D01*
X190300307Y-100768907D01*
X190673117Y-100817349D01*
G36*
X191717193Y-101090176D02*
G01*
X191680491Y-101249126D01*
X191538947Y-101268421D01*
X191318873Y-101170595D01*
X191360702Y-101090176D01*
X191678005Y-101058177D01*
X191717193Y-101090176D01*
G37*
X191717193Y-101090176D02*
X191680491Y-101249126D01*
X191538947Y-101268421D01*
X191318873Y-101170595D01*
X191360702Y-101090176D01*
X191678005Y-101058177D01*
X191717193Y-101090176D01*
G36*
X188792851Y-101106886D02*
G01*
X188713111Y-101228408D01*
X188441930Y-101247313D01*
X188156638Y-101182016D01*
X188280395Y-101085778D01*
X188698259Y-101053904D01*
X188792851Y-101106886D01*
G37*
X188792851Y-101106886D02*
X188713111Y-101228408D01*
X188441930Y-101247313D01*
X188156638Y-101182016D01*
X188280395Y-101085778D01*
X188698259Y-101053904D01*
X188792851Y-101106886D01*
G36*
X192341052Y-101402105D02*
G01*
X192207368Y-101535790D01*
X192073684Y-101402105D01*
X192207368Y-101268421D01*
X192341052Y-101402105D01*
G37*
X192341052Y-101402105D02*
X192207368Y-101535790D01*
X192073684Y-101402105D01*
X192207368Y-101268421D01*
X192341052Y-101402105D01*
G36*
X187795789Y-101402105D02*
G01*
X187662105Y-101535790D01*
X187528421Y-101402105D01*
X187662105Y-101268421D01*
X187795789Y-101402105D01*
G37*
X187795789Y-101402105D02*
X187662105Y-101535790D01*
X187528421Y-101402105D01*
X187662105Y-101268421D01*
X187795789Y-101402105D01*
G36*
X187261052Y-101669474D02*
G01*
X187127368Y-101803158D01*
X186993684Y-101669474D01*
X187127368Y-101535790D01*
X187261052Y-101669474D01*
G37*
X187261052Y-101669474D02*
X187127368Y-101803158D01*
X186993684Y-101669474D01*
X187127368Y-101535790D01*
X187261052Y-101669474D01*
G36*
X186642432Y-101975864D02*
G01*
X186592631Y-102070526D01*
X186340713Y-102325864D01*
X186293704Y-102337895D01*
X186275462Y-102165189D01*
X186325263Y-102070526D01*
X186577181Y-101815189D01*
X186624190Y-101803158D01*
X186642432Y-101975864D01*
G37*
X186642432Y-101975864D02*
X186592631Y-102070526D01*
X186340713Y-102325864D01*
X186293704Y-102337895D01*
X186275462Y-102165189D01*
X186325263Y-102070526D01*
X186577181Y-101815189D01*
X186624190Y-101803158D01*
X186642432Y-101975864D01*
G36*
X193210000Y-102050290D02*
G01*
X193768714Y-102572840D01*
X193942188Y-102826570D01*
X193858185Y-102872632D01*
X193643233Y-102693275D01*
X193223729Y-102250542D01*
X193122922Y-102137369D01*
X192474737Y-101402105D01*
X193210000Y-102050290D01*
G37*
X193210000Y-102050290D02*
X193768714Y-102572840D01*
X193942188Y-102826570D01*
X193858185Y-102872632D01*
X193643233Y-102693275D01*
X193223729Y-102250542D01*
X193122922Y-102137369D01*
X192474737Y-101402105D01*
X193210000Y-102050290D01*
G36*
X181913684Y-104075790D02*
G01*
X181780000Y-104209474D01*
X181646316Y-104075790D01*
X181780000Y-103942105D01*
X181913684Y-104075790D01*
G37*
X181913684Y-104075790D02*
X181780000Y-104209474D01*
X181646316Y-104075790D01*
X181780000Y-103942105D01*
X181913684Y-104075790D01*
G36*
X199535029Y-104102853D02*
G01*
X200098848Y-104508543D01*
X200372205Y-104733345D01*
X200964911Y-105265425D01*
X201143552Y-105483998D01*
X200926993Y-105389429D01*
X200334098Y-104982083D01*
X199988144Y-104725901D01*
X199440270Y-104280335D01*
X199177011Y-103996392D01*
X199196138Y-103942105D01*
X199535029Y-104102853D01*
G37*
X199535029Y-104102853D02*
X200098848Y-104508543D01*
X200372205Y-104733345D01*
X200964911Y-105265425D01*
X201143552Y-105483998D01*
X200926993Y-105389429D01*
X200334098Y-104982083D01*
X199988144Y-104725901D01*
X199440270Y-104280335D01*
X199177011Y-103996392D01*
X199196138Y-103942105D01*
X199535029Y-104102853D01*
G36*
X191271579Y-106214737D02*
G01*
X191137895Y-106348421D01*
X191004210Y-106214737D01*
X191137895Y-106081053D01*
X191271579Y-106214737D01*
G37*
X191271579Y-106214737D02*
X191137895Y-106348421D01*
X191004210Y-106214737D01*
X191137895Y-106081053D01*
X191271579Y-106214737D01*
G36*
X180577584Y-105145824D02*
G01*
X180002711Y-105802975D01*
X179556694Y-106312787D01*
X179408540Y-106482105D01*
X179327223Y-106501174D01*
X179451632Y-106214737D01*
X179822042Y-105703210D01*
X180411374Y-105073987D01*
X180620675Y-104878455D01*
X181512631Y-104076910D01*
X180577584Y-105145824D01*
G37*
X180577584Y-105145824D02*
X180002711Y-105802975D01*
X179556694Y-106312787D01*
X179408540Y-106482105D01*
X179327223Y-106501174D01*
X179451632Y-106214737D01*
X179822042Y-105703210D01*
X180411374Y-105073987D01*
X180620675Y-104878455D01*
X181512631Y-104076910D01*
X180577584Y-105145824D01*
G36*
X190469473Y-106749474D02*
G01*
X190335789Y-106883158D01*
X190202105Y-106749474D01*
X190335789Y-106615790D01*
X190469473Y-106749474D01*
G37*
X190469473Y-106749474D02*
X190335789Y-106883158D01*
X190202105Y-106749474D01*
X190335789Y-106615790D01*
X190469473Y-106749474D01*
G36*
X179240000Y-107016842D02*
G01*
X179106316Y-107150526D01*
X178972631Y-107016842D01*
X179106316Y-106883158D01*
X179240000Y-107016842D01*
G37*
X179240000Y-107016842D02*
X179106316Y-107150526D01*
X178972631Y-107016842D01*
X179106316Y-106883158D01*
X179240000Y-107016842D01*
G36*
X196099162Y-105312011D02*
G01*
X197366195Y-105796566D01*
X198356596Y-106657933D01*
X199056717Y-107752105D01*
X199392939Y-108450465D01*
X199453920Y-108700811D01*
X199236492Y-108501949D01*
X198737486Y-107852686D01*
X198517267Y-107548835D01*
X197635814Y-106507021D01*
X196719360Y-105884212D01*
X195613733Y-105610580D01*
X194238845Y-105611061D01*
X193239883Y-105702697D01*
X192395877Y-105821308D01*
X191940000Y-105926493D01*
X191591680Y-106037796D01*
X191715976Y-105922166D01*
X191855955Y-105830214D01*
X192715626Y-105477473D01*
X193873815Y-105258517D01*
X195104963Y-105200892D01*
X196099162Y-105312011D01*
G37*
X196099162Y-105312011D02*
X197366195Y-105796566D01*
X198356596Y-106657933D01*
X199056717Y-107752105D01*
X199392939Y-108450465D01*
X199453920Y-108700811D01*
X199236492Y-108501949D01*
X198737486Y-107852686D01*
X198517267Y-107548835D01*
X197635814Y-106507021D01*
X196719360Y-105884212D01*
X195613733Y-105610580D01*
X194238845Y-105611061D01*
X193239883Y-105702697D01*
X192395877Y-105821308D01*
X191940000Y-105926493D01*
X191591680Y-106037796D01*
X191715976Y-105922166D01*
X191855955Y-105830214D01*
X192715626Y-105477473D01*
X193873815Y-105258517D01*
X195104963Y-105200892D01*
X196099162Y-105312011D01*
G36*
X175665770Y-109696451D02*
G01*
X175332040Y-110394138D01*
X174953975Y-111082947D01*
X174424673Y-112151627D01*
X173958888Y-113311461D01*
X173768413Y-113911934D01*
X173556250Y-114662323D01*
X173439927Y-114932975D01*
X173388723Y-114763694D01*
X173375490Y-114421028D01*
X173554296Y-112787107D01*
X174110985Y-111265743D01*
X174860525Y-110171572D01*
X175430673Y-109591614D01*
X175698868Y-109431092D01*
X175665770Y-109696451D01*
G37*
X175665770Y-109696451D02*
X175332040Y-110394138D01*
X174953975Y-111082947D01*
X174424673Y-112151627D01*
X173958888Y-113311461D01*
X173768413Y-113911934D01*
X173556250Y-114662323D01*
X173439927Y-114932975D01*
X173388723Y-114763694D01*
X173375490Y-114421028D01*
X173554296Y-112787107D01*
X174110985Y-111265743D01*
X174860525Y-110171572D01*
X175430673Y-109591614D01*
X175698868Y-109431092D01*
X175665770Y-109696451D01*
G36*
X173803509Y-115795439D02*
G01*
X173835507Y-116112742D01*
X173803509Y-116151930D01*
X173644558Y-116115228D01*
X173625263Y-115973684D01*
X173723089Y-115753610D01*
X173803509Y-115795439D01*
G37*
X173803509Y-115795439D02*
X173835507Y-116112742D01*
X173803509Y-116151930D01*
X173644558Y-116115228D01*
X173625263Y-115973684D01*
X173723089Y-115753610D01*
X173803509Y-115795439D01*
G36*
X174160000Y-116909474D02*
G01*
X174026316Y-117043158D01*
X173892631Y-116909474D01*
X174026316Y-116775790D01*
X174160000Y-116909474D01*
G37*
X174160000Y-116909474D02*
X174026316Y-117043158D01*
X173892631Y-116909474D01*
X174026316Y-116775790D01*
X174160000Y-116909474D01*
G36*
X174427368Y-117444211D02*
G01*
X174293684Y-117577895D01*
X174160000Y-117444211D01*
X174293684Y-117310526D01*
X174427368Y-117444211D01*
G37*
X174427368Y-117444211D02*
X174293684Y-117577895D01*
X174160000Y-117444211D01*
X174293684Y-117310526D01*
X174427368Y-117444211D01*
G36*
X192405858Y-117001016D02*
G01*
X192542026Y-117249389D01*
X192238561Y-117310526D01*
X191894160Y-117457165D01*
X191880350Y-117644737D01*
X192205184Y-117886543D01*
X192571051Y-117915258D01*
X193035443Y-118007958D01*
X193143158Y-118354547D01*
X192931718Y-118886424D01*
X192431335Y-119138195D01*
X191842915Y-119044212D01*
X191592421Y-118861263D01*
X191301307Y-118241664D01*
X191364693Y-117517657D01*
X191683963Y-117033754D01*
X192112732Y-116832974D01*
X192405858Y-117001016D01*
G37*
X192405858Y-117001016D02*
X192542026Y-117249389D01*
X192238561Y-117310526D01*
X191894160Y-117457165D01*
X191880350Y-117644737D01*
X192205184Y-117886543D01*
X192571051Y-117915258D01*
X193035443Y-118007958D01*
X193143158Y-118354547D01*
X192931718Y-118886424D01*
X192431335Y-119138195D01*
X191842915Y-119044212D01*
X191592421Y-118861263D01*
X191301307Y-118241664D01*
X191364693Y-117517657D01*
X191683963Y-117033754D01*
X192112732Y-116832974D01*
X192405858Y-117001016D01*
G36*
X188780029Y-109109168D02*
G01*
X189030081Y-109543342D01*
X189308806Y-110170514D01*
X189691358Y-111198543D01*
X189992673Y-112248585D01*
X190085000Y-112701709D01*
X190292851Y-113594491D01*
X190581578Y-113987813D01*
X190992025Y-113915454D01*
X191282050Y-113691576D01*
X191612313Y-113438381D01*
X191949447Y-113380265D01*
X192464578Y-113527240D01*
X193119504Y-113799069D01*
X194627948Y-114279813D01*
X195932550Y-114309353D01*
X197121101Y-113884697D01*
X197494739Y-113649988D01*
X198183258Y-113221597D01*
X198639659Y-113100905D01*
X199034476Y-113243734D01*
X199042851Y-113248935D01*
X199493145Y-113501246D01*
X199670889Y-113567369D01*
X199713367Y-113320495D01*
X199726700Y-112660381D01*
X199709773Y-111707788D01*
X199692484Y-111227895D01*
X199654162Y-110123529D01*
X199659965Y-109476820D01*
X199722841Y-109211598D01*
X199855738Y-109251691D01*
X199999270Y-109423158D01*
X201007539Y-110968100D01*
X201624736Y-112472126D01*
X201929044Y-114079128D01*
X202130633Y-115965787D01*
X201112685Y-116959787D01*
X200481740Y-117695519D01*
X200132223Y-118353248D01*
X200094737Y-118567946D01*
X200054742Y-119039721D01*
X199869808Y-119128935D01*
X199442512Y-118838845D01*
X199160981Y-118599152D01*
X198602168Y-117912914D01*
X198573291Y-117310526D01*
X198757895Y-117310526D01*
X198961355Y-117570125D01*
X199025263Y-117577895D01*
X199284862Y-117374434D01*
X199292631Y-117310526D01*
X199089171Y-117050927D01*
X199025263Y-117043158D01*
X198765664Y-117246619D01*
X198757895Y-117310526D01*
X198573291Y-117310526D01*
X198570923Y-117261139D01*
X199038233Y-116630368D01*
X199452505Y-115998401D01*
X199506127Y-115212323D01*
X199275958Y-114337685D01*
X198794104Y-113926115D01*
X198087771Y-113993425D01*
X197720419Y-114174357D01*
X196862520Y-114474670D01*
X195705878Y-114621145D01*
X194464649Y-114611192D01*
X193352989Y-114442220D01*
X192778385Y-114234142D01*
X191987570Y-113899524D01*
X191486030Y-113935384D01*
X191149680Y-114372963D01*
X191031309Y-114674033D01*
X190771621Y-115656162D01*
X190559983Y-116895189D01*
X190410712Y-118230604D01*
X190338121Y-119501896D01*
X190356524Y-120548555D01*
X190454498Y-121141992D01*
X190972269Y-122095339D01*
X191808041Y-123031892D01*
X192774466Y-123760020D01*
X193227405Y-123978338D01*
X194644555Y-124249419D01*
X196036294Y-124037825D01*
X197320621Y-123392617D01*
X198415532Y-122362854D01*
X199239026Y-120997597D01*
X199520881Y-120213145D01*
X199697099Y-119721271D01*
X199791450Y-119742091D01*
X199803255Y-119864872D01*
X199652637Y-120651932D01*
X199215084Y-121624439D01*
X198595699Y-122604181D01*
X197899586Y-123412943D01*
X197534308Y-123712115D01*
X196444503Y-124211716D01*
X195149468Y-124458447D01*
X193860324Y-124435200D01*
X192788192Y-124124867D01*
X192742105Y-124100437D01*
X191733220Y-123444630D01*
X190944344Y-122647833D01*
X190252049Y-121565233D01*
X189798954Y-120647450D01*
X189336954Y-119706715D01*
X188909339Y-118943818D01*
X188598495Y-118503985D01*
X188565902Y-118473938D01*
X188114706Y-118239400D01*
X187342132Y-117948623D01*
X186709257Y-117750859D01*
X185473554Y-117278745D01*
X184292946Y-116623756D01*
X183321328Y-115885924D01*
X182712598Y-115165281D01*
X182702269Y-115146317D01*
X182339181Y-114005758D01*
X182488416Y-112939229D01*
X183129908Y-111970720D01*
X183670636Y-111559717D01*
X184935567Y-111559717D01*
X184964345Y-112337131D01*
X185054903Y-113352225D01*
X185189211Y-114460983D01*
X185349238Y-115519390D01*
X185516951Y-116383433D01*
X185674322Y-116909095D01*
X185714313Y-116976316D01*
X186271956Y-117313691D01*
X186887771Y-117247942D01*
X187345847Y-116824690D01*
X187425494Y-116614747D01*
X187495959Y-115904702D01*
X187477157Y-114865670D01*
X187385580Y-113692839D01*
X187237722Y-112581395D01*
X187050074Y-111726527D01*
X186999972Y-111578644D01*
X186647084Y-111054755D01*
X186025306Y-110894667D01*
X185946607Y-110893684D01*
X185326004Y-110976376D01*
X184986601Y-111163998D01*
X184935567Y-111559717D01*
X183670636Y-111559717D01*
X184243591Y-111124219D01*
X185809398Y-110423716D01*
X186931855Y-110089958D01*
X187712805Y-109797886D01*
X188286762Y-109416653D01*
X188392302Y-109289912D01*
X188592107Y-109048395D01*
X188780029Y-109109168D01*
G37*
X188780029Y-109109168D02*
X189030081Y-109543342D01*
X189308806Y-110170514D01*
X189691358Y-111198543D01*
X189992673Y-112248585D01*
X190085000Y-112701709D01*
X190292851Y-113594491D01*
X190581578Y-113987813D01*
X190992025Y-113915454D01*
X191282050Y-113691576D01*
X191612313Y-113438381D01*
X191949447Y-113380265D01*
X192464578Y-113527240D01*
X193119504Y-113799069D01*
X194627948Y-114279813D01*
X195932550Y-114309353D01*
X197121101Y-113884697D01*
X197494739Y-113649988D01*
X198183258Y-113221597D01*
X198639659Y-113100905D01*
X199034476Y-113243734D01*
X199042851Y-113248935D01*
X199493145Y-113501246D01*
X199670889Y-113567369D01*
X199713367Y-113320495D01*
X199726700Y-112660381D01*
X199709773Y-111707788D01*
X199692484Y-111227895D01*
X199654162Y-110123529D01*
X199659965Y-109476820D01*
X199722841Y-109211598D01*
X199855738Y-109251691D01*
X199999270Y-109423158D01*
X201007539Y-110968100D01*
X201624736Y-112472126D01*
X201929044Y-114079128D01*
X202130633Y-115965787D01*
X201112685Y-116959787D01*
X200481740Y-117695519D01*
X200132223Y-118353248D01*
X200094737Y-118567946D01*
X200054742Y-119039721D01*
X199869808Y-119128935D01*
X199442512Y-118838845D01*
X199160981Y-118599152D01*
X198602168Y-117912914D01*
X198573291Y-117310526D01*
X198757895Y-117310526D01*
X198961355Y-117570125D01*
X199025263Y-117577895D01*
X199284862Y-117374434D01*
X199292631Y-117310526D01*
X199089171Y-117050927D01*
X199025263Y-117043158D01*
X198765664Y-117246619D01*
X198757895Y-117310526D01*
X198573291Y-117310526D01*
X198570923Y-117261139D01*
X199038233Y-116630368D01*
X199452505Y-115998401D01*
X199506127Y-115212323D01*
X199275958Y-114337685D01*
X198794104Y-113926115D01*
X198087771Y-113993425D01*
X197720419Y-114174357D01*
X196862520Y-114474670D01*
X195705878Y-114621145D01*
X194464649Y-114611192D01*
X193352989Y-114442220D01*
X192778385Y-114234142D01*
X191987570Y-113899524D01*
X191486030Y-113935384D01*
X191149680Y-114372963D01*
X191031309Y-114674033D01*
X190771621Y-115656162D01*
X190559983Y-116895189D01*
X190410712Y-118230604D01*
X190338121Y-119501896D01*
X190356524Y-120548555D01*
X190454498Y-121141992D01*
X190972269Y-122095339D01*
X191808041Y-123031892D01*
X192774466Y-123760020D01*
X193227405Y-123978338D01*
X194644555Y-124249419D01*
X196036294Y-124037825D01*
X197320621Y-123392617D01*
X198415532Y-122362854D01*
X199239026Y-120997597D01*
X199520881Y-120213145D01*
X199697099Y-119721271D01*
X199791450Y-119742091D01*
X199803255Y-119864872D01*
X199652637Y-120651932D01*
X199215084Y-121624439D01*
X198595699Y-122604181D01*
X197899586Y-123412943D01*
X197534308Y-123712115D01*
X196444503Y-124211716D01*
X195149468Y-124458447D01*
X193860324Y-124435200D01*
X192788192Y-124124867D01*
X192742105Y-124100437D01*
X191733220Y-123444630D01*
X190944344Y-122647833D01*
X190252049Y-121565233D01*
X189798954Y-120647450D01*
X189336954Y-119706715D01*
X188909339Y-118943818D01*
X188598495Y-118503985D01*
X188565902Y-118473938D01*
X188114706Y-118239400D01*
X187342132Y-117948623D01*
X186709257Y-117750859D01*
X185473554Y-117278745D01*
X184292946Y-116623756D01*
X183321328Y-115885924D01*
X182712598Y-115165281D01*
X182702269Y-115146317D01*
X182339181Y-114005758D01*
X182488416Y-112939229D01*
X183129908Y-111970720D01*
X183670636Y-111559717D01*
X184935567Y-111559717D01*
X184964345Y-112337131D01*
X185054903Y-113352225D01*
X185189211Y-114460983D01*
X185349238Y-115519390D01*
X185516951Y-116383433D01*
X185674322Y-116909095D01*
X185714313Y-116976316D01*
X186271956Y-117313691D01*
X186887771Y-117247942D01*
X187345847Y-116824690D01*
X187425494Y-116614747D01*
X187495959Y-115904702D01*
X187477157Y-114865670D01*
X187385580Y-113692839D01*
X187237722Y-112581395D01*
X187050074Y-111726527D01*
X186999972Y-111578644D01*
X186647084Y-111054755D01*
X186025306Y-110894667D01*
X185946607Y-110893684D01*
X185326004Y-110976376D01*
X184986601Y-111163998D01*
X184935567Y-111559717D01*
X183670636Y-111559717D01*
X184243591Y-111124219D01*
X185809398Y-110423716D01*
X186931855Y-110089958D01*
X187712805Y-109797886D01*
X188286762Y-109416653D01*
X188392302Y-109289912D01*
X188592107Y-109048395D01*
X188780029Y-109109168D01*
G36*
X180874617Y-93621110D02*
G01*
X181015856Y-93687689D01*
X182178921Y-94512273D01*
X182898212Y-95626821D01*
X183176129Y-96782957D01*
X183215246Y-97562862D01*
X183058387Y-98137316D01*
X182620670Y-98754535D01*
X182423780Y-98983005D01*
X181912907Y-99589159D01*
X181724206Y-99941355D01*
X181818970Y-100180239D01*
X182043943Y-100363189D01*
X182444168Y-100621115D01*
X182778918Y-100670950D01*
X183164599Y-100461670D01*
X183717618Y-99942250D01*
X184231047Y-99404513D01*
X185386076Y-98319728D01*
X186464158Y-97649430D01*
X187610833Y-97321855D01*
X188584375Y-97257895D01*
X189407796Y-97306418D01*
X190199700Y-97483158D01*
X191078489Y-97834869D01*
X192162566Y-98408307D01*
X193464007Y-99184791D01*
X194939421Y-99917840D01*
X196323843Y-100279508D01*
X197977966Y-100662981D01*
X199339190Y-101408340D01*
X200440772Y-102551685D01*
X201315967Y-104129117D01*
X201998033Y-106176735D01*
X202088207Y-106536881D01*
X202434858Y-107740762D01*
X202876610Y-108672402D01*
X203548513Y-109592803D01*
X203854904Y-109951291D01*
X204654063Y-110989698D01*
X205242487Y-111999615D01*
X205458550Y-112558967D01*
X205630879Y-114201338D01*
X205311084Y-115917367D01*
X204522319Y-117637767D01*
X203287737Y-119293251D01*
X203162909Y-119428831D01*
X202539608Y-120118848D01*
X202155699Y-120667544D01*
X201937180Y-121254974D01*
X201810048Y-122061196D01*
X201730469Y-122914104D01*
X201626256Y-123992150D01*
X201487252Y-124717353D01*
X201235014Y-125269823D01*
X200791099Y-125829669D01*
X200182368Y-126468617D01*
X199238856Y-127492475D01*
X198642999Y-128294261D01*
X198327126Y-128988720D01*
X198223563Y-129690601D01*
X198222158Y-129792423D01*
X198041871Y-130679992D01*
X197584626Y-131545898D01*
X196972522Y-132200942D01*
X196518459Y-132432401D01*
X195638062Y-132420459D01*
X194895468Y-131901267D01*
X194303466Y-130921976D01*
X193830172Y-130137955D01*
X193250582Y-129548455D01*
X193093696Y-129450212D01*
X192429139Y-129233629D01*
X191558634Y-129109118D01*
X190646822Y-129078457D01*
X189858341Y-129143422D01*
X189357832Y-129305791D01*
X189271125Y-129408947D01*
X189139109Y-129860753D01*
X188940581Y-130598860D01*
X188859882Y-130910208D01*
X188407497Y-132058708D01*
X187768540Y-132863694D01*
X187018553Y-133272458D01*
X186233078Y-133232294D01*
X185838305Y-133018421D01*
X185502058Y-132603172D01*
X185083806Y-131857770D01*
X184731962Y-131080000D01*
X184463715Y-130453462D01*
X185122105Y-130453462D01*
X185248577Y-131264774D01*
X185565461Y-132079248D01*
X185978959Y-132694651D01*
X186252795Y-132891294D01*
X186883149Y-132844792D01*
X187590261Y-132325349D01*
X188044564Y-131774533D01*
X188532314Y-130829372D01*
X188541862Y-130081666D01*
X188092207Y-129574103D01*
X187202345Y-129349370D01*
X186962078Y-129342105D01*
X185965709Y-129404557D01*
X185395175Y-129631567D01*
X185152000Y-130082616D01*
X185122105Y-130453462D01*
X184463715Y-130453462D01*
X184359730Y-130210587D01*
X184059841Y-129725379D01*
X183718026Y-129507461D01*
X183220018Y-129439919D01*
X183124711Y-129435528D01*
X182032669Y-129208548D01*
X181181424Y-128683260D01*
X180706500Y-127945723D01*
X180691330Y-127890284D01*
X180540827Y-127621015D01*
X181646316Y-127621015D01*
X181817836Y-128180943D01*
X182104842Y-128603507D01*
X182474813Y-128937533D01*
X182729182Y-128864668D01*
X182756243Y-128831455D01*
X194114072Y-128831455D01*
X194125957Y-129217702D01*
X194233285Y-129530114D01*
X194841256Y-130863456D01*
X195447960Y-131663290D01*
X196052544Y-131929330D01*
X196654156Y-131661294D01*
X197251944Y-130858895D01*
X197396016Y-130584219D01*
X197802704Y-129455759D01*
X197823356Y-128577167D01*
X197495352Y-128003905D01*
X196856072Y-127791433D01*
X195942897Y-127995212D01*
X195719228Y-128096376D01*
X195005574Y-128420792D01*
X194432646Y-128642003D01*
X194416149Y-128647104D01*
X194114072Y-128831455D01*
X182756243Y-128831455D01*
X182862777Y-128700706D01*
X183190543Y-128443500D01*
X183473725Y-128602778D01*
X183728507Y-128752127D01*
X183785263Y-128492527D01*
X183530826Y-127888478D01*
X182772832Y-127446843D01*
X182380083Y-127329352D01*
X181846400Y-127259372D01*
X181657461Y-127465625D01*
X181646316Y-127621015D01*
X180540827Y-127621015D01*
X180405968Y-127379737D01*
X179830056Y-126710258D01*
X179240210Y-126159799D01*
X178206881Y-125081252D01*
X177500079Y-123810106D01*
X177045938Y-122203877D01*
X176971227Y-121782968D01*
X176565701Y-120721260D01*
X175677663Y-119503111D01*
X175617289Y-119434570D01*
X174937373Y-118638904D01*
X174534385Y-118103653D01*
X174432451Y-117869246D01*
X174655697Y-117976115D01*
X174828421Y-118112632D01*
X175053257Y-118233190D01*
X175179487Y-118061906D01*
X175238509Y-117507949D01*
X175256125Y-116875370D01*
X175300798Y-115819826D01*
X175381580Y-115052200D01*
X175478873Y-114621069D01*
X175573078Y-114575008D01*
X175644598Y-114962595D01*
X175673834Y-115832408D01*
X175673843Y-115840000D01*
X175762915Y-117133788D01*
X176001104Y-118339615D01*
X176348791Y-119318360D01*
X176766356Y-119930902D01*
X176858397Y-119999484D01*
X177034849Y-120334361D01*
X177224122Y-121039599D01*
X177366570Y-121842694D01*
X177846098Y-123611171D01*
X178734181Y-125034815D01*
X180027562Y-126109815D01*
X181602421Y-126796724D01*
X182037129Y-126888468D01*
X182058650Y-126691009D01*
X181927224Y-126426353D01*
X181784926Y-126003346D01*
X181870225Y-125866316D01*
X182189051Y-126056262D01*
X182707921Y-126535032D01*
X183302911Y-127166021D01*
X183850098Y-127812625D01*
X184225559Y-128338240D01*
X184320000Y-128566764D01*
X184449830Y-128728587D01*
X184654210Y-128608580D01*
X185068589Y-128463818D01*
X185859688Y-128321978D01*
X186870038Y-128210097D01*
X187060745Y-128195391D01*
X188318127Y-128143697D01*
X189203708Y-128212613D01*
X189869668Y-128416035D01*
X189962907Y-128460444D01*
X190955404Y-128717335D01*
X192232797Y-128706241D01*
X193626541Y-128442615D01*
X194811117Y-128015973D01*
X195841723Y-127642913D01*
X196963005Y-127372339D01*
X197200938Y-127336079D01*
X198726798Y-126899015D01*
X199949357Y-126045525D01*
X200829798Y-124823931D01*
X201329306Y-123282554D01*
X201431579Y-122069336D01*
X201453719Y-121244806D01*
X201573012Y-120651130D01*
X201868767Y-120108220D01*
X202420291Y-119435988D01*
X202755827Y-119062327D01*
X203881719Y-117703271D01*
X204603230Y-116566100D01*
X204900458Y-115683240D01*
X204907368Y-115556657D01*
X204784550Y-115258524D01*
X204331403Y-115189752D01*
X204017073Y-115217013D01*
X203425795Y-115258462D01*
X203248217Y-115115455D01*
X203368794Y-114679973D01*
X203387990Y-114628920D01*
X203535842Y-113545709D01*
X203288583Y-112351331D01*
X202715643Y-111199473D01*
X201886448Y-110243825D01*
X201195938Y-109776530D01*
X200302536Y-109327797D01*
X201201268Y-109241793D01*
X201798491Y-109142318D01*
X202022521Y-108884436D01*
X202013290Y-108290547D01*
X202006346Y-108220000D01*
X201867102Y-107431188D01*
X201659078Y-106809991D01*
X201649785Y-106792130D01*
X201441863Y-106184640D01*
X201400025Y-105947369D01*
X201431579Y-105947369D01*
X201565263Y-106081053D01*
X201698947Y-105947369D01*
X201565263Y-105813684D01*
X201431579Y-105947369D01*
X201400025Y-105947369D01*
X201303075Y-105397554D01*
X201300695Y-105372763D01*
X200926372Y-104058092D01*
X200118932Y-102835574D01*
X198979900Y-101787403D01*
X197610804Y-100995773D01*
X196113169Y-100542880D01*
X195242131Y-100467807D01*
X194651045Y-100319595D01*
X193830185Y-99935941D01*
X193103183Y-99494811D01*
X191544413Y-98525743D01*
X190195527Y-97868218D01*
X189125472Y-97554040D01*
X188846050Y-97531135D01*
X187417185Y-97758483D01*
X186011525Y-98403237D01*
X184817295Y-99374165D01*
X184648336Y-99565704D01*
X183724129Y-100472658D01*
X182774468Y-100963888D01*
X182586999Y-101016828D01*
X180883617Y-101522714D01*
X179590055Y-102098269D01*
X178581503Y-102802563D01*
X178334702Y-103029406D01*
X177398139Y-104088991D01*
X176745204Y-105234821D01*
X176283901Y-106648774D01*
X176114933Y-107417895D01*
X175772106Y-109155790D01*
X175872182Y-107532224D01*
X176188846Y-105749103D01*
X176938163Y-104108441D01*
X178168536Y-102504756D01*
X178189520Y-102481941D01*
X178919433Y-101568893D01*
X179195524Y-100859418D01*
X179021355Y-100280068D01*
X178400488Y-99757389D01*
X178323890Y-99711249D01*
X177297085Y-98924544D01*
X176743730Y-98000994D01*
X176602885Y-96822986D01*
X176605689Y-96780697D01*
X176834683Y-96780697D01*
X176985873Y-97679028D01*
X177505733Y-98532696D01*
X177663487Y-98719118D01*
X178270856Y-99322323D01*
X178847742Y-99597079D01*
X179653770Y-99664140D01*
X179695487Y-99664211D01*
X180524187Y-99598002D01*
X181150731Y-99324387D01*
X181831005Y-98730881D01*
X181840695Y-98721200D01*
X182406237Y-98104895D01*
X182657992Y-97598078D01*
X182684522Y-96958019D01*
X182642349Y-96524084D01*
X182263034Y-95313247D01*
X181487265Y-94328573D01*
X180425222Y-93699451D01*
X180172661Y-93623745D01*
X179164768Y-93621426D01*
X178227216Y-94057592D01*
X177460855Y-94836863D01*
X176966535Y-95863858D01*
X176834683Y-96780697D01*
X176605689Y-96780697D01*
X176628354Y-96438941D01*
X176965150Y-95130851D01*
X177641311Y-94142891D01*
X178573701Y-93527192D01*
X179679182Y-93335888D01*
X180874617Y-93621110D01*
G37*
X180874617Y-93621110D02*
X181015856Y-93687689D01*
X182178921Y-94512273D01*
X182898212Y-95626821D01*
X183176129Y-96782957D01*
X183215246Y-97562862D01*
X183058387Y-98137316D01*
X182620670Y-98754535D01*
X182423780Y-98983005D01*
X181912907Y-99589159D01*
X181724206Y-99941355D01*
X181818970Y-100180239D01*
X182043943Y-100363189D01*
X182444168Y-100621115D01*
X182778918Y-100670950D01*
X183164599Y-100461670D01*
X183717618Y-99942250D01*
X184231047Y-99404513D01*
X185386076Y-98319728D01*
X186464158Y-97649430D01*
X187610833Y-97321855D01*
X188584375Y-97257895D01*
X189407796Y-97306418D01*
X190199700Y-97483158D01*
X191078489Y-97834869D01*
X192162566Y-98408307D01*
X193464007Y-99184791D01*
X194939421Y-99917840D01*
X196323843Y-100279508D01*
X197977966Y-100662981D01*
X199339190Y-101408340D01*
X200440772Y-102551685D01*
X201315967Y-104129117D01*
X201998033Y-106176735D01*
X202088207Y-106536881D01*
X202434858Y-107740762D01*
X202876610Y-108672402D01*
X203548513Y-109592803D01*
X203854904Y-109951291D01*
X204654063Y-110989698D01*
X205242487Y-111999615D01*
X205458550Y-112558967D01*
X205630879Y-114201338D01*
X205311084Y-115917367D01*
X204522319Y-117637767D01*
X203287737Y-119293251D01*
X203162909Y-119428831D01*
X202539608Y-120118848D01*
X202155699Y-120667544D01*
X201937180Y-121254974D01*
X201810048Y-122061196D01*
X201730469Y-122914104D01*
X201626256Y-123992150D01*
X201487252Y-124717353D01*
X201235014Y-125269823D01*
X200791099Y-125829669D01*
X200182368Y-126468617D01*
X199238856Y-127492475D01*
X198642999Y-128294261D01*
X198327126Y-128988720D01*
X198223563Y-129690601D01*
X198222158Y-129792423D01*
X198041871Y-130679992D01*
X197584626Y-131545898D01*
X196972522Y-132200942D01*
X196518459Y-132432401D01*
X195638062Y-132420459D01*
X194895468Y-131901267D01*
X194303466Y-130921976D01*
X193830172Y-130137955D01*
X193250582Y-129548455D01*
X193093696Y-129450212D01*
X192429139Y-129233629D01*
X191558634Y-129109118D01*
X190646822Y-129078457D01*
X189858341Y-129143422D01*
X189357832Y-129305791D01*
X189271125Y-129408947D01*
X189139109Y-129860753D01*
X188940581Y-130598860D01*
X188859882Y-130910208D01*
X188407497Y-132058708D01*
X187768540Y-132863694D01*
X187018553Y-133272458D01*
X186233078Y-133232294D01*
X185838305Y-133018421D01*
X185502058Y-132603172D01*
X185083806Y-131857770D01*
X184731962Y-131080000D01*
X184463715Y-130453462D01*
X185122105Y-130453462D01*
X185248577Y-131264774D01*
X185565461Y-132079248D01*
X185978959Y-132694651D01*
X186252795Y-132891294D01*
X186883149Y-132844792D01*
X187590261Y-132325349D01*
X188044564Y-131774533D01*
X188532314Y-130829372D01*
X188541862Y-130081666D01*
X188092207Y-129574103D01*
X187202345Y-129349370D01*
X186962078Y-129342105D01*
X185965709Y-129404557D01*
X185395175Y-129631567D01*
X185152000Y-130082616D01*
X185122105Y-130453462D01*
X184463715Y-130453462D01*
X184359730Y-130210587D01*
X184059841Y-129725379D01*
X183718026Y-129507461D01*
X183220018Y-129439919D01*
X183124711Y-129435528D01*
X182032669Y-129208548D01*
X181181424Y-128683260D01*
X180706500Y-127945723D01*
X180691330Y-127890284D01*
X180540827Y-127621015D01*
X181646316Y-127621015D01*
X181817836Y-128180943D01*
X182104842Y-128603507D01*
X182474813Y-128937533D01*
X182729182Y-128864668D01*
X182756243Y-128831455D01*
X194114072Y-128831455D01*
X194125957Y-129217702D01*
X194233285Y-129530114D01*
X194841256Y-130863456D01*
X195447960Y-131663290D01*
X196052544Y-131929330D01*
X196654156Y-131661294D01*
X197251944Y-130858895D01*
X197396016Y-130584219D01*
X197802704Y-129455759D01*
X197823356Y-128577167D01*
X197495352Y-128003905D01*
X196856072Y-127791433D01*
X195942897Y-127995212D01*
X195719228Y-128096376D01*
X195005574Y-128420792D01*
X194432646Y-128642003D01*
X194416149Y-128647104D01*
X194114072Y-128831455D01*
X182756243Y-128831455D01*
X182862777Y-128700706D01*
X183190543Y-128443500D01*
X183473725Y-128602778D01*
X183728507Y-128752127D01*
X183785263Y-128492527D01*
X183530826Y-127888478D01*
X182772832Y-127446843D01*
X182380083Y-127329352D01*
X181846400Y-127259372D01*
X181657461Y-127465625D01*
X181646316Y-127621015D01*
X180540827Y-127621015D01*
X180405968Y-127379737D01*
X179830056Y-126710258D01*
X179240210Y-126159799D01*
X178206881Y-125081252D01*
X177500079Y-123810106D01*
X177045938Y-122203877D01*
X176971227Y-121782968D01*
X176565701Y-120721260D01*
X175677663Y-119503111D01*
X175617289Y-119434570D01*
X174937373Y-118638904D01*
X174534385Y-118103653D01*
X174432451Y-117869246D01*
X174655697Y-117976115D01*
X174828421Y-118112632D01*
X175053257Y-118233190D01*
X175179487Y-118061906D01*
X175238509Y-117507949D01*
X175256125Y-116875370D01*
X175300798Y-115819826D01*
X175381580Y-115052200D01*
X175478873Y-114621069D01*
X175573078Y-114575008D01*
X175644598Y-114962595D01*
X175673834Y-115832408D01*
X175673843Y-115840000D01*
X175762915Y-117133788D01*
X176001104Y-118339615D01*
X176348791Y-119318360D01*
X176766356Y-119930902D01*
X176858397Y-119999484D01*
X177034849Y-120334361D01*
X177224122Y-121039599D01*
X177366570Y-121842694D01*
X177846098Y-123611171D01*
X178734181Y-125034815D01*
X180027562Y-126109815D01*
X181602421Y-126796724D01*
X182037129Y-126888468D01*
X182058650Y-126691009D01*
X181927224Y-126426353D01*
X181784926Y-126003346D01*
X181870225Y-125866316D01*
X182189051Y-126056262D01*
X182707921Y-126535032D01*
X183302911Y-127166021D01*
X183850098Y-127812625D01*
X184225559Y-128338240D01*
X184320000Y-128566764D01*
X184449830Y-128728587D01*
X184654210Y-128608580D01*
X185068589Y-128463818D01*
X185859688Y-128321978D01*
X186870038Y-128210097D01*
X187060745Y-128195391D01*
X188318127Y-128143697D01*
X189203708Y-128212613D01*
X189869668Y-128416035D01*
X189962907Y-128460444D01*
X190955404Y-128717335D01*
X192232797Y-128706241D01*
X193626541Y-128442615D01*
X194811117Y-128015973D01*
X195841723Y-127642913D01*
X196963005Y-127372339D01*
X197200938Y-127336079D01*
X198726798Y-126899015D01*
X199949357Y-126045525D01*
X200829798Y-124823931D01*
X201329306Y-123282554D01*
X201431579Y-122069336D01*
X201453719Y-121244806D01*
X201573012Y-120651130D01*
X201868767Y-120108220D01*
X202420291Y-119435988D01*
X202755827Y-119062327D01*
X203881719Y-117703271D01*
X204603230Y-116566100D01*
X204900458Y-115683240D01*
X204907368Y-115556657D01*
X204784550Y-115258524D01*
X204331403Y-115189752D01*
X204017073Y-115217013D01*
X203425795Y-115258462D01*
X203248217Y-115115455D01*
X203368794Y-114679973D01*
X203387990Y-114628920D01*
X203535842Y-113545709D01*
X203288583Y-112351331D01*
X202715643Y-111199473D01*
X201886448Y-110243825D01*
X201195938Y-109776530D01*
X200302536Y-109327797D01*
X201201268Y-109241793D01*
X201798491Y-109142318D01*
X202022521Y-108884436D01*
X202013290Y-108290547D01*
X202006346Y-108220000D01*
X201867102Y-107431188D01*
X201659078Y-106809991D01*
X201649785Y-106792130D01*
X201441863Y-106184640D01*
X201400025Y-105947369D01*
X201431579Y-105947369D01*
X201565263Y-106081053D01*
X201698947Y-105947369D01*
X201565263Y-105813684D01*
X201431579Y-105947369D01*
X201400025Y-105947369D01*
X201303075Y-105397554D01*
X201300695Y-105372763D01*
X200926372Y-104058092D01*
X200118932Y-102835574D01*
X198979900Y-101787403D01*
X197610804Y-100995773D01*
X196113169Y-100542880D01*
X195242131Y-100467807D01*
X194651045Y-100319595D01*
X193830185Y-99935941D01*
X193103183Y-99494811D01*
X191544413Y-98525743D01*
X190195527Y-97868218D01*
X189125472Y-97554040D01*
X188846050Y-97531135D01*
X187417185Y-97758483D01*
X186011525Y-98403237D01*
X184817295Y-99374165D01*
X184648336Y-99565704D01*
X183724129Y-100472658D01*
X182774468Y-100963888D01*
X182586999Y-101016828D01*
X180883617Y-101522714D01*
X179590055Y-102098269D01*
X178581503Y-102802563D01*
X178334702Y-103029406D01*
X177398139Y-104088991D01*
X176745204Y-105234821D01*
X176283901Y-106648774D01*
X176114933Y-107417895D01*
X175772106Y-109155790D01*
X175872182Y-107532224D01*
X176188846Y-105749103D01*
X176938163Y-104108441D01*
X178168536Y-102504756D01*
X178189520Y-102481941D01*
X178919433Y-101568893D01*
X179195524Y-100859418D01*
X179021355Y-100280068D01*
X178400488Y-99757389D01*
X178323890Y-99711249D01*
X177297085Y-98924544D01*
X176743730Y-98000994D01*
X176602885Y-96822986D01*
X176605689Y-96780697D01*
X176834683Y-96780697D01*
X176985873Y-97679028D01*
X177505733Y-98532696D01*
X177663487Y-98719118D01*
X178270856Y-99322323D01*
X178847742Y-99597079D01*
X179653770Y-99664140D01*
X179695487Y-99664211D01*
X180524187Y-99598002D01*
X181150731Y-99324387D01*
X181831005Y-98730881D01*
X181840695Y-98721200D01*
X182406237Y-98104895D01*
X182657992Y-97598078D01*
X182684522Y-96958019D01*
X182642349Y-96524084D01*
X182263034Y-95313247D01*
X181487265Y-94328573D01*
X180425222Y-93699451D01*
X180172661Y-93623745D01*
X179164768Y-93621426D01*
X178227216Y-94057592D01*
X177460855Y-94836863D01*
X176966535Y-95863858D01*
X176834683Y-96780697D01*
X176605689Y-96780697D01*
X176628354Y-96438941D01*
X176965150Y-95130851D01*
X177641311Y-94142891D01*
X178573701Y-93527192D01*
X179679182Y-93335888D01*
X180874617Y-93621110D01*
D11*
X178140000Y-97260000D02*
X181000000Y-97260000D01*
X178140000Y-95340000D02*
X178140000Y-97260000D01*
X181000000Y-95340000D02*
X178140000Y-95340000D01*
X190740000Y-127960000D02*
X193600000Y-127960000D01*
X190740000Y-126040000D02*
X190740000Y-127960000D01*
X193600000Y-126040000D02*
X190740000Y-126040000D01*
X188360000Y-125840000D02*
X185500000Y-125840000D01*
X188360000Y-127760000D02*
X188360000Y-125840000D01*
X185500000Y-127760000D02*
X188360000Y-127760000D01*
X184860000Y-123560000D02*
X184860000Y-120700000D01*
X182940000Y-123560000D02*
X184860000Y-123560000D01*
X182940000Y-120700000D02*
X182940000Y-123560000D01*
X179360000Y-121460000D02*
X179360000Y-118600000D01*
X177440000Y-121460000D02*
X179360000Y-121460000D01*
X177440000Y-118600000D02*
X177440000Y-121460000D01*
X176960000Y-114285000D02*
X176960000Y-111425000D01*
X175040000Y-114285000D02*
X176960000Y-114285000D01*
X175040000Y-111425000D02*
X175040000Y-114285000D01*
X180765000Y-110460000D02*
X183625000Y-110460000D01*
X180765000Y-108540000D02*
X180765000Y-110460000D01*
X183625000Y-108540000D02*
X180765000Y-108540000D01*
X181040000Y-104460000D02*
X183900000Y-104460000D01*
X181040000Y-102540000D02*
X181040000Y-104460000D01*
X183900000Y-102540000D02*
X181040000Y-102540000D01*
X199640000Y-104765000D02*
X199640000Y-107625000D01*
X201560000Y-104765000D02*
X199640000Y-104765000D01*
X201560000Y-107625000D02*
X201560000Y-104765000D01*
X193940000Y-103060000D02*
X196800000Y-103060000D01*
X193940000Y-101140000D02*
X193940000Y-103060000D01*
X196800000Y-101140000D02*
X193940000Y-101140000D01*
X189560000Y-98840000D02*
X186700000Y-98840000D01*
X189560000Y-100760000D02*
X189560000Y-98840000D01*
X186700000Y-100760000D02*
X189560000Y-100760000D01*
X197215000Y-126460000D02*
X200075000Y-126460000D01*
X197215000Y-124540000D02*
X197215000Y-126460000D01*
X200075000Y-124540000D02*
X197215000Y-124540000D01*
M02*
